<svg xmlns="http://www.w3.org/2000/svg" width="116.789" height="161.529" viewBox="0 0 116.789 161.529">
  <g id="Group_20" data-name="Group 20" transform="translate(-342.186 -188.711)">
    <g id="Group_15" data-name="Group 15" transform="translate(342.186 188.711)">
      <path id="Path_239" data-name="Path 239" d="M403.08,344.956c-28.247,0-51.227-32.746-51.227-73s22.981-73,51.227-73,51.227,32.747,51.227,73S431.327,344.956,403.08,344.956Zm0-145.254c-27.838,0-50.486,32.413-50.486,72.257s22.648,72.255,50.486,72.255,50.485-32.415,50.485-72.255S430.919,199.7,403.08,199.7Z" transform="translate(-344.686 -191.361)"/>
      <path id="Path_240" data-name="Path 240" d="M400.581,350.24c-32.2,0-58.395-36.23-58.395-80.765s26.2-80.764,58.395-80.764,58.394,36.23,58.394,80.764S432.779,350.24,400.581,350.24Zm0-160.788c-31.791,0-57.654,35.9-57.654,80.023S368.79,349.5,400.581,349.5s57.653-35.9,57.653-80.023S432.371,189.452,400.581,189.452Z" transform="translate(-342.186 -188.711)"/>
      <path id="Path_241" data-name="Path 241" d="M401.367,348.43c-30.955,0-56.139-35.055-56.139-78.141s25.184-78.139,56.139-78.139,56.139,35.053,56.139,78.139S432.323,348.43,401.367,348.43Zm0-154.056c-29.728,0-53.915,34.056-53.915,75.915s24.187,75.917,53.915,75.917,53.915-34.057,53.915-75.917S431.1,194.374,401.367,194.374Z" transform="translate(-342.973 -189.6)"/>
    </g>
    <g id="Group_16" data-name="Group 16" transform="translate(377.325 214.98)">
      <path id="Exclusion_10" data-name="Exclusion 10" d="M23.883,35.954c-1.08,0-2.162-.007-3.078-.014l-1.813-.011-.592-.005-.805-.007a.739.739,0,0,1-.562-.165.537.537,0,0,1-.123-.415.794.794,0,0,1,.423-.661c.028-.424-.436-.609-.808-.758l-.013-.006c-.569-.234-1.317-.622-1.241-1.281.027-.246-.113-.282-.275-.324l-.009,0a.973.973,0,0,1-.195-.068,1.427,1.427,0,0,1-.331-.271.906.906,0,0,0-.487-.315,1.386,1.386,0,0,1-.781-.512,1.481,1.481,0,0,0-.7-.5l-.157-.036h-.007l-.075-.017-.087-.019c-.187-.04-.47-.1-.733-.184a2.17,2.17,0,0,1-.451-.244,1.445,1.445,0,0,0-.575-.273.318.318,0,0,1-.23-.156.908.908,0,0,1-.159-.643,1.065,1.065,0,0,0,.242-.928c-.019-.1-.029-.2-.038-.3V27.8a1.868,1.868,0,0,0-.124-.607,1.091,1.091,0,0,0-.341-.382l-.006,0a1.107,1.107,0,0,1-.366-.418.521.521,0,0,1,.043-.5l0-.009,0-.01a1.142,1.142,0,0,0,.09-.244c.028-.116-.208-.229-.416-.328l-.007,0-.012-.006a1.36,1.36,0,0,1-.255-.141,3.12,3.12,0,0,1-.964-1.762,1.457,1.457,0,0,0-.462-.667l0,0a1.241,1.241,0,0,1-.5-.946c0-.073,0-.269-.053-.328a.055.055,0,0,0-.041-.018c-.038,0-.089.037-.15.109l-.076.089-.032.039a1.008,1.008,0,0,1-.771.487H5.749c-.345,0-.571-.29-.769-.547l-.048-.061a.931.931,0,0,0-.051-.318.276.276,0,0,0-.266-.2H4.6a1.65,1.65,0,0,1-.217.014,2.986,2.986,0,0,1-1.873-.919l-.028-.025-.019-.017-.017-.015-.018-.017L2.4,20.022,2.4,20.014c-.151-.14-.251-.232-.4-.232a.648.648,0,0,0-.308.1.981.981,0,0,1-.165.015,1.106,1.106,0,0,1-.715-.284,1.183,1.183,0,0,1-.436-.856A1.153,1.153,0,0,1,.75,17.9a.553.553,0,0,0,.2-.635l0-.015,0-.016C.935,17.162.923,17.089.915,17c-.007-.064-.016-.13-.025-.2l-.008-.061a2.613,2.613,0,0,1-.025-.9c.023-.1.039-.206.054-.3l0-.024,0-.019,0-.019,0-.019a2.508,2.508,0,0,1,.161-.678.441.441,0,0,0,.039-.338c-.047-.1-.167-.148-.306-.2l-.007,0a1.111,1.111,0,0,1-.339-.169A1.031,1.031,0,0,1,0,13.163a.984.984,0,0,1,.693-.877.886.886,0,0,1,.379-.1,1.258,1.258,0,0,1,.543.174l.006,0,.006,0,.048.024a1.305,1.305,0,0,1,.386.267c.074.086.135.126.191.126a.3.3,0,0,0,.173-.1l.014-.011a.987.987,0,0,1,.146-.107,8.8,8.8,0,0,1,1.945-.839.965.965,0,0,1,.175-.033c.132-.015.2-.023.2-.232a.333.333,0,0,0-.129-.3l-.016-.016-.01-.01c-.017-.017-.037-.037-.058-.06a1.162,1.162,0,0,1,.4-1.018,1.1,1.1,0,0,1,.76-.326,1.142,1.142,0,0,1,.928.533,1.131,1.131,0,0,1,.133.847v.052c-.008.083-.017.169-.02.259a2.4,2.4,0,0,0,.689.075H7.86a2.86,2.86,0,0,1,.525.038c.1.018.2.041.284.062h.025a3.032,3.032,0,0,0,.657.1,1.107,1.107,0,0,0,.135-.007c.215-.022.383-.308.531-.56l.011-.02.011-.019a2.353,2.353,0,0,1,.134-.209,4.3,4.3,0,0,1,.781-.787,2.923,2.923,0,0,1,.473-.3,1.071,1.071,0,0,0-.163-.4l-.01-.017-.005-.009c-.019-.034-.039-.067-.055-.1a.817.817,0,0,1,.013-.837,1.224,1.224,0,0,1,1.023-.527,1.044,1.044,0,0,1,1.01.695l.022.056,0,.011v0l.005.014.006.015a2.2,2.2,0,0,0,.146.312c.028,0,.055,0,.1,0a3.958,3.958,0,0,0,.428-.031h.006l.021,0h0l.071-.008c.094-.009.2-.014.306-.014a6.785,6.785,0,0,1,.91.079,20.756,20.756,0,0,1,2.266.48l.029.007a5.315,5.315,0,0,0,1.267.206,1.671,1.671,0,0,0,.911-.233c.256-.11.936-.705.881-.974-.019-.093-.123-.141-.308-.141h-.06a.919.919,0,0,1-.754-.467.666.666,0,0,1-.033-.676.854.854,0,0,1,.733-.492h.048a2.157,2.157,0,0,1,.4.051h.024l.129.025a.409.409,0,0,0,.078.008c.155,0,.173-.118.195-.267a1.213,1.213,0,0,1,.045-.211,2.341,2.341,0,0,1,.811-1.116c.044-.348-.225-.453-.465-.506l-.105-.024c-.233-.052-.5-.111-.607-.341a1.38,1.38,0,0,0-.359-.514,1.784,1.784,0,0,1-.314-.4c-.259-.513.3-.932.475-1.048.185-.287.438-.679.827-.679a.562.562,0,0,1,.087.007.156.156,0,0,0,.048.007c.141,0,.191-.191.244-.394l0-.008a.816.816,0,0,1,.214-.458.662.662,0,0,1,.183-.085l.006,0a.385.385,0,0,0,.258-.2c.023-.039.042-.079.061-.117l0,0c.08-.157.162-.32.342-.374A.569.569,0,0,1,23.175,0a.984.984,0,0,1,.8.636.768.768,0,0,0,.2.266.875.875,0,0,1,.22.289,1.236,1.236,0,0,1,0,.841h.008a1.427,1.427,0,0,0,.3-.045l.008,0a1.455,1.455,0,0,1,.3-.042.443.443,0,0,1,.249.066,2.706,2.706,0,0,1,.508.492l.017.019.009.01.03.034c.046.052.085.1.124.137.2.216.46.54.338.859a1.241,1.241,0,0,1-.408.489l-.008.006,0,0,0,0,0,0a1.481,1.481,0,0,0-.325.342.79.79,0,0,1-.731.336c-.265.019-.516.038-.632.314-.1.233.032.379.173.534l.009.009,0,.005a1.637,1.637,0,0,1,.126.152c.042.061.083.125.11.168l.009.014,0,.005,0,.006c.045.071.1.159.159.237a.405.405,0,0,1,.064.3.391.391,0,0,0,.071.3.341.341,0,0,0,.119.023.644.644,0,0,0,.3-.105.665.665,0,0,1,.309-.109h.019a.818.818,0,0,1,.1-.006,1.009,1.009,0,0,1,.741.37.974.974,0,0,1,.173.987.809.809,0,0,1-.7.513c-.1.01-.163.045-.18.1-.041.148.215.415.361.525a2.049,2.049,0,0,0,.85.36,2.686,2.686,0,0,0,.5.047,5.282,5.282,0,0,0,1.047-.136c.213-.043.407-.081.621-.109.252-.033.505-.069.728-.1l.057-.008.037-.005H30c.47-.068,1.055-.152,1.617-.2.182-.017.354-.025.525-.025h.121a2.052,2.052,0,0,1,.246-.392.98.98,0,0,1,.8-.4,1.24,1.24,0,0,1,.152.009,1.028,1.028,0,0,1,.7.417,1.216,1.216,0,0,1,.244.9l.02.011.019.01.04.021.081.042.019.01,0,0c.263.137.536.279.79.444a2.812,2.812,0,0,1,.531.487l0,.005.008.009a3.513,3.513,0,0,0,.378.372,1.571,1.571,0,0,0,1,.268,6.787,6.787,0,0,0,.851-.071h.008l.065-.008h.011l.025,0,.045-.006h.006c.263-.035.315-.207.375-.406l0-.01,0-.007a1.175,1.175,0,0,1,.107-.27.928.928,0,0,1,.843-.413h.047a1.094,1.094,0,0,1,.779.406.568.568,0,0,1,.127.4.673.673,0,0,0,.092.37c.1.14.4.2.661.259h.006l.021,0a2.208,2.208,0,0,1,.31.08,4.139,4.139,0,0,1,1.144.653.539.539,0,0,0,.357.107,2.356,2.356,0,0,0,.379-.043,2.311,2.311,0,0,1,.374-.043h.033c.293.012.8.425.815.723a1.1,1.1,0,0,1-.342.909c-.237.173-.171.457-.113.708l0,.013,0,.018,0,.015c.007.03.014.06.019.089a4.422,4.422,0,0,1-.079,2.525,1.306,1.306,0,0,1,.591.832,1.073,1.073,0,0,1-.219.824,1.014,1.014,0,0,1-.748.372.476.476,0,0,1-.063,0,1.073,1.073,0,0,1-.395-.15l-.01-.005,0,0a.844.844,0,0,0-.376-.137.311.311,0,0,0-.188.062,3.855,3.855,0,0,1-2.146.835.883.883,0,0,0,.234.607.714.714,0,0,1,.075.966,1.1,1.1,0,0,1-.839.476.761.761,0,0,1-.418-.216.784.784,0,0,1-.127-.167c-.049-.081-.067-.111-.288-.133a1.837,1.837,0,0,1-.588,1.455l0,0,0,0-.005.007c-.1.122-.2.249-.295.383a1.042,1.042,0,0,0-.147.465,1.454,1.454,0,0,1-.086.365l-.021.051a1.938,1.938,0,0,1-.474.767c-.043.039-.086.076-.115.1l-.011.009c-.188.156-.366.3-.237.518a1.167,1.167,0,0,1,.095.7v.046c0,.073-.009.15-.008.221a.935.935,0,0,1-.34.313l0,0a.692.692,0,0,0-.333.352c-.053.172-.093.343-.136.532a5.015,5.015,0,0,1-.226.785c.473.73.428,1.216-.151,1.624a4.7,4.7,0,0,1-2.284.737l-.087.008h0l-.025,0a1.079,1.079,0,0,0-.792.3,1.034,1.034,0,0,0-.242.441l0,.009a1.468,1.468,0,0,1-.159.348,1.847,1.847,0,0,1-.7.591,2.086,2.086,0,0,1-.344.1h-.006l-.012,0c-.24.059-.538.132-.543.215v.015c-.019.318-.023.384-.358.439a2.8,2.8,0,0,0-.837.335l-.006,0-.136.072a6.626,6.626,0,0,1-.7.294l-.013,0-.007,0-.021.008-.026.009-.02.007-.029.011-.034.013c-.092.035-.2.074-.295.113-.216.088-.412.167-.616.24-.023.109-.071.338.114.382a.667.667,0,0,1,.415.622.536.536,0,0,1-.1.4c-.1.1-.269.113-.519.118-.488,0-.992.033-1.437.057H26.44l-.031,0h-.067l-.028,0c-.488.026-.991.053-1.483.055Zm-5.42-1.1a3.043,3.043,0,0,0-1.116.165.4.4,0,0,0,.063.343c.139.167.454.182.737.182.558,0,1.006.005,1.409.005,1.02,0,2.054,0,3.054,0H25.66c.469,0,.947,0,1.41,0h.079l.122,0,.133,0a.8.8,0,0,0,.494-.123c.12-.088.169-.172.144-.25-.057-.172-.472-.261-.637-.261-.47,0-.95,0-1.415,0h-.786c-.61,0-1.262,0-2.05.007s-1.541,0-2.278,0h-.794c-.227,0-.473-.016-.734-.033h-.018C19.076,34.879,18.761,34.859,18.463,34.859Zm.53-1.488h0a1.881,1.881,0,0,1,.109.5,1.563,1.563,0,0,0,.159.6,2.2,2.2,0,0,0,.533.067c.167,0,.375-.024.414-.137a.408.408,0,0,0,.02-.15c0-.071,0-.1.145-.11h.019a.153.153,0,0,1,.115.035c.034.036.03.1.025.172v.01a1.133,1.133,0,0,0,0,.114,7.147,7.147,0,0,0,.9.049c.145,0,.29,0,.426-.005h.276c.313,0,.5-.033.505-.5,0-.037,0-.072,0-.1V33.9c-.005-.089-.009-.153.028-.192a.222.222,0,0,1,.165-.045c.014.152.017.3.019.468v.009c0,.046,0,.092,0,.138.007.2.07.239.177.239a1.133,1.133,0,0,0,.137-.013h.01l.095-.011a1.885,1.885,0,0,1,.041-.583c.021-.1.046-.208.073-.315l0-.007a2.781,2.781,0,0,0,.116-.825h-.009a.441.441,0,0,0-.315.187l-.016.017c-.081.088-.157.17-.256.17a.253.253,0,0,1-.143-.051,1.015,1.015,0,0,1-.21-.22.7.7,0,0,0-.326-.274,1.884,1.884,0,0,0,.029.617,1.87,1.87,0,0,1,.031.6.318.318,0,0,1-.222.278.213.213,0,0,1-.04,0,.123.123,0,0,1-.093-.036c-.059-.064-.048-.2-.04-.3v-.012c0-.024,0-.047,0-.067a4.649,4.649,0,0,1,.065-.606,4.954,4.954,0,0,0,.064-.582,1.855,1.855,0,0,0-.019-.3.774.774,0,0,1,.076-.535c.07.212.488,1.07.782,1.07l.025,0c.291-.05.605-.874.667-1.076l.021-.069a1.339,1.339,0,0,0,.053-.879c-.011-.037-.023-.073-.035-.111v0l-.006-.018v0a1.165,1.165,0,0,1-.071-.779.166.166,0,0,1,.116-.067c.174,0,.26.5.3.708l.006.035c0,.023.007.039.009.047a2.183,2.183,0,0,0,.639.984,3.251,3.251,0,0,1,.273.315,2.457,2.457,0,0,0,.347.381.268.268,0,0,0,.164.072.192.192,0,0,0,.154-.094,2.957,2.957,0,0,0,.153-1.585,1.786,1.786,0,0,0-.525-.734l-.032-.031-.1-.1a.467.467,0,0,1-.152-.328c.006-.126.054-.152.125-.152a.711.711,0,0,1,.074.005.946.946,0,0,0,.1.007,1.963,1.963,0,0,1,.617.826,2.546,2.546,0,0,0,.472.718c.126.117.262.226.394.332l.021.017c.146.117.312.249.46.391a.41.41,0,0,0,.262.137c.186,0,.273-.267.276-.531a2.1,2.1,0,0,0-.36-1.054,1.364,1.364,0,0,0-.428-.378,2.782,2.782,0,0,1-.258-.188c-.123-.108-.324-.375-.282-.487.013-.034.047-.051.1-.051A.571.571,0,0,1,26.6,29a1.131,1.131,0,0,1,.53.466l.03.04a2.92,2.92,0,0,0,.762.636l0,0a3.219,3.219,0,0,1,.672.535c.093.107.166.161.217.161a.065.065,0,0,0,.053-.027c.08-.106.017-.487-.034-.668a1.263,1.263,0,0,0-.477-.609l-.089-.075a1.573,1.573,0,0,1-.517-.689c-.036-.123-.134-.183-.3-.183a1.864,1.864,0,0,0-.356.051h-.006l-.014,0a1.78,1.78,0,0,1-.265.041,4.756,4.756,0,0,0-1.06.11.748.748,0,0,0-.17.071l-.007,0a.49.49,0,0,1-.247.073,1.73,1.73,0,0,0-.482.115,4.3,4.3,0,0,1-1.465.225,8.02,8.02,0,0,1-.914-.057c-.412-.049-.827-.139-1.229-.226l-.012,0a11.988,11.988,0,0,0-1.364-.242c-.08-.008-.163-.018-.246-.028l-.083-.01a7.011,7.011,0,0,0-.833-.067,1.907,1.907,0,0,0-1.072.274.313.313,0,0,0,.266.124A1.161,1.161,0,0,0,18.161,29l.008,0a1.254,1.254,0,0,1,.206-.038c.079.2-.15.349-.334.472a1.509,1.509,0,0,0-.148.108,2.131,2.131,0,0,0-.508.726c-.073.176-.084.3-.035.378a.205.205,0,0,0,.184.075,1.5,1.5,0,0,0,.667-.243,5.189,5.189,0,0,0,1.174-1.147l.006-.007.065-.079a.232.232,0,0,1,.175-.093.185.185,0,0,1,.164.1.269.269,0,0,1-.042.283.654.654,0,0,1-.433.333c-.511.044-.828,1.074-.819,1.48,0,.281.058.417.166.417s.237-.115.38-.237c.058-.051.121-.1.18-.147a5.117,5.117,0,0,0,1.235-1.361.188.188,0,0,0-.18-.132c-.274,0-.725.476-.968.732l-.026.027c-.037.038-.066.069-.088.09a.14.14,0,0,1-.026-.108c.029-.231.423-.594.555-.693.05-.037.1-.067.136-.093l.01-.007a.836.836,0,0,0,.31-.3c.1-.148.129-.15.255-.159l.085-.007a.519.519,0,0,1-.133.4c.065.041.129.084.2.134.163-.27.28-.464.579-.464.026,0,.052,0,.079,0,0,.176-.124.33-.369.458a.7.7,0,0,0-.3.34l-.027.049a2.338,2.338,0,0,0-.349,1.049.7.7,0,0,0,.02.175c.014.069.025.124,0,.165a.178.178,0,0,1-.12.06c-.014-.041-.025-.078-.035-.111-.051-.171-.072-.242-.3-.242a.966.966,0,0,0,.059.93,2.33,2.33,0,0,1,.173,1.229c0,.024,0,.051,0,.08,0,.152,0,.36-.158.36a.233.233,0,0,1-.065-.009c-.193-.053-.235-.17-.244-.368a5.007,5.007,0,0,1,.037-.71l0-.033c.014-.147.029-.3.034-.445a.879.879,0,0,0-.1-.582.135.135,0,0,0-.1-.043.36.36,0,0,0-.206.095,1.025,1.025,0,0,0-.143.159c-.095.12-.2.257-.332.257a.225.225,0,0,1-.115-.035.58.58,0,0,1-.2-.353,1.227,1.227,0,0,0-.066-.184.869.869,0,0,1-.051-.344c0-.21-.009-.408-.182-.408a.367.367,0,0,0-.113.021.335.335,0,0,0-.215.169.723.723,0,0,0,.089.522c.015.037.029.071.042.1a7.277,7.277,0,0,1,.5,2.335l0,.073c0,.192.005.288.236.29h.023c.211,0,.212-.065.218-.279v-.006a2.1,2.1,0,0,0-.009-.22.758.758,0,0,1,.128-.623ZM24.13,31.4a.534.534,0,0,0-.151.026.958.958,0,0,1-.183.621l-.014.025c-.035.062-.07.126-.1.191a.82.82,0,0,0,0,.531,1.5,1.5,0,0,1,.047.329,4.265,4.265,0,0,1-.059.612c-.018.118-.036.243-.047.366,0,.035-.008.069-.013.1l0,.014c-.015.1-.027.178.014.227a.181.181,0,0,0,.141.049.291.291,0,0,0,.089.017.094.094,0,0,0,.074-.029.2.2,0,0,0,.024-.161,3.232,3.232,0,0,0,.027-.525,2.849,2.849,0,0,1,.038-.583,2.3,2.3,0,0,1,.079-.272l0-.008,0-.006a1.3,1.3,0,0,0,.092-.485,1.267,1.267,0,0,1,.054-.264c.064-.242.151-.572.044-.711A.185.185,0,0,0,24.13,31.4Zm.543.571a.214.214,0,0,0-.141.075.61.61,0,0,0-.127.383l0,.045a6.592,6.592,0,0,1-.107.694,5,5,0,0,0-.117.908,2,2,0,0,0,.034.408.391.391,0,0,0,.1.018.1.1,0,0,0,.088-.036.22.22,0,0,0,0-.187c0-.094,0-.19,0-.262,0-.108,0-.22,0-.328a1.331,1.331,0,0,1,.184.037c-.078-.032-.112-.056-.115-.081s.03-.056.075-.092c.022-.019.05-.042.078-.069a4.187,4.187,0,0,1,0-.432,1.39,1.39,0,0,1,.157-.684.376.376,0,0,0,0-.333A.116.116,0,0,0,24.673,31.973Zm.38,2.1c0,.258.052.375.1.375s.1-.117.1-.375Zm.087-1.506-.12,0h-.007l-.165.005h-.008c0,.066,0,.161,0,.27.012.3.027.676-.116.757a.237.237,0,0,0-.1.155,1.046,1.046,0,0,0,.1.654,5.812,5.812,0,0,0,.391-1.684v0l0-.013.019-.145Zm-9.162.153c-.066,0-.135,0-.2.007h-.025c-.072,0-.131.007-.18.008,0,.406.279.421.548.436a.9.9,0,0,1,.342.061c.067.033.134.072.2.108l.028.016.017.01c.072.041.147.084.221.121a1.1,1.1,0,0,0,.254.4,1.608,1.608,0,0,0,.656.415c-.045-.523-.517-.841-.9-1.1-.065-.045-.131-.1-.2-.16a1.509,1.509,0,0,0-.4-.269A1.05,1.05,0,0,0,15.979,32.723Zm13.635-.039a2.467,2.467,0,0,0-.358.025,1.946,1.946,0,0,0-1.1.536c.007.19.007.38,0,.566a.96.96,0,0,0,.425-.144,1.806,1.806,0,0,1,.24-.112c0-.291,0-.293.247-.4l.052-.024,0,0,0,0a.891.891,0,0,1,.343-.114.372.372,0,0,1,.28.158l.042,0a.526.526,0,0,0,.383-.18c-.03-.277-.076-.28-.332-.3l-.053,0C29.726,32.686,29.667,32.684,29.614,32.684ZM25.428,33.7h0c-.067.047-.085.08-.081.094a.011.011,0,0,0,.011.007c.03,0,.107-.066.123-.229.008-.067.017-.135.029-.215a2.6,2.6,0,0,0,.04-.44l-.037,0a.208.208,0,0,0-.155.059c-.1.1-.1.323-.1.517v0a1.271,1.271,0,0,1-.009.244.777.777,0,0,1,.173-.042Zm.434-.589h0a.664.664,0,0,0-.1.515.177.177,0,0,0,.083.025.115.115,0,0,0,.108-.091.5.5,0,0,0-.093-.448Zm1.371-.17c-.018,0-.036.006-.053.01h-.005l-.04.008a1.269,1.269,0,0,1-.207.582l-.023.028.019-.022,0-.005c.032-.036.068-.072.1-.105l.009-.009c.137-.131.279-.267.194-.488Zm-.724-.145c.057,0,.083.057.114.124a.342.342,0,0,0,.141.182.71.71,0,0,1-.192-.334h.138l.138,0-.015.065,0,.011-.009.037a.825.825,0,0,1,.091-.15l0,0c.068-.093.1-.144,0-.315a1.065,1.065,0,0,0,0,.113c0,.078,0,.144-.03.179a.1.1,0,0,1-.078.027.339.339,0,0,1-.068-.008.171.171,0,0,1-.135-.065.188.188,0,0,1,0-.164.5.5,0,0,1,.14-.309A.583.583,0,0,0,26.9,31.8h-.236a.6.6,0,0,0-.055.252c0,.117-.008.2-.206.272a.883.883,0,0,1-.013.094c-.019.11-.036.214.087.243.056,0,.088.014.093.033s-.033.065-.12.119A.134.134,0,0,1,26.509,32.8Zm-9.763-.1a.768.768,0,0,1,.4.156c.044.028.083.052.123.074a1.739,1.739,0,0,0-.525-.408l-.054-.032c-.027-.183-.1-.2-.21-.222h0a.861.861,0,0,1-.208-.068.188.188,0,0,1,.183-.109,1.8,1.8,0,0,1,.731.344,1.543,1.543,0,0,0,.57.282,2.2,2.2,0,0,0-.9-.872l-.141-.089-.011-.007c-.127-.08-.259-.164-.384-.253l.007-.035c.023-.125.023-.125-.087-.152l-.022-.005-.055-.014A1.923,1.923,0,0,1,15.594,31l-.033-.021a4.754,4.754,0,0,1-.6-.05l-.268-.039a6.2,6.2,0,0,0-.933-.095c-.067,0-.135,0-.2.007a.321.321,0,0,0,.058.258c.1.111.3.113.487.115h.006a1.077,1.077,0,0,1,.36.042.622.622,0,0,1,.216.158.5.5,0,0,0,.318.18l.07.009h.007a.534.534,0,0,1,.454.21,1.43,1.43,0,0,1-.352.194.983.983,0,0,0,.567.326,2.951,2.951,0,0,1,.523.152l.005,0,.084.031a.522.522,0,0,0,.2.035c.085,0,.121,0,.145.186h.038Zm9.329-.6a.623.623,0,0,0,0,.673.531.531,0,0,0,0-.673Zm3.008-.013h0c0,.016,0,.033.006.05s0,.034.006.05v0c0,.033.007.067.011.1a.79.79,0,0,1,.146-.028h.006c.125-.015.253-.031.294-.161-.13-.006-.3-.013-.468-.013Zm1.561-.99a6.937,6.937,0,0,0-1.321.166c0,.194.181.209.373.225a1.049,1.049,0,0,1,.272.047c-.077.12-.1.2-.073.256.037.069.162.072.282.075h0c.118,0,.241.007.278.074.026.047.008.121-.054.226a3.226,3.226,0,0,0,.573.053,2.413,2.413,0,0,0,.879-.155c.291-.113.438-.224.436-.331s-.124-.192-.367-.282c-.1-.039-.2-.078-.29-.115a2.42,2.42,0,0,0-.912-.238Zm-4.119.33a.279.279,0,0,0-.216.1.838.838,0,0,0-.141.591.224.224,0,0,0,.042,0c.123,0,.152-.131.177-.247a.694.694,0,0,1,.035-.127c.193-.062.193-.066.176-.255l0-.056A.4.4,0,0,0,26.524,31.421Zm3.019.244c-.3,0-.336.054-.336.077,0,.042.092.084.181.084a.166.166,0,0,0,.125-.045.142.142,0,0,0,.029-.116Zm-.64-.232c-.021,0-.044,0-.069,0h-.008c-.029,0-.062.006-.1.006a.9.9,0,0,1-.011.111l0,.014c0,.013,0,.023,0,.032.1-.006.2-.009.313-.009a.185.185,0,0,0-.035-.131A.114.114,0,0,0,28.9,31.434Zm2.926-.785h.037c0,.043,0,.082,0,.116v.02c-.007.2-.01.272.239.36a1.541,1.541,0,0,0,.49-.242l.088-.061c.259-.177.58-.4.363-.718a.408.408,0,0,0-.327-.222,1.13,1.13,0,0,1-.21-.055.517.517,0,0,1-.168-.105l0,0a.3.3,0,0,0-.229-.1h-.023a1.908,1.908,0,0,0-.323.048l-.008,0a1.617,1.617,0,0,1-.33.047.622.622,0,0,1-.283-.065.509.509,0,0,0,.1.363.3.3,0,0,0,.226.075,1.6,1.6,0,0,0,.206-.019,1.723,1.723,0,0,1,.215-.019.329.329,0,0,1,.349.23.811.811,0,0,1-.144.011l-.109,0h-.008l-.1,0a.668.668,0,0,0-.208.027.264.264,0,0,0-.161.147.306.306,0,0,1-.131.139.436.436,0,0,0,.188.036c.046,0,.093,0,.132-.007h.016C31.753,30.651,31.791,30.648,31.829,30.648Zm-16.686-.308a.466.466,0,0,1,.341.139v-.009c-.021-.3-.021-.3.264-.4l.007,0a.23.23,0,0,0-.047-.167.158.158,0,0,0-.121-.038c-.033,0-.07,0-.11.008h0a1.479,1.479,0,0,1-.161.011H15a8.349,8.349,0,0,1-1.239-.066,1.087,1.087,0,0,0,.425.525,4,4,0,0,1,.423-.239c.029.142-.02.157-.086.178a.233.233,0,0,0-.181.184.556.556,0,0,0,.1.008,1.39,1.39,0,0,0,.348-.061l.008,0H14.8A1.367,1.367,0,0,1,15.143,30.341Zm1.87-1.129c-.175,0-.282.138-.385.272a1.13,1.13,0,0,1-.168.188,1.351,1.351,0,0,1-.164.157l-.005,0c-.157.135-.319.274-.269.5.584-.019,1.552-.475,1.678-1.118a1.819,1.819,0,0,0-.416.271,1.187,1.187,0,0,1-.59.318.9.9,0,0,1,.219-.36,1.9,1.9,0,0,0,.165-.228A.452.452,0,0,0,17.012,29.212Zm11.064-.555h0c-.039.366.608.879.884,1.1l0,0,.013.01a.551.551,0,0,0,.362.1h.009a.941.941,0,0,1,.246.031.449.449,0,0,1,.249.179l.063,0h.009c.1.007.2.014.3.025a.516.516,0,0,0,.42.213.507.507,0,0,0,.089-.007.684.684,0,0,0-.186-.57,2.067,2.067,0,0,0-1.189-.811c-.057.18.112.3.275.407.12.081.232.158.257.257a1.05,1.05,0,0,1-.565-.256,1.34,1.34,0,0,0-.442-.24.937.937,0,0,1-.347-.216.738.738,0,0,0-.453-.23Zm5.963-.143a.237.237,0,0,0-.181.067.151.151,0,0,0-.03.126c0,.068-.006.191-.017.344-.031.4-.077,1.011.1,1.113a.266.266,0,0,0,.131.042c.1,0,.169-.09.2-.267a1.872,1.872,0,0,0,.029-.365v0c0-.053.007-.136.016-.233.027-.286.063-.677-.072-.774A.315.315,0,0,0,34.039,28.514Zm-20.978.875c-.142,0-.312.182-.351.375.131.2.26.31.355.31a.1.1,0,0,0,.078-.033.546.546,0,0,0,.081-.369C13.223,29.426,13.121,29.389,13.061,29.389Zm21.616-.768h0a2.545,2.545,0,0,0-.067,1.351l.01.08c.361-.041.394-.374.38-.694,0-.04-.005-.08-.008-.12v-.015a2.1,2.1,0,0,1-.009-.345c.011-.138-.089-.175-.2-.217-.031-.011-.067-.024-.1-.04Zm-1.32-.254a.449.449,0,0,0-.154.035c-.022.316-.021.639-.018.942,0,.039,0,.083,0,.121-.007.137-.014.279.049.345a.129.129,0,0,0,.1.037.449.449,0,0,0,.165-.041c0-.136,0-.287,0-.472,0-.158,0-.315,0-.471,0-.038,0-.079,0-.118v-.02c.009-.133.017-.259-.041-.32A.124.124,0,0,0,33.357,28.367Zm-8.851-1.541c-2.233,0-4.076.071-5.8.222-1.246.107-2.273.224-3.232.367-.376.056-.757.136-1.093.207-.454.1-.923.194-1.393.246a5.62,5.62,0,0,0-1.954.622l-.086.046-.031.016c-.244.127-.455.238-.491.563-.021.2-.061.579.219.655.155-.82,1.028-1.094,1.861-1.253.26-.049.528-.114.788-.177l.029-.007a8.306,8.306,0,0,1,1.692-.292,3.629,3.629,0,0,1,1.027-.19l.026,0c.11-.009.223-.019.335-.033.208-.024.414-.056.591-.085.268-.042.545-.085.827-.107.319-.025.637-.055.962-.086h.006c.591-.057,1.2-.115,1.814-.137.477-.017.963-.042,1.432-.066l.088,0h.028c.9-.046,1.829-.093,2.744-.093.665,0,1.261.024,1.82.074l.173.016.025,0,.142.013h.009c.409.038.831.077,1.248.086h.5a2.908,2.908,0,0,1,.763.078c.123.034.189.07.216.116s.008.111-.015.188a1.279,1.279,0,0,0-.042.17,2.4,2.4,0,0,0-.014.495v.017a.264.264,0,0,0,.272.285.464.464,0,0,0,.293-.117.425.425,0,0,1,.109.331c0,.063,0,.113.033.147a.3.3,0,0,0,.211.05l.093,0c0-.113,0-.226,0-.337V28.76c0-.126,0-.255,0-.383,0-.068.007-.123.01-.168V28.2c.017-.2.017-.2-.271-.278a1,1,0,0,0-.061.22v0a.505.505,0,0,1-.167.35l-.007-.023v-.005c-.062-.207-.156-.521-.051-.688a.256.256,0,0,1,.188-.113,2.688,2.688,0,0,1,.394-.029,3.421,3.421,0,0,1,.4.025c.228.025.457.066.679.106l.021,0a6.255,6.255,0,0,0,1.11.134,5.752,5.752,0,0,0,.909.215l.01,0,.01,0a5.816,5.816,0,0,1,.9.211c.059.021.122.039.182.056l.024.007a1.236,1.236,0,0,1,.561.266c.026.026.052.054.078.081l0,0,.021.023a1.73,1.73,0,0,0,.442.373c-.037-.393-.577-.81-.9-1.058l-.045-.035a2.86,2.86,0,0,0-1.134-.365h0c-.122-.022-.245-.045-.35-.069-.375-.087-.761-.15-1.135-.212h-.009l-.016,0c-.337-.055-.684-.112-1.021-.186-.047-.011-.095-.017-.139-.023-.157-.021-.293-.04-.287-.23a.156.156,0,0,0,.007-.135.139.139,0,0,0-.107-.057.322.322,0,0,0-.1-.016.183.183,0,0,0-.151.063.177.177,0,0,0-.017.159l.036,0h.013c.1.005.206.01.308.02a3.561,3.561,0,0,1-.918.1c-.379,0-.78-.038-1.134-.071H29c-.28-.026-.544-.051-.8-.061-.39-.016-.777-.038-1.15-.06-.663-.039-1.346-.079-2.027-.079Zm-10.674,2.1a.338.338,0,0,0-.121.027.381.381,0,0,0-.212.3.425.425,0,0,0,.08.343.3.3,0,0,0,.229.1.417.417,0,0,0,.166-.037c0-.029.006-.064.011-.1v-.014c.023-.2.055-.462-.041-.571A.143.143,0,0,0,13.832,28.927Zm21.49.161c-.011.19-.021.4-.013.611l.082-.006H35.4c.191-.013.307-.02.291-.3s-.088-.3-.3-.3h-.073Zm-19.462-.863h0c-.327.082-.3.359-.268.627,0,.014,0,.027,0,.04l0,.029a.951.951,0,0,1-.014.219l0,.012c-.024.161-.047.312.089.429a.255.255,0,0,0,.155.073c.123,0,.206-.181.226-.5.025-.4-.061-.915-.194-.932Zm-1.319.476a.288.288,0,0,0-.153.059c-.186.127-.159.431-.137.675v.014c0,.058.01.112.01.157l.046.007.017,0a1.291,1.291,0,0,0,.186.021c.109,0,.177-.042.181-.253,0-.07,0-.141,0-.212v-.021c0-.064,0-.127,0-.19a.41.41,0,0,0-.037-.186A.129.129,0,0,0,14.541,28.7Zm.707-.336a.41.41,0,0,0-.282.191.84.84,0,0,1,.011.407.624.624,0,0,0,.067.5c.047.054.088.081.123.081a.077.077,0,0,0,.063-.037,2.438,2.438,0,0,0,.018-1.137Zm17.409-.115-.029,0c-.073.027-.131.148-.165.34a1.213,1.213,0,0,0,.089.835.14.14,0,0,0,.089.038c.141,0,.225-.306.236-.609a.9.9,0,0,0-.121-.563A.134.134,0,0,0,32.657,28.251Zm-1.481-.2-.086,0v.009c0,.013,0,.029-.007.046-.036.23-.145.93.019,1.122a.135.135,0,0,0,.107.051.244.244,0,0,0,.088-.019c.21-.086.191-.259.171-.442a1.352,1.352,0,0,1-.013-.187c0-.057.006-.111.01-.158l0-.03c.013-.151.022-.26-.038-.326A.337.337,0,0,0,31.176,28.046Zm.716.055a.2.2,0,0,0-.148.053.156.156,0,0,0-.031.127,1.959,1.959,0,0,1,0,.251v.007c-.013.232-.028.5.093.625a.268.268,0,0,0,.2.077.574.574,0,0,0,.1-.01c.05-.254.15-1-.047-1.093A.413.413,0,0,0,31.892,28.1ZM16.239,29.189c.057,0,.106,0,.15.008H16.4c.029,0,.053,0,.076,0,.1,0,.145-.034.155-.226.006-.171.007-.3,0-.406,0-.031,0-.06,0-.087v-.037c0-.119,0-.2-.038-.24a.2.2,0,0,0-.145-.039c-.034,0-.076,0-.129.008a2.844,2.844,0,0,1-.042.572v.007a3.79,3.79,0,0,0-.045.435Zm1.1-.185c-.111.014-.219.032-.332.057.092.092.159.135.212.135S17.318,29.133,17.339,29Zm5.814-1.372a.6.6,0,0,0-.067,0l0,.034c-.025.251-.1,1.015.08,1.217a.14.14,0,0,0,.107.05.367.367,0,0,0,.218-.109c0-.08.012-.17.021-.256.031-.313.065-.667-.09-.838A.34.34,0,0,0,23.153,27.633Zm.854.021a.956.956,0,0,0-.229.038c0,.044-.007.113-.013.18-.027.294-.071.786.094.967a.212.212,0,0,0,.163.071h.018a.14.14,0,0,0,.1-.05c.11-.125.084-.463.07-.644l0-.029c0-.026,0-.048,0-.065s0-.027,0-.04,0-.026,0-.039C24.2,27.792,24.2,27.654,24.007,27.654Zm-1.46.005a.509.509,0,0,0-.129.019c0,.022,0,.053,0,.09l0,.057c-.021.3-.059.854.067.99a.086.086,0,0,0,.065.03h.011c.227-.023.23-.2.232-.379,0-.02,0-.04,0-.058,0-.038,0-.081.005-.126v-.014c.011-.193.025-.433-.079-.545A.214.214,0,0,0,22.547,27.659Zm-5.369.387a.259.259,0,0,0-.21.089.816.816,0,0,0-.061.607.413.413,0,0,0,.107.016.283.283,0,0,0,.262-.173.547.547,0,0,0-.049-.537Zm7.507-.441h0a1.218,1.218,0,0,0-.143.994.211.211,0,0,0,.2.157.286.286,0,0,0,.239-.155A.926.926,0,0,0,25,27.788a.352.352,0,0,0-.318-.183Zm-2.893.059h0a1.5,1.5,0,0,0-.023.984.156.156,0,0,0,.135.083.328.328,0,0,0,.178-.069l0-.089c.006-.214.013-.456,0-.687-.009-.215-.044-.215-.172-.216h0c-.033,0-.073,0-.121-.006Zm-.575.015c-.078,0-.128.072-.137.2a4.108,4.108,0,0,0,.016.78.365.365,0,0,0,.071.007.3.3,0,0,0,.269-.171.72.72,0,0,0,0-.651A.3.3,0,0,0,21.218,27.679Zm4.317-.079a.262.262,0,0,0-.151.067c-.253.2-.087.751-.033.932.389-.028.4-.209.374-.584C25.718,27.86,25.684,27.6,25.535,27.6Zm3.9.014a.333.333,0,0,0-.26.105,1.055,1.055,0,0,0-.1.765.5.5,0,0,0,.119.016.229.229,0,0,0,.176-.069c.118-.128.095-.4.076-.627-.006-.073-.011-.138-.011-.191Zm-8.919.111a.392.392,0,0,0-.08.009,1.231,1.231,0,0,0-.068.565c0,.051,0,.109,0,.166a.837.837,0,0,0,.185.029c.113,0,.154-.058.17-.237.012-.118.037-.363-.063-.473A.19.19,0,0,0,20.518,27.725Zm5.679-.047a.559.559,0,0,0-.141.02c-.088.215-.185.653.077.772a.17.17,0,0,0,.069.015c.147,0,.26-.21.28-.4a.414.414,0,0,0-.078-.32A.267.267,0,0,0,26.2,27.678Zm-8.614.34a3.466,3.466,0,0,0,0,.389h.058a.279.279,0,0,0,.212-.063.219.219,0,0,0,.047-.171c-.011-.135-.053-.16-.13-.16H17.71l-.069,0a.519.519,0,0,1-.057,0Zm10.91-.308a.328.328,0,0,0-.078.01c-.063.122-.165.423-.081.569a.169.169,0,0,0,.149.082H28.5a.26.26,0,0,0,.234-.16.414.414,0,0,0-.025-.382A.249.249,0,0,0,28.494,27.711Zm-8.75.088h0a.431.431,0,0,0-.073.426.2.2,0,0,0,.19.13.322.322,0,0,0,.069-.009.394.394,0,0,0,.093-.377v-.013c-.013-.14-.047-.154-.127-.154h-.068a.788.788,0,0,1-.082,0Zm-.6.076a1.154,1.154,0,0,0-.2.023.64.64,0,0,0,.1.406.123.123,0,0,0,.092.043.282.282,0,0,0,.182-.1l0-.071v-.006C19.3,27.961,19.3,27.875,19.139,27.875Zm8.71-.219a.285.285,0,0,0-.192.127.583.583,0,0,0-.135.448.354.354,0,0,0,.217.1.191.191,0,0,0,.15-.075.576.576,0,0,0,.085-.44C27.949,27.683,27.892,27.656,27.848,27.656Zm-.992-.02h0c-.005.024-.011.049-.017.076v0l-.008.032c-.045.183-.1.39-.01.5a.226.226,0,0,0,.189.073l.043,0a.253.253,0,0,0,.181-.066c.048-.056.041-.144.033-.255l0-.023c0-.023,0-.047,0-.073-.013-.254-.115-.265-.326-.265h-.077Zm-8.467.256c-.042,0-.089,0-.148.005-.041.2-.04.3,0,.35s.167.067.349.067c.037-.187.05-.307,0-.367C18.564,27.908,18.5,27.892,18.39,27.892Zm-7.37-.033a.409.409,0,0,0-.3.136.346.346,0,0,0-.085.277l.042,0a.492.492,0,0,0,.367-.162.288.288,0,0,0,.066-.243A.417.417,0,0,0,11.02,27.86Zm24.539-.193a.4.4,0,0,0-.064.008h-.008a1.06,1.06,0,0,1-.151.021c.029.112.1.133.189.16l.081.026c.013-.13.011-.181-.009-.2A.046.046,0,0,0,35.559,27.667ZM12.585,27.3a2.538,2.538,0,0,0-.542.082l-.045.01-.008,0-.1.021a.956.956,0,0,1-.09.1l-.013.013c-.1.091-.194.185-.172.322l.072,0a1.475,1.475,0,0,0,.456-.09l.006,0a2.085,2.085,0,0,1,.35-.087l.113-.012a.943.943,0,0,0,.491-.142A.642.642,0,0,0,12.585,27.3ZM33.95,27.19a.388.388,0,0,0-.35.188c.084.009.172.013.257.017h.006a1.527,1.527,0,0,1,.661.126l.037.019a.681.681,0,0,0,.292.1.18.18,0,0,0,.137-.057.057.057,0,0,0,.017-.052c-.016-.059-.152-.1-.283-.146s-.24-.079-.268-.127a2.3,2.3,0,0,1-.235-.037A1.53,1.53,0,0,0,33.95,27.19Zm-23.014.076c-.123,0-.242.131-.338.237-.036.04-.068.074-.095.1.023,0,.047,0,.069.006l.026,0a.767.767,0,0,0,.105.009.135.135,0,0,0,.153-.123.124.124,0,0,1,.015-.1.071.071,0,0,1,.057-.022.247.247,0,0,1,.081.017h.022a.152.152,0,0,1,.113.031.091.091,0,0,1,.015.073V27.5a.092.092,0,0,0,.012.073.113.113,0,0,0,.087.024.546.546,0,0,0,.075-.005c.026-.185-.162-.252-.343-.316A.175.175,0,0,0,10.936,27.266Zm24.94-.007a.8.8,0,0,0-.16.025l-.03.006a.257.257,0,0,0,.212.12.347.347,0,0,0,.136-.031A.151.151,0,0,0,35.876,27.258ZM13.239,25.737a2.921,2.921,0,0,1,.929.246l.153.058c.32.115.483.228.5.346.019.139-.169.274-.369.417-.238.17-.507.363-.494.6h0a2.2,2.2,0,0,0,.591-.105l.006,0a2.5,2.5,0,0,1,.543-.106c.182-.011.291-.061.316-.144s-.061-.234-.24-.364a.464.464,0,0,1,.417-.393.3.3,0,0,1,.135.033c.309.152.234.369.147.621l-.013.038c.139.01.287.015.44.015a4.555,4.555,0,0,0,1.379-.19,3.032,3.032,0,0,1,.942-.1h.185a5,5,0,0,0,.512-.019,1.809,1.809,0,0,1,.219-.012c.078,0,.157,0,.234.007H19.8c.083,0,.172.009.263.009a1.719,1.719,0,0,0,.276-.019,7.224,7.224,0,0,1,.9-.112c.324-.019.672-.028,1.061-.028h.123c.051,0,.11,0,.167.009s.142.011.216.011a.535.535,0,0,0,.371-.1,3.45,3.45,0,0,0-.862-.481l-.006,0,0,0a3.842,3.842,0,0,1-.822-.442,5.542,5.542,0,0,1,1.17-.8l.136-.076.028-.016a1.188,1.188,0,0,1,.578-.216.861.861,0,0,1,.364.093,3.2,3.2,0,0,1,.349.21l.016.01,0,0a1.944,1.944,0,0,0,.822.391.294.294,0,0,0,.07-.008c.071-.016.15-.029.226-.041a1.217,1.217,0,0,0,.563-.181c-.116-.071-.176-.138-.181-.2-.007-.08.067-.148.139-.214s.135-.122.135-.192c0-.14-.1-.158-.185-.158a1.262,1.262,0,0,0-.139.011l-.018,0-.022,0c-.036,0-.069.007-.1.007h-.02c-.225-.005-.465-.011-.7-.014-.276,0-.52-.006-.745-.006-.8,0-1.463.025-2.087.079-.379.044-.767.06-1.143.076a11.86,11.86,0,0,0-1.493.125,11.755,11.755,0,0,1-1.373.171,5.107,5.107,0,0,0-.782.119l-.01,0-.013,0c-.133.027-.269.055-.41.079-.04.006-.1.011-.177.017-.267.021-.669.052-.783.189a.123.123,0,0,0-.029.093.424.424,0,0,0,.135.226c.1.111.2.216.072.379a.584.584,0,0,1-.384.2.177.177,0,0,1-.131-.051c-.07-.072-.007-.145.061-.222a.334.334,0,0,0,.11-.2,1.146,1.146,0,0,0-.122-.01c-.076,0-.08.024-.09.089a.723.723,0,0,1-.023.113.183.183,0,0,1-.087.026c-.059,0-.1-.046-.1-.127a.268.268,0,0,1,.13-.242c.06-.05.118-.1.109-.19a.411.411,0,0,0-.163-.033.932.932,0,0,0-.326.083l0,0-.014.005a1.449,1.449,0,0,1-.186.063c-.092.022-.185.035-.274.047h-.016a2.184,2.184,0,0,0-.384.078,7.618,7.618,0,0,1-.806.2c-.18.037-.4.083-.609.14l-.252.069a8.826,8.826,0,0,0-1,.313.286.286,0,0,0-.176.141.162.162,0,0,0,.015.135.237.237,0,0,0,.09.019.383.383,0,0,0,.248-.143c.021-.02.043-.042.065-.06a.329.329,0,0,1,.224-.075,1.2,1.2,0,0,1,.247.036,1.232,1.232,0,0,0,.249.036.4.4,0,0,0,.077-.007,1.426,1.426,0,0,0,.5-.257l.035-.024.048-.033A.522.522,0,0,1,13.239,25.737Zm-1.42,1.288a3.952,3.952,0,0,0-.413.023.184.184,0,0,0,.033.15.322.322,0,0,0,.239.068c.134,0,.135-.054.136-.151C11.815,27.086,11.815,27.057,11.819,27.025Zm21.393-.051h-.073c-.013.069-.027.132-.043.194a1.924,1.924,0,0,0,.363.034h.05a.168.168,0,0,0-.019-.149A.367.367,0,0,0,33.212,26.973Zm-22.79-.528a.251.251,0,0,1,.212.1.272.272,0,0,1,.021.25.589.589,0,0,1-.125.179l0,0c-.049.055-.091.1-.077.138s.071.055.19.069a.347.347,0,0,1,.246-.368l.005,0a.91.91,0,0,0,.222-.147.422.422,0,0,0-.261-.156.677.677,0,0,1-.182-.073.282.282,0,0,0-.133-.062.212.212,0,0,0-.091.034l-.005,0c-.023.012-.05.026-.084.042A.376.376,0,0,1,10.421,26.446Zm21.407.313a.572.572,0,0,0-.384.11.41.41,0,0,0,.273.1c.15,0,.241-.077.243-.2h-.023ZM13.3,26.05a.6.6,0,0,0-.48.2,1.625,1.625,0,0,1-.212.154.9.9,0,0,0-.338.312c-.047.085-.059.151-.034.192a.107.107,0,0,0,.1.045.394.394,0,0,0,.2-.065.576.576,0,0,1,.325-.083h.084a.441.441,0,0,0,.25-.06,4.113,4.113,0,0,0,.719-.588l-.02,0-.078-.018-.007,0A2.274,2.274,0,0,0,13.3,26.05Zm16.635.493a3.944,3.944,0,0,0-1.018.112,2.4,2.4,0,0,0,.517.046h.017c.351.007.714.015.875.218-.07-.2-.164-.376-.391-.376Zm5.421.021-.039,0a1.086,1.086,0,0,1,.061.107c.062.118.126.24.27.24l.034,0C35.664,26.782,35.593,26.564,35.36,26.564Zm-23.324-.25a.855.855,0,0,0-.587.177.337.337,0,0,0-.087.266.926.926,0,0,0,.171.015c.314,0,.653-.138.7-.446A1.717,1.717,0,0,0,12.036,26.314Zm14.782.029c-.128,0-.238,0-.337.011a.2.2,0,0,0,.053.147.361.361,0,0,0,.255.071c.06,0,.124-.005.185-.01h.031c.06,0,.116-.01.167-.01h.612c.125,0,.222,0,.3,0a.175.175,0,0,0-.176-.161.3.3,0,0,0-.077.011l.113-.037.057-.019.007,0,.048-.016a4.023,4.023,0,0,1-.529.029c-.1,0-.2,0-.3,0h-.053C27.079,26.346,26.948,26.343,26.818,26.343Zm-2.738.168h0c.22,0,.442.008.656.016h.031c.193.007.366.013.541.016l.1,0c.047,0,.1,0,.146,0a.582.582,0,0,0,.264-.043c.059-.031.087-.06.081-.086-.017-.066-.252-.087-.273-.087h-.917a.335.335,0,0,1-.282-.127.261.261,0,0,0-.214-.105h0a.891.891,0,0,0-.586.218.253.253,0,0,0-.059.207C23.731,26.516,23.9,26.51,24.08,26.51Zm6.122-.321h0c.029.145.1.174.212.216.028.011.061.024.095.04a2.364,2.364,0,0,1,.015-.256H30.2Zm3.7-.336a.892.892,0,0,0-.375.118l-.005,0a1.05,1.05,0,0,1-.323.115c-.153.063-.236.126-.228.171s.113.072.3.072a2.1,2.1,0,0,1,.36.035l.013,0a1.651,1.651,0,0,0,.258.026,1.038,1.038,0,0,0,.331-.057c.1-.032.145-.07.152-.115.012-.084-.121-.179-.238-.263-.04-.029-.082-.058-.113-.085A.407.407,0,0,0,33.906,25.854Zm-9.658-2.608c-.967,0-1.937.041-2.882.123a5.947,5.947,0,0,1-1.1.074H20.2c-.111,0-.225,0-.335.005a4.1,4.1,0,0,0-.665.1h-.005a4.154,4.154,0,0,1-.611.1,15.179,15.179,0,0,0-2.5.345c-.362.081-.731.161-1.108.242l-.016,0c-1.259.271-2.56.551-3.814.943l-.126.038-.044.013c-.422.123-1.129.33-1.342.729a.544.544,0,0,0-.033.436l.061,0a.5.5,0,0,0,.387-.168,1.126,1.126,0,0,1,.256-.184,6.534,6.534,0,0,1,1.018-.375l.012,0,.061-.019a47.783,47.783,0,0,1,5.015-1.167,41.414,41.414,0,0,1,7.889-.641c.916,0,1.907.017,3.12.053a6.056,6.056,0,0,1,.9.1l.014,0c.2.033.415.066.623.085l.3.023h.012a6,6,0,0,1,.911.111c.378.083.767.139,1.142.193.347.049.706.1,1.058.174.375.079.754.174,1.089.259.4.1.8.2,1.217.285.239.049.44.085.631.115a.953.953,0,0,0,.447.174,1.031,1.031,0,0,0,.11.006h.083c.067,0,.1.01.2.119a.34.34,0,0,0,.265.1.7.7,0,0,0,.119-.011.278.278,0,0,0-.173-.22.436.436,0,0,1-.212-.2h-.036a1.493,1.493,0,0,1-.5-.111l.079-.021a.58.58,0,0,0,.378-.2.3.3,0,0,0-.2-.078.809.809,0,0,0-.251.057.854.854,0,0,1-.26.057H35.36a.321.321,0,0,1-.274-.137.53.53,0,0,0-.311-.19c-.228-.056-.461-.1-.686-.143l-.04-.008c-.3-.056-.638-.12-.961-.214a18.089,18.089,0,0,0-3.473-.579,3.868,3.868,0,0,0-1.4-.2c-.2,0-.374-.009-.552-.023-.691-.068-1.4-.117-2.093-.145C25.133,23.254,24.69,23.245,24.247,23.245Zm1.716,2.66h0c.015.166.094.241.161.241a.109.109,0,0,0,.091-.058.334.334,0,0,0,.04-.176l-.144,0H26.1Zm2.641-.943c-.562,0-.9.236-.912.631.016.517.885.517,1.17.517h.156a.8.8,0,0,0,.673-.291c.092-.08.247-.213.165-.351A1.575,1.575,0,0,0,28.6,24.962Zm-1.618.871c-.186,0-.3.069-.33.206a1.248,1.248,0,0,0,.413.07,1.3,1.3,0,0,0,.4-.063c0-.147-.048-.154-.152-.169l-.078-.013A1.168,1.168,0,0,0,26.986,25.834Zm-1.853-.121c-.3,0-.635.136-.689.362h.151c.158,0,.316,0,.45-.005h.076c.108,0,.23,0,.348,0h.173a.293.293,0,0,0-.085-.218A.6.6,0,0,0,25.133,25.713Zm5.464-.065a.6.6,0,0,0-.288.071c.048.167.279.2.482.222a1.188,1.188,0,0,1,.255.048,1.319,1.319,0,0,0,.5.084c.127,0,.257-.01.378-.021l.023,0c.1-.007.194-.015.289-.018a1.733,1.733,0,0,0-.907-.178h-.22A.76.76,0,0,0,30.6,25.648Zm4.323-.027h.033c.015.024.029.046.04.065.075.124.093.153.278.153h.023a1.057,1.057,0,0,1,.13.01l.021,0a.836.836,0,0,0,.086.006.146.146,0,0,0,.1-.029.144.144,0,0,0,.039-.116.7.7,0,0,1-.138.014,1.485,1.485,0,0,1-.557-.153l0,0a1.459,1.459,0,0,0-.544-.152.606.606,0,0,0-.318.089.5.5,0,0,0,.39.137c.065,0,.133-.006.2-.011h.014C34.788,25.627,34.856,25.621,34.921,25.621Zm-10.96-.162h0c-.049.157-.2.244-.46.26-.008.04-.016.078-.025.116l0,.013.049,0,.051,0a.281.281,0,0,0,.267-.115.244.244,0,0,1,.173-.091.22.22,0,0,0,.16-.08.31.31,0,0,0-.053,0H24.06c-.045,0-.072-.015-.1-.095Zm8.8-.014h0l.019.035c.072.145.072.145.03.272-.006.017-.012.037-.02.06l0,.005c.1.007.206.011.309.011h.1a.476.476,0,0,0-.231-.22l0,0a.766.766,0,0,1-.206-.161ZM22.445,25.3a.421.421,0,0,0-.31.113.232.232,0,0,0-.058.185l.03.007.059.015a.977.977,0,0,0,.195.037c.1,0,.119-.087.162-.346v0A.55.55,0,0,0,22.445,25.3Zm9.971.13a1.654,1.654,0,0,0-.366.057l-.009,0-.049.012-.018,0a.422.422,0,0,0,.358.141c.062,0,.128-.006.185-.011h.005l.027,0c.051,0,.1-.008.147-.008h.042C32.7,25.5,32.594,25.434,32.416,25.434Zm-5.559.136h0a1.206,1.206,0,0,0,.317.057.381.381,0,0,0,.256-.085c-.064-.255-.538-.384-1.409-.384-.273,0-.532.013-.722.022h-.043l-.166.008c.017.335.359.374.615.374.067,0,.132,0,.189-.005h.039a.605.605,0,0,1,.112-.009,1.534,1.534,0,0,1,.286.037,1.554,1.554,0,0,0,.286.037.546.546,0,0,0,.238-.05Zm-2.572-.376a.4.4,0,0,0-.1.32c.221-.066.369-.122.368-.182C24.549,25.288,24.465,25.244,24.284,25.194Zm-1.726-.015h0c-.015.133-.011.189.017.224s.091.044.193.054l.11.012a1.78,1.78,0,0,0,.245.019,1,1,0,0,0,.274-.035.649.649,0,0,0,.205-.118.648.648,0,0,1,.175-.107.365.365,0,0,1,.107-.014h0a.232.232,0,0,0,.155-.042.1.1,0,0,0,.035-.108c-.065-.167-.64-.311-.762-.311h-.01a2.263,2.263,0,0,0-.947.494l-.035.025-.057.041a.887.887,0,0,1,.1-.012h.008c.085-.005.12-.007.18-.124Zm10.306-.015a.22.22,0,0,1,.238.143c0,.052.024.077.069.077a.846.846,0,0,0,.405.07,3.746,3.746,0,0,0,.655-.066,2.49,2.49,0,0,0-.7-.194l-.083,0c-.061,0-.095.007-.105.023s0,.029,0,.046a.073.073,0,0,1,0,.061c-.011.021-.043.036-.1.047a.242.242,0,0,1-.079.017.153.153,0,0,1-.069-.075.336.336,0,0,1,.017-.1c-.025-.123-.091-.184-.2-.184a.4.4,0,0,0-.092.012l-.045-.007a3.386,3.386,0,0,0-.488-.047c-.039,0-.078,0-.115,0a.225.225,0,0,0,.257.22,1.4,1.4,0,0,0,.209-.023h.01A1.4,1.4,0,0,1,32.865,25.164Zm-2.675-.121c-.02,0-.041,0-.066,0a.3.3,0,0,0,.094.221.626.626,0,0,0,.43.163.4.4,0,0,0,.328-.134,1.761,1.761,0,0,1-.3-.112l-.007,0-.005,0A1.184,1.184,0,0,0,30.19,25.043Zm1.178.156a.071.071,0,0,0-.055.024.26.26,0,0,0-.034.193l.056,0a.192.192,0,0,0,.152-.047.072.072,0,0,0,.012-.063A.155.155,0,0,0,31.368,25.2ZM8.635,24.332a1.126,1.126,0,0,0,1.182.791,5.484,5.484,0,0,0,1.554-.334l.024-.008c.138-.044.268-.085.385-.118,1.48-.415,2.97-.757,4.429-1.017,1.138-.2,2.327-.337,3.376-.458l.014,0c.3-.035.7-.081,1.1-.129a10.946,10.946,0,0,1,1.32-.064H22.9c.415,0,.763-.014,1.1-.043a.26.26,0,0,0,.232-.159l0,.039a3.465,3.465,0,0,0,1,.119c.173,0,.349-.006.519-.013h.006l.254-.009c.1,0,.189.007.278.007s.162,0,.238-.006c-.072,0-.151-.005-.249-.005-.08,0-.167,0-.267,0-.231-.012-.465-.036-.692-.059a9.41,9.41,0,0,0-.963-.066h-.086c.006-.079.01-.156.015-.231v-.021l.006-.095c-.012.068-.025.145-.038.236a.284.284,0,0,0-.2-.23,1.722,1.722,0,0,0,.153-.186.453.453,0,0,0,.385.147,3.41,3.41,0,0,0,.988-.237l.025-.009c.092-.032.172-.06.231-.076a2.2,2.2,0,0,0,1.2-.765c.075-.091.142-.135.2-.135s.131.05.2.154c.133.209.059.258-.086.357-.033.022-.069.046-.106.074l-.019.015a3.247,3.247,0,0,1-1.249.667,1.481,1.481,0,0,0,.643.115c.067,0,.141,0,.231,0h.007c.09,0,.163,0,.23,0h.027a2.937,2.937,0,0,1,.557.074,3.262,3.262,0,0,0,.532.075,1.371,1.371,0,0,1,.014-.52c.129.325.676.374.99.374a3.292,3.292,0,0,0,.789-.093,1.687,1.687,0,0,0,.432-.254l0,0a1.244,1.244,0,0,1,.559-.286c.1,0,.175.063.22.192a1.814,1.814,0,0,0,1.8,1.253,2.525,2.525,0,0,0,1.291-.367c.06-.038.139-.1.216-.161a1.208,1.208,0,0,1,.484-.293c.156,0,.239.281.306.506a1.816,1.816,0,0,0,.076.226,1.348,1.348,0,0,0,1.155.837,1.032,1.032,0,0,0,.12-.007,1.772,1.772,0,0,0,1.247-1.07c.2-.36.717-1.317.219-1.736a.353.353,0,0,1,.232-.119.412.412,0,0,0,.233-.106,3.552,3.552,0,0,1,.412-.333l.042-.031c.28-.2.629-.456.647-.863a.919.919,0,0,0-.684.418c-.057.093-.123.143-.188.143s-.131-.059-.18-.169c-.063-.143-.237-.474-.481-.474a.445.445,0,0,0-.335.217,1.607,1.607,0,0,0,.047.454,1.611,1.611,0,0,1,.046.456,1.212,1.212,0,0,1-.449.67l0,0,0,0-.069.065c-.142.139-.25.256-.249.382a.482.482,0,0,0,.193.319.334.334,0,0,0,.069.007.714.714,0,0,0,.223-.049.71.71,0,0,1,.225-.049.326.326,0,0,1,.058,0,2.639,2.639,0,0,1-.575,1.1.949.949,0,0,1-.705.282,1.18,1.18,0,0,1-.248-.027c-.775-.169-1.022-1.228-.949-1.926l-.057,0a.481.481,0,0,0-.45.292l-.005.008a1.479,1.479,0,0,1-.2.252,2.692,2.692,0,0,1-.671.466,2.022,2.022,0,0,1-.933.262,1.833,1.833,0,0,1-.711-.155,1.556,1.556,0,0,1-.871-1.222,2.05,2.05,0,0,1,0-.716.846.846,0,0,1,.147-.307.644.644,0,0,0,.15-.409.749.749,0,0,1-.609-.346,1.129,1.129,0,0,1-.111-.982c.151-.4.413-.474.814-.474.058-.183-.069-.289-.2-.4a.561.561,0,0,1-.223-.286.416.416,0,0,1,.083-.009.78.78,0,0,1,.429.188.963.963,0,0,0,.371.188.423.423,0,0,0,.074.006,1.411,1.411,0,0,0,.234-.029l.012,0A1.449,1.449,0,0,1,32.927,18c.191,0,.276.1.276.333a.807.807,0,0,0-.35-.065.523.523,0,0,0-.4.125.16.16,0,0,0-.021.147,1.176,1.176,0,0,0,.157.3l0,0a1.067,1.067,0,0,1,.171.353c.045.23-.192.521-.383.754-.136.167-.244.3-.211.359a.562.562,0,0,0,.541.314.688.688,0,0,0,.089-.378,1.625,1.625,0,0,1,.013-.171c.039-.237.439-.775.735-.775a.2.2,0,0,1,.035,0,.9.9,0,0,1-.2.508,1.826,1.826,0,0,0-.144.247,2,2,0,0,0-.105.311,1.847,1.847,0,0,1-.115.33.3.3,0,0,1-.112.072c-.078.039-.165.083-.165.135,0,.033.031.064.1.1a.334.334,0,0,0,.147.035.4.4,0,0,0,.288-.146.939.939,0,0,0,.2-.458,1.962,1.962,0,0,1,.072-.258c.041-.1.09-.2.145-.309l.01-.019c.042-.084.086-.171.123-.259a.522.522,0,0,0,.01-.5.581.581,0,0,0-.506-.2,1.372,1.372,0,0,0-.222.019c-.013-.175.108-.251.236-.332a.548.548,0,0,0,.224-.208A.423.423,0,0,0,33.48,18a.8.8,0,0,0-.559-.3,3.206,3.206,0,0,1-1.1-.313l0,0h0l-.218-.09a1.324,1.324,0,0,1-.187.209l0,0c-.161.154-.327.313-.234.569H31.15a.878.878,0,0,1-.4-.129,1.011,1.011,0,0,0-.359-.13h-.029a.434.434,0,0,0-.33.18.652.652,0,0,0-.145.51,1.808,1.808,0,0,1-.093.671c-.118.466-.24.949.182,1.154a.285.285,0,0,0,.122.025,1.548,1.548,0,0,0,.488-.137l.019-.007,0,0a1.408,1.408,0,0,1,.436-.128.165.165,0,0,1,.129.048.314.314,0,0,1,.041.244,1.5,1.5,0,0,1-.83,1.281c-.01-.074.106-.228.23-.392.162-.215.347-.46.3-.588a.132.132,0,0,0-.1-.08.218.218,0,0,0-.058-.007.411.411,0,0,0-.242.117.474.474,0,0,1-.231.122.7.7,0,0,1-.075,0,.708.708,0,0,1-.321-.077c-.659-.341-.491-1.172-.369-1.778v-.005c.016-.078.033-.16.047-.239.007-.042.014-.083.02-.123l.01-.064a1.161,1.161,0,0,1,.53-.992.382.382,0,0,1,.2-.057.708.708,0,0,1,.185.033h.005a1.2,1.2,0,0,0,.171.037l.034,0c.134,0,.214-.109.291-.214.025-.033.052-.071.081-.1.453-.5.007-1.488-.288-2.139-.032-.071-.069-.152-.1-.226a1.525,1.525,0,0,1-.068-.207l0-.009a.683.683,0,0,0-.194-.373c-.156-.132-.306-.275-.438-.4l-.075-.072,0,0a5.41,5.41,0,0,0-.949-.77,2.311,2.311,0,0,0-.654-.263,1.025,1.025,0,0,1-.09-.093.234.234,0,0,0-.223-.1h-.061a2.025,2.025,0,0,1-.91-.344c-.072-.042-.134-.076-.19-.105a6.773,6.773,0,0,1-1.228-.829,2.835,2.835,0,0,1-.343-.385l-.008-.01a2.045,2.045,0,0,0-.5-.508.344.344,0,0,0-.172-.038c-.043,0-.088,0-.125.008s-.086.008-.129.008a.429.429,0,0,1-.075-.005c-.014-.014-.026-.028-.038-.041l-.013-.015c-.051-.059-.095-.111-.173-.111a.231.231,0,0,0-.064.009c-.227.061-.22.361-.216.58v.007c0,.041,0,.077,0,.108a13.123,13.123,0,0,0,.414,1.771l.008.028c.065.231.132.469.193.706a3.472,3.472,0,0,1-.034,2.3,1.558,1.558,0,0,1-.125.169c-.1.127-.207.258-.171.345.02.05.085.08.2.093a.705.705,0,0,1,.638.525,1.276,1.276,0,0,1,0,.182.68.68,0,0,0,.047.338,1,1,0,0,1,.381.282,1.982,1.982,0,0,1,.355.709,3.194,3.194,0,0,1-.113.366,1.223,1.223,0,0,0-.094.82,1.242,1.242,0,0,1-.046.951.717.717,0,0,1-.632.361,1,1,0,0,1-.7-.311c-.089-.093-.311-.31-.438-.31a.078.078,0,0,0-.058.023.207.207,0,0,0-.037.149,1.074,1.074,0,0,0,.377.721,1.25,1.25,0,0,0,.954.34h.079a2.094,2.094,0,0,0,.626-.1l.009.018,0,0c.037.076.071.148.11.22a2.882,2.882,0,0,1-1.02.143,1.581,1.581,0,0,1-.88-.288,1.642,1.642,0,0,1-.737-1.472.7.7,0,0,1,.436-.246.644.644,0,0,1,.4.2l.094.08a.885.885,0,0,0,.677.3.82.82,0,0,0,.378-.787.553.553,0,0,0-.135-.227l0,0c-.095-.113-.177-.21-.059-.385A1.16,1.16,0,0,0,25.068,18a.529.529,0,0,0-.52-.341.647.647,0,0,0-.113.01,1.781,1.781,0,0,0-.551.295l-.01.007c-.091.062-.177.121-.253.162a1.072,1.072,0,0,1,.091.675.737.737,0,0,1-.738.68,1.063,1.063,0,0,1-.824-.432.957.957,0,0,1-.137-.873c-.273,0-.411-.192-.544-.377a.724.724,0,0,0-.44-.36.562.562,0,0,0-.1-.009.668.668,0,0,0-.615.558.7.7,0,0,0,.359.841,1.427,1.427,0,0,1-.131.46.932.932,0,0,0-.093.693c.087.273.246.411.472.411a1.181,1.181,0,0,0,.667-.3c.025-.021.05-.044.076-.068l.014-.013a.664.664,0,0,1,.4-.232.315.315,0,0,1,.138.033c.191.1.259.306.208.639a1.917,1.917,0,0,1-1.908,1.489,1.8,1.8,0,0,1-.466-.06,2.488,2.488,0,0,1-1.313-.88,2.279,2.279,0,0,1-.377-.7c-.314,0-.323.07-.347.254a1.541,1.541,0,0,1-.045.24,1.851,1.851,0,0,1-1.575,1.4,1.2,1.2,0,0,1-.791-.312c-.167-.141-.643-.918-.533-1.223a.2.2,0,0,1,.206-.122h.007a1.379,1.379,0,0,1,.5.158,1.42,1.42,0,0,0,.535.165.416.416,0,0,0,.37-.226.585.585,0,0,0,0-.505,1.33,1.33,0,0,1-.055-.242c-.011-.1-.015-.192-.019-.292a1.853,1.853,0,0,0-.095-.611.56.56,0,0,0-.527-.423,1.059,1.059,0,0,0-.462.131.713.713,0,0,1,.125-.342.649.649,0,0,0,.117-.339.321.321,0,0,0-.081-.244.464.464,0,0,0-.344-.111,1.209,1.209,0,0,0-.218.021,3.138,3.138,0,0,0-.355.092l-.007,0h0a1.841,1.841,0,0,1-.567.105l-.083,0-.076,0-.027,0h-.016c-.049,0-.094-.006-.135-.006a.287.287,0,0,0-.326.241c.119.009.24.025.363.042h.009a3.988,3.988,0,0,0,.532.048,1.544,1.544,0,0,0,.314-.03.824.824,0,0,0,.122-.05l.018-.008a1.375,1.375,0,0,1,.407-.141.067.067,0,0,1,.063.026c.017.031,0,.09-.049.176a1.1,1.1,0,0,1-.9.433c-.039,0-.075,0-.109,0a1.253,1.253,0,0,1-.387-.12,1.061,1.061,0,0,0-.431-.118.7.7,0,0,0-.083.005c0,.039,0,.075,0,.11,0,.147,0,.243.176.3a.176.176,0,0,1,.154.057.234.234,0,0,1-.012.212.778.778,0,0,1-.343-.135l0,0a.839.839,0,0,0-.377-.147.335.335,0,0,0-.29.218.8.8,0,0,0,.066.707,1.5,1.5,0,0,1,.128.406c0,.043.009.091.013.141l0,.035c.031.4.073.948.55.98h.027a.592.592,0,0,0,.426-.264l0,0a.584.584,0,0,1,.408-.26l.045,0a.507.507,0,0,1,.382.317.651.651,0,0,1,0,.6,1.575,1.575,0,0,1-.829.988,1.252,1.252,0,0,1-.575.144,1.857,1.857,0,0,1-.807-.222,1.428,1.428,0,0,1-.359-.285.9.9,0,0,0-.6-.343H11.56a1.884,1.884,0,0,1-.935,1.852,1.166,1.166,0,0,1-.666.191,2.98,2.98,0,0,1-1.446-.5c-.042.44.609.762,1,.883a1.876,1.876,0,0,0,.543.079,2.14,2.14,0,0,0,.725-.129,2.036,2.036,0,0,0,1.09-.89,1.163,1.163,0,0,0,.073-.175c.043-.121.077-.217.185-.217a.383.383,0,0,1,.157.045c.042.02.083.044.115.061l0,0a.71.71,0,0,0,.339.119.429.429,0,0,0,.051,0c-.026.177-.049.2-.127.2h-.087a.862.862,0,0,0-.1.007c-.15.022-.232.155-.311.285a1.26,1.26,0,0,1-.1.152,2.915,2.915,0,0,1-1,.655,2.431,2.431,0,0,1-.99.238,1.864,1.864,0,0,1-.363-.036,2.44,2.44,0,0,1-.564-.211l-.005,0a2.58,2.58,0,0,0-.508-.2Zm18.712.373a1.7,1.7,0,0,0-.739.137c.041.164.266.169.464.174.055,0,.112,0,.161.008h.018a2.111,2.111,0,0,0,.255.019.575.575,0,0,0,.218-.033.144.144,0,0,0,.1-.137C27.821,24.767,27.648,24.7,27.347,24.7Zm4.446.133a.179.179,0,0,0-.087.018.079.079,0,0,0,0,.082.167.167,0,0,0,.139.063.131.131,0,0,0,.077-.021c.035-.027.048-.053.04-.076C31.946,24.863,31.865,24.838,31.794,24.838Zm-.875-.139h-.057a.275.275,0,0,0,.05.222.358.358,0,0,0,.268.076c.041,0,.084,0,.129,0h.007l.052,0a.2.2,0,0,0-.035-.174A.536.536,0,0,0,30.918,24.7Zm-4.955-.212v.3c.032,0,.062,0,.089,0h.011l.069,0a.113.113,0,0,0,.087-.027.182.182,0,0,0,.03-.133c0-.128-.038-.15-.107-.15l-.047,0h-.005l-.067,0a.579.579,0,0,1-.059,0Zm2.7.068a1.206,1.206,0,0,1,.136.007,2.111,2.111,0,0,1,.381.082l.011,0a2.055,2.055,0,0,0,.406.082l.184.015c.259.021.526.042.789.042H30.6c-.028-.2-.117-.244-.251-.244-.042,0-.09,0-.14.009H30.2c-.056.006-.121.012-.189.013h-.035a2.068,2.068,0,0,1-.495-.076l-.029-.007c-.071-.017-.144-.034-.221-.048a6.589,6.589,0,0,0-1.17-.1c-.2,0-.413.008-.636.025a.746.746,0,0,0,.612.23c.11,0,.226-.01.319-.017h.012C28.464,24.563,28.565,24.554,28.661,24.554Zm-2.14-.352a.625.625,0,0,0-.132.014.218.218,0,0,0,.019.2.281.281,0,0,0,.232.088.571.571,0,0,0,.344-.11A.667.667,0,0,0,26.521,24.2Zm7.063-.291a.743.743,0,0,0-.192.037l-.056.015a.957.957,0,0,0,.3.047,1,1,0,0,0,.1-.005A.141.141,0,0,0,33.584,23.911Zm1.353-.259a.979.979,0,0,0-.1.005.238.238,0,0,0,.252.218.479.479,0,0,0,.309-.126A1.251,1.251,0,0,0,34.938,23.652Zm-2.181.063,0,.021c0,.019,0,.037-.007.055h.418A.172.172,0,0,0,33,23.708c-.032,0-.067,0-.095.006h-.01c-.03,0-.057.005-.084.005A.237.237,0,0,1,32.756,23.715ZM8.436,20.053a1.337,1.337,0,0,1,.6.157,2.079,2.079,0,0,1,.854,1.3c.054.159.112.327.177.482a1,1,0,0,1,.019.992.881.881,0,0,1-.351.341,1.279,1.279,0,0,0-.279.225,1.121,1.121,0,0,0,.512.127,1.593,1.593,0,0,0,1.4-1.377,1.331,1.331,0,0,0-.092-.737.523.523,0,0,0-.417-.349l-.041-.014a.987.987,0,0,1-.625-.873.779.779,0,0,1,.183-.6.806.806,0,0,1,.6-.233,1.105,1.105,0,0,1,1.042.681.772.772,0,0,1-.071.6.579.579,0,0,0-.015.6,1.828,1.828,0,0,0,1.166.99,1.57,1.57,0,0,0,.209.014,1.262,1.262,0,0,0,1.256-.906c-.017-.088-.057-.133-.121-.133-.112,0-.269.139-.344.206l0,0-.011.01-.018.016a.574.574,0,0,1-.376.115,1,1,0,0,1-.306-.048,1.27,1.27,0,0,1-.767-1.091c-.021-.208-.058-.406-.1-.608v-.007a3.31,3.31,0,0,1-.076-1.214.978.978,0,0,1,.169-.155c.144-.113.294-.231.222-.44a2.124,2.124,0,0,1-.331.026,2.33,2.33,0,0,1-.555-.069,2.947,2.947,0,0,1-1.477-.938l-.058-.067L10.4,17.06l-.005-.006-.023-.027a1.414,1.414,0,0,0-.874-.6c-.26-.066-.556-.2-.608-.392a.314.314,0,0,1,.116-.3.865.865,0,0,0,.49.378l0-.015.007-.022.008-.027c.077-.258.085-.285.393-.285.122-.128.238-.269.325-.378a.773.773,0,0,1-.1-.349V15.03c-.026-.194-.051-.378-.216-.4a.663.663,0,0,0-.089-.006.937.937,0,0,0-.857.8v.007a.427.427,0,0,1-.244.372,1.216,1.216,0,0,1,.177-.969,1.777,1.777,0,0,1,.328-.39.924.924,0,0,1-.068-.322c0-.044,0-.09,0-.131v-.012c0-.245-.006-.477-.3-.507-.367-.039-.672-.063-.963-.075-.169-.008-.336-.012-.5-.012a5.791,5.791,0,0,0-3.221.809l-.06.054-.005,0-.07.063a2.894,2.894,0,0,0-1.154,1.664A3,3,0,0,0,3.2,18.488l.045.059c.166.22.511.677.789.677a.232.232,0,0,0,.1-.022c.113-.051.179-.2.249-.348a1,1,0,0,1,.258-.394,1.055,1.055,0,0,1,.627-.212,1.251,1.251,0,0,1,1.07.691,1.221,1.221,0,0,1,.094.371c.035.229.071.465.286.521a2.032,2.032,0,0,0,.266.047.722.722,0,0,1,.518.232c.122.126.205.18.279.18a.324.324,0,0,0,.171-.075l.007,0a1.013,1.013,0,0,1,.214-.114A.731.731,0,0,1,8.436,20.053Zm22.986,3.385a.388.388,0,0,0,.325.153,1.665,1.665,0,0,0,.19-.015l.111-.012a.852.852,0,0,0-.5-.12l-.123-.005Zm4.418-4.183a.756.756,0,0,1,.558.273.987.987,0,0,1,.084,1.306.72.72,0,0,1-.3.178.653.653,0,0,0-.314.2,1.154,1.154,0,0,0-.175.689,1.761,1.761,0,0,0,.6,1.485.519.519,0,0,0,.265.076,1.036,1.036,0,0,0,.582-.278c.038-.029.081-.057.123-.083.105-.066.2-.129.206-.211,0-.058-.046-.121-.146-.192a1.656,1.656,0,0,0-.232-.133A.69.69,0,0,1,36.7,22.2a1.153,1.153,0,0,1,.033-1.073c.062-.12.126-.283.194-.456.222-.57.5-1.278,1.019-1.3h.024a.907.907,0,0,1,.687.409l.011.012a.356.356,0,0,0,.254.143c.147,0,.277-.146.416-.3l.065-.072a1.758,1.758,0,0,1-.839-1.234,1.249,1.249,0,0,1,.335-1.067,1.064,1.064,0,0,1,.764-.343.92.92,0,0,1,.668.285,1.018,1.018,0,0,1,.257.77,2.388,2.388,0,0,0,1.328-1.279,3.108,3.108,0,0,0,.329-1.848,2.643,2.643,0,0,0-.912-1.536,2.419,2.419,0,0,0-.785-.44,1.008,1.008,0,0,0-.168-.032.433.433,0,0,1-.284-.1.169.169,0,0,1-.027-.131c.01-.085.073-.128.185-.128a3.48,3.48,0,0,1,1.366.619,2.881,2.881,0,0,1,.879,1.445,3.625,3.625,0,0,1-1.088,3.338,1.617,1.617,0,0,1-.249.168c-.176.1-.3.176-.282.47a.341.341,0,0,0-.268.157.325.325,0,0,1-.3.152H40.1a.692.692,0,0,1-.46-.113,1.749,1.749,0,0,0-.213-.157,1.026,1.026,0,0,1-.335-.3.187.187,0,0,1,.011-.152.089.089,0,0,1,.073-.028.627.627,0,0,1,.139.025h0a.672.672,0,0,0,.148.026.144.144,0,0,0,.056-.01.508.508,0,0,0,.191-.179.548.548,0,0,1,.182-.177.273.273,0,0,1,.109-.034c.059,0,.075.055.082.157.01.12.058.162.1.162s.113-.069.119-.2a.6.6,0,0,0-.434-.609.951.951,0,0,0-.139-.01.792.792,0,0,0-.638.291c-.151.206-.365.611-.294.824a2.74,2.74,0,0,1,.175.29,1.424,1.424,0,0,0,.378.5,1.728,1.728,0,0,0,.639.31l.135,0a3.462,3.462,0,0,0,1.633-.44c.236-.116,1-.53.941-1.008a4.24,4.24,0,0,0-.534.417,2.834,2.834,0,0,1-.819.559,1.157,1.157,0,0,1-.175.052c-.111.025-.166.038-.265.22a2.791,2.791,0,0,0-.29-.015l-.1,0h-.215a1.6,1.6,0,0,1-.553-.076.205.205,0,0,1,.225-.141c.041,0,.085,0,.128.008s.087.009.128.009a.322.322,0,0,0,.091-.011,4.307,4.307,0,0,0,1.868-1.04,3.436,3.436,0,0,0,1.012-2.921c-.028-.731-.493-2.482-1.477-2.482a1.724,1.724,0,0,0-.526-.3,1.564,1.564,0,0,1-.553-.335.8.8,0,0,0-.09,0H40.38a.465.465,0,0,1-.352-.1A.225.225,0,0,1,40,11.653a2.83,2.83,0,0,1,.4.037,2.831,2.831,0,0,0,.4.037h.061a.42.42,0,0,0,.35.2l.109.022a2.687,2.687,0,0,1,.291.213,1.206,1.206,0,0,0,.711.354.621.621,0,0,0,.118-.012,1.987,1.987,0,0,0-.409-.33,2.692,2.692,0,0,1-.313-.231.407.407,0,0,1-.273-.1.746.746,0,0,0-.169-.1.7.7,0,0,0-.229-.061.4.4,0,0,1-.3-.155,3.453,3.453,0,0,1-.624-.076l-.09-.016c-.014.214-.087.309-.235.309a1.154,1.154,0,0,1-.284-.057c-.06-.017-.123-.034-.186-.048a1.326,1.326,0,0,0-.342-.045l-.076,0a.506.506,0,0,0-.182-.2.781.781,0,0,0-.423-.1c-.075,0-.151,0-.226.01s-.153.01-.227.01a1.09,1.09,0,0,1-.182-.014,1.063,1.063,0,0,0-.136.8c.01.086.025.172.039.255l0,.011h-.006l.011.028,0-.015,0-.014h.01c.057,0,.146-.005.249-.011l.107-.006c.15-.008.325-.016.494-.016.478,0,.718.067.732.2,0-.046,0-.063.008-.07a.012.012,0,0,1,.009,0c.013,0,.028.022.028.041a.03.03,0,0,1-.01.023.051.051,0,0,1-.035.01s-.005.007-.017.007a.758.758,0,0,1-.118-.021l-.007,0a.74.74,0,0,0-.118-.02c-.013,0-.019,0-.019.008a.7.7,0,0,0-.084,0,2.847,2.847,0,0,0-.371.037l-.024,0a3.156,3.156,0,0,1-.424.041c-.224,0-.353-.061-.4-.191l.009.053c.008.052.016.1.022.159a.925.925,0,0,0-.264.123c-.184.129-.174.32-.164.523a1.524,1.524,0,0,1,0,.237c-.014.108-.034.218-.053.324-.026.141-.053.287-.065.433a.532.532,0,0,0,.157.375.863.863,0,0,1,.169.3,1.52,1.52,0,0,1,0,.739,1.22,1.22,0,0,1-1,.623h-.036c.072.01.156.021.244.031-.062,0-.12.005-.176.006a.62.62,0,0,0-.518.17,2.876,2.876,0,0,1-.407.367,3.488,3.488,0,0,1-.966.516c-.028.01-.079.022-.144.036-.216.049-.577.131-.626.285a.163.163,0,0,0,.05.158.5.5,0,0,1,.11.492.788.788,0,0,0,.01.358c.582.417.4.787.187,1.217a2.565,2.565,0,0,0-.225.567c-.052.228-.259.972-.758.972a.846.846,0,0,1-.531-.245,1.948,1.948,0,0,1-.157-.161c-.119-.131-.242-.266-.34-.266-.079,0-.13.088-.157.269a1.439,1.439,0,0,0,.137.824,1.3,1.3,0,0,0,1.137.783,1.1,1.1,0,0,0,.236-.026,2.311,2.311,0,0,0,1.525-1.164,1.065,1.065,0,0,0,.27-.826.455.455,0,0,1-.22-.392L35,20.243c-.095-.059-.2-.126-.175-.258A1.4,1.4,0,0,1,35.84,19.255Zm-5.849,3.97a.5.5,0,0,0,.409.16,2.4,2.4,0,0,0,.288-.024,2.362,2.362,0,0,1,.28-.024c-.131-.011-.263-.032-.39-.052A3.829,3.829,0,0,0,29.99,23.225Zm-1.152-.243a6.756,6.756,0,0,0-.907.091c-.1.015-.179.027-.23.031a5.928,5.928,0,0,0,.843.05c.132,0,.269,0,.39,0s.259,0,.389,0C29.3,23.038,29.132,22.982,28.838,22.982Zm-20.4-1.4h0a.383.383,0,0,1-.113.283.315.315,0,0,0-.1.26.869.869,0,0,0,.16.417.9.9,0,0,0,.655.487h.05a.689.689,0,0,0,.649-.323c.054-.126.066-.212.037-.26s-.1-.058-.177-.065-.161-.015-.2-.077a1.722,1.722,0,0,0-.327-.345,1.782,1.782,0,0,1-.314-.326,1.018,1.018,0,0,1-.063-.759l.012-.072a.412.412,0,0,0-.071-.332.254.254,0,0,0-.2-.087.45.45,0,0,0-.309.149,1.8,1.8,0,0,0-.326.544c-.019.042-.038.083-.057.124-.066.1-.082.178-.049.239.053.1.23.149.528.149.077,0,.144,0,.189-.006H8.44Zm22.116,1.159a.4.4,0,0,0-.269.089.222.222,0,0,0,.252.179,1.883,1.883,0,0,0,.638-.189l.027-.012a.513.513,0,0,1-.1.01,1.379,1.379,0,0,1-.274-.038A1.356,1.356,0,0,0,30.556,22.745ZM7.4,21.711a.32.32,0,0,0-.16.045.963.963,0,0,0,.251.662.528.528,0,0,0,.383.175.517.517,0,0,0,.089-.008,1.086,1.086,0,0,0-.267-.721A.415.415,0,0,0,7.4,21.711Zm31.5-.479-.035,0c-.27.047-.326.442-.335.521a.616.616,0,0,1-.095.211c-.075.131-.159.278-.114.356.021.037.069.055.145.055h.007c.274,0,.4-.184.494-.454.033-.09.145-.488.04-.638A.123.123,0,0,0,38.9,21.232ZM8.958,20.878h0A1.1,1.1,0,0,0,9.6,21.964a1.453,1.453,0,0,0-.163-.526c-.033-.073-.068-.149-.1-.226-.023-.06-.038-.108-.05-.147-.05-.16-.053-.169-.335-.187Zm-3.587.736.012.008h0l0,0,.071.052.008.006a.708.708,0,0,0,.326.171c.064,0,.106-.041.127-.126a.742.742,0,0,1-.107.008.936.936,0,0,1-.423-.111.444.444,0,0,0,.231-.161l0,0a.969.969,0,0,1,.074-.073c.266-.226.247-.412.212-.751l0-.044H5.9a.64.64,0,0,0-.59.217c-.041.038-.076.07-.112.1l0,.014a.817.817,0,0,0,.036.6.2.2,0,0,0,.153.1l-.011-.007Zm10.2-.666h-.012a.827.827,0,0,0,.488.771.888.888,0,0,0,.431.127.928.928,0,0,0,.532-.2,1.919,1.919,0,0,0,.7-.9,2.339,2.339,0,0,0,.188-.828,1.207,1.207,0,0,0-.3-.6,1.056,1.056,0,0,1-.3-.763,1,1,0,0,1,.641-.748.681.681,0,0,1,.318-.086.8.8,0,0,1,.5.212,1.478,1.478,0,0,1,.506.9.983.983,0,0,1-.306.456c-.035.036-.071.073-.1.11-.477.537.315,1.441.478,1.617a1.818,1.818,0,0,0,1.3.622,1.371,1.371,0,0,0,.509-.1,2.015,2.015,0,0,0,1.021-1.034.444.444,0,0,0-.086-.411,1.952,1.952,0,0,1-1.184.674.725.725,0,0,1-.609-.351,1.277,1.277,0,0,1-.129-.93,1.445,1.445,0,0,0-.076-.858A1.085,1.085,0,0,1,20,17.715a.889.889,0,0,1,.718-.538l.057-.017c.224-.064.252-.224.281-.393a.786.786,0,0,1,.078-.264.694.694,0,0,1,.343-.264.75.75,0,0,0,.305-.212c-.928-.9-.464-2.24-.015-3.531a6.536,6.536,0,0,0,.463-1.844c-.068.008-.14.016-.213.022a8.165,8.165,0,0,1-3.86,2.439,4.258,4.258,0,0,0-1.846,1.149,4.905,4.905,0,0,0-.968,1.688,2.942,2.942,0,0,1-.026.472,1.64,1.64,0,0,0,.049.819l.057,0a.725.725,0,0,1,.665.494.606.606,0,0,1,.033.182.29.29,0,0,0,.128.255,1.6,1.6,0,0,0,.33.193c.047.022.095.046.14.07a1.259,1.259,0,0,1,.351.835,4.12,4.12,0,0,0,.078.446c.1.462.206.986-.1,1.286a.952.952,0,0,1-.663.267.923.923,0,0,1-.127-.009.694.694,0,0,1-.309-.151.629.629,0,0,0-.375-.157Zm22.006-.611h0a2.283,2.283,0,0,0-.262.264,2.207,2.207,0,0,1-.23.493,1.582,1.582,0,0,0-.261.69c.1,0,.119-.053.145-.118a.326.326,0,0,1,.1-.151,2.282,2.282,0,0,0,.345-.339.773.773,0,0,0,.163-.839Zm-30.788-.19a.638.638,0,0,0-.45.182.169.169,0,0,0-.014.166c.2.22.691.732.963.742H7.31a.229.229,0,0,0,.206-.108.607.607,0,0,0-.006-.52.819.819,0,0,0-.711-.462Zm33.537-.011a1.225,1.225,0,0,0-.165.016c-.042.006-.083.012-.126.016a.773.773,0,0,0-.339.726.243.243,0,0,0,.257.16A.838.838,0,0,0,40.234,21c.264-.1.292-.458.286-.663C40.513,20.161,40.419,20.138,40.328,20.138Zm-33.151-8.4c-.089,0-.156,0-.217,0-.508.015-1.018.076-1.511.135l-.035,0-.033,0c-.229.027-.466.056-.7.078a1.107,1.107,0,0,1-.438.173,1.565,1.565,0,0,0-.318.1c-.065.031-.129.066-.191.1l-.008,0-.026.014a1.707,1.707,0,0,1-.574.23c-.436.063-.979.7-1.311,1.229a4.513,4.513,0,0,0-.644,3.325c.087.338.344.44.617.549a1.657,1.657,0,0,1,.485.258A1.127,1.127,0,0,1,2.5,19.267c-.15.489.553,1,1.031,1.214a4.207,4.207,0,0,0,.586.2l.065.019.007,0,.076.022a.794.794,0,0,0,.229.033.537.537,0,0,0,.4-.147,1.2,1.2,0,0,0-.2-.015H4.486a.944.944,0,0,1-.29-.036,2.135,2.135,0,0,1-.366-.184l-.013-.007-.147-.084c-.286-.153-.945-.549-.9-.93a3.93,3.93,0,0,1,.462.3l.006,0a1.831,1.831,0,0,0,1.032.464.947.947,0,0,0,.159-.013,1.943,1.943,0,0,0-.821-.862l0,0a2.924,2.924,0,0,1-.653-.557A3.33,3.33,0,0,1,2.214,16.6a3.108,3.108,0,0,1,.669-2.1,3.93,3.93,0,0,1,.922-.824,1.552,1.552,0,0,1,.2-.1c.2-.083.446-.186.449-.294a2.572,2.572,0,0,0-1.934,1.345,3.387,3.387,0,0,0-.512,2.144H1.991l-.089,0-.062,0c-.1,0-.121-.034-.131-.226a1.624,1.624,0,0,1,.047-.614,2.877,2.877,0,0,1,.138-.835,3.345,3.345,0,0,1,1.04-1.519,5.641,5.641,0,0,1,3.619-1.012H6.58c.5,0,1.011.014,1.35.025a1.306,1.306,0,0,1,.437.218l.032.021c.046.031.1.063.147.092a.719.719,0,0,0,.332.111.3.3,0,0,0,.281-.223c.012-.031.03-.071.055-.125.087-.192.218-.482.144-.638a.184.184,0,0,0-.127-.1,4.38,4.38,0,0,0-.7-.105l-.024,0c-.136-.013-.277-.027-.407-.047A5.748,5.748,0,0,0,7.177,11.739Zm3.759,8.074h-.017a.6.6,0,0,0-.491.353.566.566,0,0,0,.041.575c.214,0,.639-.121.653-.4v-.029c.006-.145.014-.363-.076-.456A.147.147,0,0,0,10.936,19.813Zm25.339.292c-.125.168-.29.387-.468.594.043-.02.087-.038.13-.055.254-.1.473-.195.338-.539Zm-.5-.525c-.2,0-.56.359-.6.555.042.115.1.171.187.171a.651.651,0,0,0,.3-.132c.033-.021.062-.038.087-.053.129-.076.172-.1.17-.324C35.914,19.654,35.864,19.579,35.771,19.579Zm-31.161.24h0l-.014.009c.152.248.231.286.264.286a.038.038,0,0,0,.031-.017.175.175,0,0,0,0-.141A.213.213,0,0,0,4.7,19.8l-.032,0c.088-.041.105-.128.105-.264a.765.765,0,0,0,.45.151c.214,0,.34-.107.346-.294a.383.383,0,0,0-.2-.343.407.407,0,0,1-.186-.23.354.354,0,0,1,.125-.023A.554.554,0,0,1,5.669,19l0,0A.7.7,0,0,0,6,19.22a.661.661,0,0,0-.177-.483.736.736,0,0,0-.529-.194,1.129,1.129,0,0,0-.782.322,1.447,1.447,0,0,0-.009.962h.009a.522.522,0,0,0,.1-.008ZM31.844,18.6a.413.413,0,0,0-.33.163.325.325,0,0,0-.207.382.4.4,0,0,0,.336.329c.084,0,.281-.058.3-.595a.44.44,0,0,1,.15.115.33.33,0,0,0,.21.129.165.165,0,0,0,.05-.008l0-.018c-.022-.227-.031-.321-.273-.438A.52.52,0,0,0,31.844,18.6ZM1.467,17.936a.769.769,0,0,0-.753.486.755.755,0,0,0,.031.716A.519.519,0,0,0,1.2,19.4l.049,0c-.037-.077-.087-.185-.129-.3.038,0,.078,0,.13,0,.372,0,.564-.124.569-.368a.738.738,0,0,0-.21-.5c.03-.088.059-.18.083-.275A.933.933,0,0,0,1.467,17.936Zm16.837.2a.834.834,0,0,0-.6.282.536.536,0,0,0-.116.456c.019.022.042.049.066.079.109.132.257.313.379.313.066,0,.118-.056.152-.165a1.5,1.5,0,0,1,.169-.334,1.183,1.183,0,0,0,.192-.434.147.147,0,0,0-.03-.124A.275.275,0,0,0,18.3,18.135Zm4.553-.051-.217.024h0l-.017,0-.15.017c-.289.34-.366.574.014.91a.53.53,0,0,0,.342.131c.075,0,.131-.02.133-.049s-.1-.082-.281-.108a2.117,2.117,0,0,1,.092-.319,1.107,1.107,0,0,0,.088-.609Zm21.078-.639c-.082,0-.167.008-.242.015-.047,0-.086.008-.117.009a1.1,1.1,0,0,0-.394.832.272.272,0,0,0,.247.2c.019-.127.045-.256.076-.383a.579.579,0,0,0,.392.218c.1,0,.229-.051.3-.292a1.354,1.354,0,0,0,.029-.468C44.214,17.488,44.12,17.445,43.935,17.445Zm-21.923-.908a.65.65,0,0,0-.647.349.951.951,0,0,0,.375.606c.061.059.124.119.178.181a1.084,1.084,0,0,1,.082.109c.056.082.1.147.2.147a.356.356,0,0,0,.123-.027,1.017,1.017,0,0,0,.186-.1,1.409,1.409,0,0,1,.132-.079.405.405,0,0,1,.185-.049.563.563,0,0,1,.3.123l0,0a.574.574,0,0,0,.316.126h.03a1.186,1.186,0,0,1,.51-.5c.055-.036.112-.072.165-.11.163-.113.244-.237.234-.359s-.121-.245-.312-.335a.643.643,0,0,0-.272-.05,1.3,1.3,0,0,0-.836.3.393.393,0,0,1-.087.01.666.666,0,0,1-.374-.165.775.775,0,0,0-.333-.165A1.285,1.285,0,0,0,22.012,16.537Zm-10.04,1.007c.045.086.084.176.129.285a.2.2,0,0,1,.23-.16.8.8,0,0,1,.086.005.3.3,0,0,0,.116.015.892.892,0,0,0,.107.008l.034,0a.856.856,0,0,0-.129-.007h-.012l-.032,0-.013,0-.07-.009c-.043-.019-.062-.061-.062-.135-.12,0-.2.007-.277.007Zm-.917-2.106c-.048,0-.084.026-.122.158a1.521,1.521,0,0,1-.336.557c-.022.026-.045.05-.067.074-.11.116-.213.226-.084.395l.01.013a1.426,1.426,0,0,0,.376.382c.038.021.083.047.132.076a1.976,1.976,0,0,0,.784.326.252.252,0,0,0,.166-.052c-.058-.038-.122-.07-.19-.105-.2-.1-.4-.206-.448-.433a3.18,3.18,0,0,1,.9.29c.106.046.206.089.3.126,0-.151-.29-.308-.546-.446a2.885,2.885,0,0,1-.268-.156.938.938,0,0,1-.511-.737.124.124,0,0,1,.031,0c.082,0,.153.087.228.179l.028.034a.452.452,0,0,0,.328.214l.039,0c0,.043-.009.087-.012.13s-.006.073-.01.108a.2.2,0,0,0,.181-.109c.028-.043.053-.079.109-.079a.212.212,0,0,1,.072.015.735.735,0,0,1,.158.08.273.273,0,0,0,.154.059.446.446,0,0,0,.179-.05.822.822,0,0,1,.453-.908,3.394,3.394,0,0,0,.621-.666c.085-.11.174-.223.266-.329a2.058,2.058,0,0,1,.492-.437c.162-.1.161-.123.155-.251,0-.029,0-.062,0-.1-.148.009-.3.014-.455.014-.366,0-.73-.023-1.082-.046h-.012c-.35-.022-.71-.044-1.064-.044-.225,0-.428.009-.622.027q-.008.073-.016.145v0a6.974,6.974,0,0,0-.053.745,1.491,1.491,0,0,0,.031.227c.037.2.083.453-.029.532a.283.283,0,0,1-.162.054.416.416,0,0,1-.054,0A.364.364,0,0,0,11.055,15.438Zm2.993.816h0c0,.067,0,.135,0,.2a4.639,4.639,0,0,0,.01.516.729.729,0,0,1-.164.127c-.074.044-.094.055-.113.3.2,0,.406-.408.439-.742.023-.228-.039-.373-.17-.4Zm.743-.1a1.65,1.65,0,0,0-.1.8,3.488,3.488,0,0,1,0,.39H14.7c.142,0,.222-.021.252-.065s0-.125-.033-.22a.925.925,0,0,1-.074-.267.715.715,0,0,1,.035-.215c.044-.169.09-.344-.091-.423Zm18.186-.495a.688.688,0,0,0-.511.247.543.543,0,0,0-.116.465.568.568,0,0,0,.151.461,1.421,1.421,0,0,0,.984.4.593.593,0,0,0,.257-.048.159.159,0,0,0,.1-.146c-.069,0-.137,0-.2,0-.4,0-.752-.006-.922-.485a.156.156,0,0,1-.007-.125c.021-.039.072-.051.13-.065.083-.02.177-.042.209-.15a.171.171,0,0,1,.174-.116.237.237,0,0,1,.18.083.531.531,0,0,0-.124-.4A.411.411,0,0,0,32.978,15.662ZM43.529,14.2a.175.175,0,0,0-.051.008.966.966,0,0,0,.123.5,1.913,1.913,0,0,1,.1.249,1.43,1.43,0,0,0-.062.565c0,.087,0,.176,0,.262a3.276,3.276,0,0,1-.4,1.356c.5,0,.59-1.019.606-1.331.01-.214.047-1.3-.2-1.552A.157.157,0,0,0,43.529,14.2ZM29.92,13.289a1.827,1.827,0,0,1,.6,1.052,1.234,1.234,0,0,1,.609.748l.018.039a3.989,3.989,0,0,1,.331,1.135c0,.026.007.055.011.088.027.242.073.646.36.646a.378.378,0,0,0,.089-.012,3.863,3.863,0,0,0-.533-2.021,6.573,6.573,0,0,0-.527-.815c-.027-.037-.054-.073-.079-.106-.1-.125-.17-.224-.141-.293.021-.05.093-.081.228-.1-.012-.159-.154-.352-.312-.352a.216.216,0,0,0-.122.04.37.37,0,0,1-.19.082.184.184,0,0,1-.114-.051.341.341,0,0,0-.229-.082Zm1.636-2.7a3.614,3.614,0,0,1,1.232.285l.015.005a4.41,4.41,0,0,1,1.872,1.646l.027.035a2.784,2.784,0,0,1-.033,2.528,4.648,4.648,0,0,1-.451.675c-.052.069-.1.137-.156.208a2.116,2.116,0,0,0-.35.843,1.1,1.1,0,0,1,.352.08,1.238,1.238,0,0,0,.334.083.684.684,0,0,1,.285-.252c.138-.083.281-.168.312-.352a1.2,1.2,0,0,1-.963.464c.029-.208.185-.318.351-.435a1.867,1.867,0,0,0,.22-.173c.1-.095.192-.2.284-.293s.21-.223.321-.329a1.114,1.114,0,0,0-.133-.387l-.015-.032a1.946,1.946,0,0,0,.244-.479,3.084,3.084,0,0,0,.16-.881c.019-.29.014-.586.009-.873,0-.052,0-.1,0-.154a1.251,1.251,0,0,0-.136-.506c-.032-.074-.065-.15-.094-.236a2.158,2.158,0,0,0-.605-.883,2.094,2.094,0,0,0-.2-.162c-.168-.124-.341-.252-.382-.413a1.485,1.485,0,0,1,.881.491,1.818,1.818,0,0,1,.18.228c.119.169.232.329.459.352a2.657,2.657,0,0,0-1.18-1.309l-.036-.024a.755.755,0,0,0-.421-.182.536.536,0,0,0-.2.043,1.129,1.129,0,0,1-.406.106.7.7,0,0,1-.266-.058,1.109,1.109,0,0,1-.614-.431c-.024-.038-.048-.079-.07-.119a.855.855,0,0,0-.315-.369.914.914,0,0,0-.446-.094,3.9,3.9,0,0,0-.459.038,3.934,3.934,0,0,1-.465.038,1.149,1.149,0,0,1-.3-.036,3.466,3.466,0,0,0-.016.422,1.667,1.667,0,0,0-.627-.1c-.137,0-.276.009-.411.018l-.142.009a.924.924,0,0,0,.264.03h.166a.627.627,0,0,1,.414.111.691.691,0,0,1-.508.17,1.263,1.263,0,0,0-.311.045c-.065.021-.124.042-.18.061a1.838,1.838,0,0,1-.629.136c-.186,0-.486.1-.486.165,0,.03.068.046.2.046h.056l.1-.007c.057,0,.114-.01.172-.01a.367.367,0,0,1,.337.145l-.116.011c-.26.023-.616.054-.664.28a2.714,2.714,0,0,0,.515.046,6.983,6.983,0,0,0,.838-.068c.224-.027.455-.055.683-.065h.022c.154,0,.253.08.259.157s-.065.127-.19.146a2.843,2.843,0,0,1-.339.02c-.1,0-.2,0-.306.016-.153.02-.308.048-.458.075-.189.034-.385.069-.578.089a2.756,2.756,0,0,1-.28.013l-.138,0c-.037.09-.043.156-.017.194a.118.118,0,0,0,.1.041.437.437,0,0,0,.081-.009,3.313,3.313,0,0,1,.435.12,3.467,3.467,0,0,0,.417.117,1.146,1.146,0,0,0,.226.016.673.673,0,0,1,.356.066,1.985,1.985,0,0,0,.943.178c.157,0,.313-.007.463-.013.135-.006.261-.011.375-.011h.118c.567,0,1.186-.02,1.893-.062.04-.336-.095-.4-.34-.513-.041-.019-.084-.039-.13-.062a3.725,3.725,0,0,0-.74-.263,4.592,4.592,0,0,0-1.028-.1c-.15,0-.3,0-.449.007l-.333.006a.286.286,0,0,0,.159-.208c.017-.071.03-.122.21-.123.132,0,.266-.009.4-.016s.249-.014.373-.016ZM13.593,15.714a.82.82,0,0,0-.571.375.769.769,0,0,0-.162.671l0,0a1.185,1.185,0,0,0,.385.107c.128,0,.238-.069.377-.237.155-.186.324-.429.258-.657C13.835,15.8,13.734,15.714,13.593,15.714ZM22.6,10.849a.026.026,0,0,0-.012,0c-.169.109-.167.315-.165.5a1.562,1.562,0,0,1,0,.179,2.083,2.083,0,0,1-.161.529c-.034.084-.066.163-.092.242-.184.556-.356,1.174-.542,1.945a1.729,1.729,0,0,0,.33,1.393,1.022,1.022,0,0,0,.8.422,1.072,1.072,0,0,0,.374-.071,1.41,1.41,0,0,0,.909-1.333,5.578,5.578,0,0,0-.217-1.729c-.028-.114-.057-.227-.086-.341v0c-.056-.217-.113-.441-.161-.666a1.777,1.777,0,0,1-.023-.193c-.017-.192-.037-.431-.166-.516A4,4,0,0,0,22.6,10.849Zm-7.689,3.983c-.249,0-.351.236-.45.464a1.246,1.246,0,0,1-.156.292.2.2,0,0,0-.1.221.141.141,0,0,0,.132.1c.05,0,.147-.029.237-.221a1.978,1.978,0,0,0,.116-.37l0-.009.018-.073c.223-.109.221-.131.212-.273,0-.036-.005-.08-.005-.135Zm21.5-.322a.745.745,0,0,0-.218.035.986.986,0,0,0-.638.788l0,0a.769.769,0,0,0,.45.477.7.7,0,0,1,.346-.328.865.865,0,0,0,.427-.423,1.393,1.393,0,0,1,.139-.011c.108,0,.123.043.181.2l.007.02c.075-.019.116-.042.124-.073s-.04-.093-.1-.147a.7.7,0,0,1-.088-.1C36.866,14.689,36.687,14.509,36.413,14.509ZM32.2,13.255h0a.873.873,0,0,0-.5.115l.135.111a6.6,6.6,0,0,1,1.346,1.336c.069.1.133.206.2.309a3.459,3.459,0,0,0,.406.576c.219-.027.34-.227.446-.4l.048-.079a3.042,3.042,0,0,0,.48-1.664.457.457,0,0,0-.517-.491,2.763,2.763,0,0,0-.433.049,2.684,2.684,0,0,1-.424.05h-.015a.614.614,0,0,1-.455.133c-.109,0-.222-.009-.343-.019h-.009c-.121-.01-.245-.02-.364-.02Zm-1.125.468a.027.027,0,0,0-.027.014c-.047.1.435.718.509.807a1.733,1.733,0,0,1,.267.495,1.254,1.254,0,0,0,.434.64c.336-.307-.72-1.474-1.067-1.858l-.082-.092A.113.113,0,0,0,31.078,13.723ZM14.63,14.4a.235.235,0,0,0-.169.142,2.678,2.678,0,0,0-.56.565c-.042.052-.084.1-.126.153a.16.16,0,0,0,0,.161.121.121,0,0,0,.1.069.126.126,0,0,0,.068-.022,1.215,1.215,0,0,0,.268-.332,1.915,1.915,0,0,1,.164-.229.822.822,0,0,0,.253-.507Zm16.876-.829h0a1.254,1.254,0,0,0,.437.68,2.645,2.645,0,0,1,.279.314,1.591,1.591,0,0,1,.108.2c.107.214.24.48.438.48a.257.257,0,0,0,.108-.025,3.471,3.471,0,0,0-1.323-1.607l-.047-.038Zm-15.448.156h0a2.195,2.195,0,0,1-.487.6,1.289,1.289,0,0,0-.527.885l.019,0c.228-.019.228-.019.264-.223l.008-.045.088-.11c.072-.09.147-.183.215-.282.037-.057.067-.112.1-.165a.955.955,0,0,1,.255-.334l.031-.026a.654.654,0,0,0,.243-.3h0c-.054,0-.106,0-.157,0Zm-6.3.55a.925.925,0,0,1,.406.127,1.011,1.011,0,0,0,.37.126c0-.068,0-.138,0-.206a1.507,1.507,0,0,0-.195-.908.631.631,0,0,1-.064-.531,1.091,1.091,0,0,0,.022-.334,3.209,3.209,0,0,1,.884-1.567,5.1,5.1,0,0,1,.689-.589.637.637,0,0,1,.276.067.462.462,0,0,0,.192.052.5.5,0,0,0,.207-.054l.085-.039a4.026,4.026,0,0,1,1.626-.479h.054a4.6,4.6,0,0,1,.526-.029,10.032,10.032,0,0,1,1.808.22,10.088,10.088,0,0,0,1.806.22l.17,0a5.03,5.03,0,0,0,1.559-.391c.106-.039.227-.084.343-.124a2.8,2.8,0,0,0,.536-.779c.1-.221.152-.362.1-.469-.033-.072-.116-.126-.262-.171.067.767-.766,1.361-1.391,1.495a3.378,3.378,0,0,1-.722.067c-.2,0-.412-.011-.613-.022l-.059,0a3.5,3.5,0,0,1-.771-.151c-.122-.034-.248-.068-.38-.1-.2-.044-.4-.081-.6-.116-.25-.045-.507-.091-.755-.153-.047-.011-.094-.027-.14-.043a.817.817,0,0,0-.256-.058.327.327,0,0,0-.124.023,1.333,1.333,0,0,0-.156.082.841.841,0,0,1-.254.114,5,5,0,0,1-.55.068l-.206.019-.05,0a.4.4,0,0,1-.294-.139.337.337,0,0,0-.24-.121.184.184,0,0,1,.1.11.059.059,0,0,1-.014.06h0c-.053,0-.084-.035-.1-.106a1.4,1.4,0,0,0-.273.248.874.874,0,0,1-.474.326.435.435,0,0,1-.286.1,1.371,1.371,0,0,1-.254-.033,1.417,1.417,0,0,0-.261-.034.471.471,0,0,0-.245.062,4.25,4.25,0,0,0-1.483,1.5,4.177,4.177,0,0,0-.613,1.959v.014a.9.9,0,0,0,.1.615.277.277,0,0,0,.21.08h.013Zm4.985,0a.2.2,0,0,0,.218.166.359.359,0,0,0,.209-.069.228.228,0,0,0,.1-.183c-.058.009-.117.025-.174.039a1.169,1.169,0,0,1-.291.05.547.547,0,0,1-.064,0Zm21.141-1.494a2.617,2.617,0,0,0-.009.436,2.314,2.314,0,0,1-.019.5.821.821,0,0,0-.127.588c.255-.11.39-.377.4-.8,0-.135,0-.272-.011-.4V13.1c0-.056-.006-.111-.008-.167-.006-.132-.031-.144-.108-.144h-.016a.975.975,0,0,1-.1,0Zm-34.607-.26a2.7,2.7,0,0,0-.39.039H.873a2.568,2.568,0,0,1-.3.033.651.651,0,0,0-.312.749.875.875,0,0,0,.833.586.8.8,0,0,0,.081,0c-.01-.031-.021-.061-.031-.087l0-.009-.007-.019c-.039-.108-.068-.186-.036-.24s.085-.067.2-.083a.693.693,0,0,0,.129-.514c0-.046,0-.093,0-.137.119,0,.157.094.195.185l0,.007,0,0a.543.543,0,0,0,.047.094c.1,0,.156-.021.181-.062.037-.062,0-.161-.072-.292A.508.508,0,0,0,1.277,12.522Zm42.438-.1a.772.772,0,0,0-.563.221.628.628,0,0,0-.163.478l.05.071c.143.2.321.46.6.46h.01a.826.826,0,0,1-.128-.447.191.191,0,0,0,.072.014A.688.688,0,0,0,43.971,13l.034-.031c.107-.1.209-.186.284-.186s.126.1.14.326a.588.588,0,0,0-.145-.464A.776.776,0,0,0,43.715,12.423Zm-30.241.839a2.877,2.877,0,0,0-.367.022c.048.121.248.18.611.18.179,0,.369-.014.523-.025.1-.007.185-.014.247-.015h.02c.052,0,.122,0,.2.008l.04,0c.106.005.219.01.328.01.34,0,.518-.051.544-.154a2.541,2.541,0,0,1-.65.076,7.354,7.354,0,0,1-.743-.051h-.006A7.329,7.329,0,0,0,13.475,13.262ZM12.4,12.19c-.252,0-.486.348-.612.535l-.017.025c-.149.223-.194.372-.143.468s.215.145.522.145c-.005-.1-.005-.19-.005-.282.155,0,.321,0,.523,0,.372,0,.746-.006,1.108-.011s.728-.011,1.091-.011c.728,0,1.316.023,1.851.074a.467.467,0,0,0-.247-.067c-.029,0-.057,0-.084,0H16.38c-.023,0-.045,0-.065,0a.11.11,0,0,1-.107-.051.506.506,0,0,1-.038-.239.743.743,0,0,0,.1.006c.06,0,.122-.006.182-.011h0c.058-.005.118-.01.176-.01a.584.584,0,0,1,.218.036,1.174,1.174,0,0,1,.171.095.66.66,0,0,0,.286.127c.086,0,.135-.072.15-.219h-.009c-.16,0-.7-.121-.739-.283-.012-.058.042-.115.163-.168a9.777,9.777,0,0,1,1.132-.4l.139-.043a2.791,2.791,0,0,0,.333-.145c.085-.041.172-.083.261-.119a2.9,2.9,0,0,0,.594-.333c.047-.03.109-.063.181-.1.257-.136.608-.322.579-.577l-.028.029c-.049.048-.1.1-.151.143a.449.449,0,0,0-.29.108.832.832,0,0,1-.184.105,3.333,3.333,0,0,0-.49.257l-.017.01-.09.054a2.354,2.354,0,0,1-.785.357,1.091,1.091,0,0,0-.307.12,1.835,1.835,0,0,1-.181.086.835.835,0,0,1-.274.039.823.823,0,0,0-.275.039c-.065.025-.117.051-.168.076a.747.747,0,0,1-.369.1h-.027l-.042,0c-.044,0-.09,0-.135,0a.517.517,0,0,0-.406.14H15.75c-.326,0-.664.027-.991.053h-.007c-.333.026-.678.054-1.015.054a3.894,3.894,0,0,1-1.164-.153A.3.3,0,0,0,12.4,12.19Zm-7.26.869c-.16,0-.354.019-.447.029H4.676l-.024,0-.016,0H4.62c0,.045,0,.091,0,.136v.081l.125-.035a2.829,2.829,0,0,1,.685-.135.047.047,0,0,0-.015-.031A.467.467,0,0,0,5.138,13.058Zm1.231-.213a.813.813,0,0,0-.376.077l.019.005a2.034,2.034,0,0,0,.534.1.407.407,0,0,0,.37-.163H6.835c-.076,0-.154-.006-.234-.012S6.448,12.845,6.369,12.845Zm20.958-.821.025.014.2.11a3.636,3.636,0,0,0,1.224.374c.2.035.407.072.619.128a8.5,8.5,0,0,0,2.23.263c.627,0,1.244-.045,1.9-.092l.363-.026h.027c.037,0,.079,0,.12.007s.087.008.128.008a.19.19,0,0,0,.149-.045.142.142,0,0,0,.025-.117.647.647,0,0,0-.185-.371.637.637,0,0,0-.43-.191.435.435,0,0,0-.216.056l-.364.02c-.449.025-.912.051-1.368.051-.2,0-.384,0-.562-.015-.053,0-.109,0-.165,0a7.106,7.106,0,0,0-.842.068h-.006a7.151,7.151,0,0,1-.861.069c-.09,0-.178,0-.262-.01a3.172,3.172,0,0,1-.526-.146,4.02,4.02,0,0,0-.99-.241C27.433,11.935,27.359,11.964,27.327,12.024Zm-8.854-.061h0c0,.2-.117.224-.265.256a.953.953,0,0,0-.216.067,1.633,1.633,0,0,1-.189.074c-.123.042-.23.079-.246.151-.012.053.026.122.117.211.04,0,.079.006.117.01s.1.01.139.01c.1,0,.2-.025.215-.2a.176.176,0,0,1,0-.155.136.136,0,0,1,.116-.042h.022a.557.557,0,0,0,.136-.1.329.329,0,0,1,.214-.106.334.334,0,0,0,.069.008.1.1,0,0,0,.084-.033.171.171,0,0,0,0-.146Zm-6.251-.877a3.978,3.978,0,0,0-.811,1.033c-.108.175-.22.356-.348.534h.059c.1,0,.145,0,.165-.025s.015-.052.01-.107c0-.034-.006-.076-.006-.13.07-.027.163-.063.262-.113a.348.348,0,0,1,.094-.3.937.937,0,0,0,.111-.151,1.609,1.609,0,0,1,.336-.339c.165-.139.321-.27.354-.4h-.226Zm24.454.193a.838.838,0,0,0-.721.441.709.709,0,0,0,.023.743h.012a1.443,1.443,0,0,0,.918-.335.773.773,0,0,0,.138-.545.415.415,0,0,0-.175-.278A.758.758,0,0,0,36.676,11.28ZM14.71,10.785a2.508,2.508,0,0,0-1.155.231,6.29,6.29,0,0,0-1.015.68l-.092.071c0,.309,1.006.349,1.337.362l.054,0c.2.008.355.012.5.012a4.5,4.5,0,0,0,1.2-.142,6.5,6.5,0,0,1,.767-.14,5.41,5.41,0,0,0,.946-.193c.17-.056.342-.117.509-.176l.254-.09a1.848,1.848,0,0,1,.2-.054c.2-.046.379-.087.379-.328l-.218,0c-.6,0-1.207-.059-1.795-.116-.447-.043-.909-.088-1.366-.107C15.059,10.793,14.881,10.785,14.71,10.785Zm11.586.581a.552.552,0,0,0-.063,0c.405.271.724.449,1.092.654v0l0,0a.4.4,0,0,1-.007-.055c0-.035-.005-.07-.01-.1l.144.014h0l.1.009-.13-.054a2.159,2.159,0,0,0-.534-.172A.857.857,0,0,0,26.3,11.366Zm-13.977-.8-.051.006c-.179.019-.379.041-.436.236a1.52,1.52,0,0,0-.887,1.084,4.139,4.139,0,0,0,.6-.663l0,0,.106-.134a1.547,1.547,0,0,1,.417-.352c.08-.052.162-.106.247-.173Zm15.58.952-.135,0-.225.009a.187.187,0,0,0,.183.143.179.179,0,0,0,.178-.156ZM5.864,10.041a.877.877,0,0,0-.763.512.769.769,0,0,0,.005.721.406.406,0,0,0,.354.242.368.368,0,0,0,.073-.007c.535-.1.517-.537.5-.963,0-.042,0-.08,0-.119a.828.828,0,0,1,.105-.008c.392,0,.417.389.437.7l0,.065a.976.976,0,0,0-.067-.665c-.121-.3-.181-.326-.471-.445l-.008,0A.427.427,0,0,0,5.864,10.041Zm28.478-.155h0c-.02.222.174.315.379.413a1.582,1.582,0,0,1,.26.145,6.178,6.178,0,0,1,.7.628.4.4,0,0,0-.062-.35,2.44,2.44,0,0,0-1.273-.836Zm5.346.294a.766.766,0,0,0-.336.121.869.869,0,0,1-.3.118c-.011.028-.023.058-.036.089-.058.139-.123.3-.069.4a.207.207,0,0,0,.153.1,1.285,1.285,0,0,0,.263.024c.1,0,.192-.007.286-.015.069-.005.14-.011.21-.013a1.559,1.559,0,0,0-.085-.339,1.411,1.411,0,0,1,.143-.009c.154,0,.182.052.267.207.015.028.032.059.052.094.168-.267-.1-.487-.294-.647l-.069-.057A.293.293,0,0,0,39.689,10.18Zm-16.98-1.3a.249.249,0,0,0-.065.009,1.759,1.759,0,0,0,.234,1.723.306.306,0,0,0,.054,0c.314,0,.532-.522.555-.79.007-.07.019-.142.031-.212a.865.865,0,0,0-.054-.653.2.2,0,0,0-.049-.007c-.146,0-.191.194-.218.31s-.065.174-.107.174c-.089,0-.177-.249-.2-.349C22.868,8.95,22.8,8.877,22.709,8.877ZM13.347,10.4h0c0,.026,0,.051-.007.077,0,.043-.008.085-.011.127a.711.711,0,0,1,.142-.009c.106,0,.225,0,.276-.063a.151.151,0,0,0,.019-.132Zm8.762-1.782c-.144,0-.4.44-.446.554a1.38,1.38,0,0,0-.055.829.291.291,0,0,0,.2.136.157.157,0,0,0,.113-.056A2.722,2.722,0,0,0,22.2,8.8C22.192,8.678,22.161,8.618,22.109,8.618ZM24,8.8h0a2,2,0,0,1-.106.188.418.418,0,0,0-.026.522l0,.01c.076.154.2.41.4.438l.025,0a.163.163,0,0,0,.144-.093.976.976,0,0,0-.078-.816A.436.436,0,0,0,24,8.8Zm9.378-.346h-.033a.9.9,0,0,0-.723.515.621.621,0,0,0,.059.659,1.206,1.206,0,0,0,.865.261h.1a.86.86,0,0,0,.376-.956.737.737,0,0,1-.174.583.877.877,0,0,1-.658.247,1.378,1.378,0,0,1-.157-.009c.005-.042.006-.078.007-.11,0-.113,0-.164.172-.175.2-.016.254-.1.335-.3.042-.1.17-.442.055-.615A.249.249,0,0,0,33.375,8.451ZM11.83,9.682a1.786,1.786,0,0,1,.187.016h.006a2.114,2.114,0,0,0,.233.017c.2,0,.315-.06.346-.19l-.324.008a.515.515,0,0,1,.1-.347.533.533,0,0,0,.1-.331.621.621,0,0,0-.147-.281c-.048-.063-.087-.113-.072-.143s.054-.034.134-.034a2.059,2.059,0,0,1,.214.015.234.234,0,0,0-.045-.19.279.279,0,0,0-.218-.075,1.215,1.215,0,0,0-.774.333.906.906,0,0,0-.122.715.748.748,0,0,0,.376.487Zm14-2.771a1.305,1.305,0,0,0-.5.156l-.007,0-.009,0-.018.009-.1.045a1.306,1.306,0,0,0-.419,1.418c.226-.017.228-.028.253-.131a.956.956,0,0,1,.055-.179.99.99,0,0,1,.4-.454c.14-.088.6-.391.637-.623a.149.149,0,0,0-.031-.125A.315.315,0,0,0,25.828,6.911Zm-2.057-.887h0a.837.837,0,0,1,.442.8,1.163,1.163,0,0,1-.443,1.127,1.186,1.186,0,0,1-.735.258c.053.032.044.108.035.188v.041c0,.02,0,.04,0,.06a.73.73,0,0,1,.377-.144l.01,0a.768.768,0,0,0,.432-.178,1.832,1.832,0,0,0,.5-.675,1.673,1.673,0,0,0-.226-1.548,1.3,1.3,0,0,0-1.046-.5,1.769,1.769,0,0,0-1.585,1.071c-.012.192-.027.482-.016.776a.668.668,0,0,0,.244.457l.014.014c.037.039.076.081.113.127a1.838,1.838,0,0,0,.525.489,2.663,2.663,0,0,1,.474.028c-.061-.038-.093-.084-.089-.125a.1.1,0,0,1,.077-.08,1.124,1.124,0,0,1-.806-.348.663.663,0,0,1-.137-.531l.039,0a.685.685,0,0,1,.218.044l.006,0h.005a.64.64,0,0,0,.2.041.392.392,0,0,0,.142-.028,1.651,1.651,0,0,0,.424-.265l.009-.007.02-.015L23,7.089c.055-.042.112-.085.17-.123a.928.928,0,0,1,.23-.087.559.559,0,0,0,.31-.157.617.617,0,0,0,.068-.449v-.01a1.221,1.221,0,0,1-.005-.239ZM20.4,7.057a.526.526,0,0,0-.089.008.723.723,0,0,0-.567.453.534.534,0,0,0,.307.454c.2-.323.4-.614.734-.614a.647.647,0,0,1,.158.021.528.528,0,0,1-.229-.158A.409.409,0,0,0,20.4,7.057Zm1.631-3.563a.89.89,0,0,1,.748.458c.067.134.083.23.049.292-.051.092-.208.109-.391.128a.378.378,0,0,0-.025.3c.051.1.182.14.349.184.1.142.193.23.323.23a.6.6,0,0,0,.266-.083.634.634,0,0,0,.356-.43c.021-.129-.073-.169-.181-.215s-.209-.088-.244-.214c-.063-.2.192-.368.344-.465l.021-.014a.977.977,0,0,1,.515-.161.775.775,0,0,1,.272.049.508.508,0,0,1,.146.194c.058.109.113.211.235.211l.04,0a.432.432,0,0,0,.3-.276.971.971,0,0,0,.229-.081.236.236,0,0,0,.115-.163.319.319,0,0,0-.059-.252c-.209-.258-.374-.373-.537-.373a.578.578,0,0,0-.422.26.767.767,0,0,1-.132.011A1.2,1.2,0,0,1,23.3,2.437a.6.6,0,0,1,.119-.625c.09-.029.363-.118.377-.33a.292.292,0,0,0-.1-.2,1.538,1.538,0,0,0-.765-.412.86.86,0,0,1-.511.532c0,.2.017.213.112.27.028.017.063.038.105.069a.659.659,0,0,1,.133.827.81.81,0,0,1-.685.5.519.519,0,0,1-.061,0H22c-.195,0-.272-.19-.334-.343L21.661,2.7c-.08-.2-.128-.2-.319-.2H21.3a1.435,1.435,0,0,1-.277.33c-.159.157-.308.3-.289.452.011.086.08.164.211.238a.42.42,0,0,1,.161.232.369.369,0,0,0,.23.265.185.185,0,0,0,.055.009c.144,0,.235-.185.308-.333a1.368,1.368,0,0,1,.069-.131A.589.589,0,0,1,22.034,3.494Zm-.943,30.521h0a.3.3,0,0,1-.245-.092.768.768,0,0,1-.051-.571c.006-.035.014-.075.027-.129.037-.167.078-.357,0-.47a.253.253,0,0,0-.187-.1.405.405,0,0,1-.27-.164.84.84,0,0,1-.158-.573h.021a.215.215,0,0,1,.2.113l.012.019c.032.049.062.1.127.1a.41.41,0,0,0,.19-.071,3.027,3.027,0,0,0,.7-.648,2.219,2.219,0,0,0,.383-1.054,3.572,3.572,0,0,1,.178-.7c.1-.007.206-.019.326-.036a1.8,1.8,0,0,1-.17.919l-.014.037,0,0-.015.042a1.773,1.773,0,0,0-.077.514v.006a1.674,1.674,0,0,1-.062.448c-.037.125-.21.137-.262.138a.22.22,0,0,0-.2.1.9.9,0,0,1-.085.09l-.059.053c-.234.209-.389.347-.344.692a7.9,7.9,0,0,1,.047,1.331Zm1.589-2.7a.166.166,0,0,1-.036,0,2.272,2.272,0,0,0,0-.576v-.009a3.38,3.38,0,0,1-.019-.381c.005-.161.181-.569.317-.569.053,0,.093.063.119.186a2.262,2.262,0,0,1-.22,1.264A.205.205,0,0,1,22.68,31.311Zm-1.93,0h0a.87.87,0,0,0-.039-.136l0-.011.078-.024.022-.007.078-.024a1.592,1.592,0,0,1,.739-1.413c.161.214-.65,1.345-.871,1.615Zm4.624,0h0c-.061-.094-.12-.2-.181-.3a4.369,4.369,0,0,0-.29-.462,2.44,2.44,0,0,0-.169-.187l-.009-.01a.958.958,0,0,1-.344-.565h.033c.257,0,.54.31.719.6a1.2,1.2,0,0,1,.244.93Zm1.658-.787h0c-.153,0-.463-.441-.589-.631a1.326,1.326,0,0,1-.76-.526l0,0,0,0-.062-.068c.033-.029.058-.056.079-.078l0,0c.04-.042.064-.068.1-.068a.32.32,0,0,1,.155.077,2.112,2.112,0,0,1,.51.5.661.661,0,0,0,.168.151c.088.062.17.121.178.228a.261.261,0,0,0,.105.193.309.309,0,0,1,.12.23ZM18.227,29.9h0a.9.9,0,0,1,.668-.75c0,.333-.335.617-.667.751Zm9.932-.067a1.257,1.257,0,0,1-.773-.569.364.364,0,0,1-.069-.342c.395.106.623.483.824.817l.022.036.034.056A.228.228,0,0,1,28.159,29.837ZM17.944,26.625h0a1.323,1.323,0,0,1-.213-.017,2.505,2.505,0,0,0-.3-.076.891.891,0,0,1-.575-.3.646.646,0,0,1-.129-.832,1.5,1.5,0,0,1,1.223-.621.938.938,0,0,1,.1.005,1.66,1.66,0,0,1,1.08.574.5.5,0,0,1,.052.453A1.306,1.306,0,0,1,17.944,26.625Zm-.084-1.567a1.038,1.038,0,0,0-.309.048,1.216,1.216,0,0,0-.71.571c.059.393.449.592,1.16.592l.146,0c-.026-.139-.143-.158-.266-.158l-.1,0h-.011l-.087,0a.343.343,0,0,1-.226-.058c0-.116.133-.137.287-.162h0a.606.606,0,0,0,.4-.165.653.653,0,0,0-.142-.659A.94.94,0,0,0,17.86,25.058Zm.627.182h0c.024.027.046.049.066.068l.01.01c.09.09.127.127.09.321-.033.17-.1.2-.163.231s-.128.06-.11.276a.606.606,0,0,0,.435-.588.326.326,0,0,0-.328-.318Zm1.68,1.221a.5.5,0,0,1-.4-.173.384.384,0,0,1-.052-.347.413.413,0,0,1,.429-.3.436.436,0,0,1,.471.374.363.363,0,0,1-.076.3A.49.49,0,0,1,20.167,26.46Zm-.175-.577h0v.192a1.818,1.818,0,0,0,.317-.035c-.028-.156-.216-.156-.317-.156Zm8.7.081a.649.649,0,0,1-.33-.067.288.288,0,0,1-.137-.268l.071,0c.131.006.278.013.424.013a2.936,2.936,0,0,0,.4-.025.339.339,0,0,1,.273-.209.184.184,0,0,1,.177.128.329.329,0,0,1-.165.35c-.071,0-.159.016-.253.03H29.15A3.392,3.392,0,0,1,28.692,25.964Zm-8.644-.619h0a.645.645,0,0,1-.4-.332,1.751,1.751,0,0,0-.125-.167.289.289,0,0,1,.1-.016.672.672,0,0,1,.217.05.67.67,0,0,0,.217.051.284.284,0,0,0,.136-.034A.178.178,0,0,0,20,24.776c-.031,0-.063,0-.092.005H19.89c-.028,0-.056,0-.08,0H19.78c.012-.172.1-.271.248-.271a.5.5,0,0,1,.453.36.533.533,0,0,1-.432.47Zm-6.591-1.68a2.608,2.608,0,0,1-.642-.08c.132-.2.429-.206.717-.217a1.756,1.756,0,0,0,.5-.064,1.655,1.655,0,0,0,1.016-.938,1.317,1.317,0,0,1,.518.221,1.143,1.143,0,0,0,.579.222.642.642,0,0,0,.144-.017,1.347,1.347,0,0,0,.24.022,1.877,1.877,0,0,0,1.323-.67,2.857,2.857,0,0,0,.406-.574.51.51,0,0,1,.376.184,1.564,1.564,0,0,0,.16.145,1.852,1.852,0,0,0,.265.156c.07.036.142.073.209.116a2.019,2.019,0,0,0,.652.26l.007,0,.088.024a2.032,2.032,0,0,0,.533.068,2.284,2.284,0,0,0,2.115-1.284.092.092,0,0,1,.027,0c.21,0,.818.581.9.819a.4.4,0,0,0-.008.059.287.287,0,0,1-.058.006.506.506,0,0,1-.3-.145l-.034-.027a.354.354,0,0,0-.215-.1c-.1,0-.172.068-.269.153-.028.025-.057.051-.089.077a3.192,3.192,0,0,1-1.412.667,2.814,2.814,0,0,1-.54.053,2.536,2.536,0,0,1-1-.2l-.155-.063A3.864,3.864,0,0,1,19,22.3c-.1-.063-.211-.13-.321-.192a.342.342,0,0,0-.157-.055c-.066,0-.1.048-.156.114a1.222,1.222,0,0,1-.1.119,2.125,2.125,0,0,1-1.427.733c-.063,0-.134,0-.209.009-.1.006-.217.012-.332.012a.909.909,0,0,1-.767-.265.329.329,0,0,0-.084-.011c-.191,0-.35.175-.5.344a1.231,1.231,0,0,1-.332.293A2.657,2.657,0,0,1,13.457,23.666Zm14.527-1.288a1,1,0,0,1-.272-.053.994.994,0,0,0-.268-.053.348.348,0,0,0-.149.031.127.127,0,0,1,0-.108c.025-.04.086-.048.146-.056s.124-.017.143-.06-.007-.118-.081-.229c.05-.05.1-.1.147-.149a1.281,1.281,0,0,0,.145.139c.169.15.4.355.366.466-.012.038-.056.062-.131.071Zm-4.141-.012a.27.27,0,0,1-.2-.075.226.226,0,0,1-.057-.175l.017,0a.13.13,0,0,0-.01-.054l.042,0a.868.868,0,0,1,.524.151A.393.393,0,0,1,23.842,22.366Zm5.624-.323a1.769,1.769,0,0,1-.44-.066A1.747,1.747,0,0,1,27.8,21a3.774,3.774,0,0,1-.284-.692c-.052-.163-.1-.239-.154-.239s-.123.1-.2.22c-.039.061-.083.131-.132.195a3.808,3.808,0,0,1-.618.662,2.2,2.2,0,0,1-.452.288.389.389,0,0,1-.149.05c-.051,0-.069-.038-.1-.1a1.106,1.106,0,0,0-.059-.11,2.907,2.907,0,0,0,1.49-1.475.611.611,0,0,0-.059-.693,1.693,1.693,0,0,1-.163-.34.852.852,0,0,1,.316-.861.63.63,0,0,1,.435-.167,1.261,1.261,0,0,1,.9.494c.238.663.03.959-.5,1.335a.507.507,0,0,0-.2.367,1.861,1.861,0,0,0,.426,1.194,1.7,1.7,0,0,0,1.276.616,1.461,1.461,0,0,0,.323-.036.3.3,0,0,1-.075.224A.483.483,0,0,1,29.466,22.043Zm-1.806-4.01a.219.219,0,0,0-.122.038c-.272.037-.48.408-.51.658.046.041.09.086.137.134a.813.813,0,0,0,.539.326.473.473,0,0,0,.131-.019.441.441,0,0,0-.319-.157l.012-.035c.037-.113.063-.193.193-.222a.143.143,0,0,0,.1-.064c.058-.093.014-.262-.015-.375l0-.017a.181.181,0,0,0,.148.074.14.14,0,0,0,.143-.085c.005-.025,0-.074-.1-.118a1.046,1.046,0,0,1-.107-.055A.47.47,0,0,0,27.66,18.033ZM13.423,20.769a.092.092,0,0,1-.081-.041c-.07-.1.006-.39.052-.5a.628.628,0,0,0-.146-.6.879.879,0,0,1-.2-.531c.226,0,.353.22.477.434.033.057.064.11.1.16a.63.63,0,0,1,.039.669c-.025.07-.051.142-.073.225s-.046.175-.14.188Zm1.538-.232-.116,0h-.062a.883.883,0,0,1-.627-.343.788.788,0,0,1-.193-.627.6.6,0,0,1,.165-.471.749.749,0,0,1,.514-.305h.008a.972.972,0,0,1,.88.847.663.663,0,0,1-.135.481c-.02.033-.04.067-.06.1l-.049.09C15.177,20.512,15.163,20.538,14.962,20.538Zm-.274-1.47a.47.47,0,0,0-.168.051.647.647,0,0,0-.308.765l.042.006a1.073,1.073,0,0,0,.144.015.287.287,0,0,0,.225-.115.376.376,0,0,1,.273-.128.356.356,0,0,1,.092.012c0-.062,0-.127,0-.184q0-.044,0-.087a.224.224,0,0,1-.183-.059.158.158,0,0,1-.016-.141.182.182,0,0,0-.022-.1A.077.077,0,0,0,14.688,19.067ZM16.2,20.4h0a.944.944,0,0,1-.474-.858.757.757,0,0,1,.39-.731c.1.119.031.307-.041.49a.97.97,0,0,0-.08.272.759.759,0,0,0,.112.374.6.6,0,0,1,.093.453Zm8.333-.454h0A1.189,1.189,0,0,1,24.095,19a.8.8,0,0,1,.311-.612,1.612,1.612,0,0,0,.234-.288c.1.006.16.038.183.095.074.188-.3.59-.343.635-.173.188-.079.387.011.58s.171.365.039.54Zm5.543-.07h0a.488.488,0,0,1,.149-.4.547.547,0,0,0,.149-.294,1.024,1.024,0,0,0-.093-.505,1.349,1.349,0,0,1-.1-.406l.038,0c.281,0,.433.4.433.776a1.126,1.126,0,0,1-.137.568A.492.492,0,0,1,30.074,19.878ZM20.9,19.84a.054.054,0,0,1-.042-.014c-.019-.02-.024-.066-.019-.174a.8.8,0,0,1,.186-.5.75.75,0,0,0-.073-.623.8.8,0,0,1-.086-.6,1.482,1.482,0,0,1,.44,1.281.674.674,0,0,1-.122.259.548.548,0,0,0-.119.36h-.01a.8.8,0,0,0-.1.008A.458.458,0,0,1,20.9,19.84Zm2.032-2.346a1.4,1.4,0,0,1-.8-.295,2.875,2.875,0,0,0-.438-.244.176.176,0,0,1,.034-.133.119.119,0,0,1,.09-.033,1.713,1.713,0,0,1,.644.313,1.421,1.421,0,0,0,.171.1.521.521,0,0,0,.187.039.682.682,0,0,0,.321-.109l.075-.039a2.356,2.356,0,0,0,.223-.129.685.685,0,0,1,.425-.144A1.277,1.277,0,0,1,24,16.83c.024.357-.716.642-.977.661ZM11.619,16.185h0a1.2,1.2,0,0,0-.148-.3.99.99,0,0,1-.157-.351c.062-.045.121-.093.175-.143a1.05,1.05,0,0,0,.166.312c.122.175.211.3-.035.483Zm10.488-.819a.229.229,0,0,1-.095-.024.579.579,0,0,1,.109-.5.917.917,0,0,1,.705-.293.888.888,0,0,1,.549.172.567.567,0,0,1,.212.37.234.234,0,0,1-.035.185.113.113,0,0,1-.087.038.248.248,0,0,1-.22-.241,1.509,1.509,0,0,0-.5-.122.516.516,0,0,0-.32.1.542.542,0,0,0-.114.144C22.253,15.283,22.2,15.366,22.108,15.366Zm1.572-1.1h0c-.173-.01-.247-.142-.324-.282s-.158-.285-.346-.3l-.058,0a.726.726,0,0,0-.5.183.966.966,0,0,0-.125.148c-.036.05-.055.078-.1.078a.655.655,0,0,1-.192-.051.8.8,0,0,1,.836-.768.935.935,0,0,1,.772.372.636.636,0,0,1,.04.622Zm-1.313-1.263h0a.357.357,0,0,1,.021-.295.535.535,0,0,1,.35-.235,3.478,3.478,0,0,0-.212-.4c.089-.129.227-.282.382-.282a.261.261,0,0,1,.149.05c.146.1.214.182.2.236s-.091.07-.222.07h-.082c-.114,0-.181.03-.189.084-.011.073.089.171.208.207l.064.018c.313.088.443.125.443.477a1.382,1.382,0,0,0-.538-.12.905.905,0,0,0-.568.191Zm-6.938-.19c-.185,0-.373-.016-.554-.031s-.368-.031-.554-.031a2.309,2.309,0,0,0-.482.046v-.042c0-.061,0-.124-.008-.189a.978.978,0,0,0,.377.067,3.037,3.037,0,0,0,.479-.052,3.087,3.087,0,0,1,.473-.051.793.793,0,0,1,.63.26A2.526,2.526,0,0,1,15.429,12.817Zm15.419-3.13h0c0-.049.006-.1.008-.149,0-.032,0-.064,0-.1l.074.009c.157.018.353.041.353.217-.152.012-.3.018-.439.019Z" transform="translate(0)"/>
    </g>
    <path id="Path_456" data-name="Path 456" d="M402.323,288.809c0,.047-.017.066-.053.066s-.044,0-.056-.013a3.437,3.437,0,0,0-1.266-.89,4,4,0,0,0-1.533-.305,3.368,3.368,0,0,0-1.214.214,3.026,3.026,0,0,0-.993.594,2.714,2.714,0,0,0-.67.93,2.926,2.926,0,0,0-.242,1.2,2.62,2.62,0,0,0,.256,1.171,2.771,2.771,0,0,0,.684.885,3.056,3.056,0,0,0,.984.563,3.443,3.443,0,0,0,1.166.2,3.787,3.787,0,0,0,1.561-.329,3.52,3.52,0,0,0,1.266-.951c.065,0,.1.034.1.105v2.19a4.833,4.833,0,0,1-1.42.6,6.422,6.422,0,0,1-1.547.188,5.262,5.262,0,0,1-1.9-.344,5,5,0,0,1-1.589-.968,4.672,4.672,0,0,1-1.083-1.473,4.436,4.436,0,0,1-.4-1.888,4.448,4.448,0,0,1,1.489-3.4,5.055,5.055,0,0,1,1.594-.953,5.466,5.466,0,0,1,1.923-.336c.213,0,.456.014.733.042a5.949,5.949,0,0,1,.819.134,4.944,4.944,0,0,1,.779.252,1.907,1.907,0,0,1,.606.373Z" transform="translate(-13.495 -25.119)"/>
    <path id="Path_457" data-name="Path 457" d="M423.6,293.718c.027.019.042.033.042.042a.069.069,0,0,1-.024.053l-1.1,1.27-.042.043a.078.078,0,0,1-.04-.028l-.812-.7a4.712,4.712,0,0,1-4.505.457,4.726,4.726,0,0,1-1.507-1.014,4.822,4.822,0,0,1-1.015-1.509,4.7,4.7,0,0,1-.369-1.853,4.645,4.645,0,0,1,.369-1.842,4.8,4.8,0,0,1,1.015-1.5,4.686,4.686,0,0,1,1.507-1.013,4.725,4.725,0,0,1,3.683,0,4.728,4.728,0,0,1,2.513,2.514,4.775,4.775,0,0,1,.165,3.239,4.714,4.714,0,0,1-.581,1.224Zm-4.091-1.143a.087.087,0,0,1-.027-.055.26.26,0,0,1,.027-.073l1.106-1.252a.081.081,0,0,1,.056-.027c.008,0,.018,0,.02.009a.049.049,0,0,0,.021,0l.749.664a3.68,3.68,0,0,0,.263-.655,2.579,2.579,0,0,0,.1-.726,2.758,2.758,0,0,0-.231-1.111,2.984,2.984,0,0,0-.618-.912,3.028,3.028,0,0,0-.91-.618,2.723,2.723,0,0,0-1.111-.226,2.774,2.774,0,0,0-1.119.226,2.919,2.919,0,0,0-.91.618,3.054,3.054,0,0,0-.615.912,2.743,2.743,0,0,0-.226,1.111,2.773,2.773,0,0,0,.226,1.118,3.036,3.036,0,0,0,.612.918,2.837,2.837,0,0,0,.91.62,2.817,2.817,0,0,0,2.284-.033Z" transform="translate(-18.625 -25.089)"/>
    <path id="Path_458" data-name="Path 458" d="M444.028,291.478a3.483,3.483,0,0,1-.224,1.137,4.254,4.254,0,0,1-1.39,1.9,3.7,3.7,0,0,1-1.033.566,4.428,4.428,0,0,1-1.409.235,4.307,4.307,0,0,1-1.349-.216,3.685,3.685,0,0,1-1.193-.652,5.371,5.371,0,0,1-1.09-1.222,2.719,2.719,0,0,1-.458-1.511v-5.6c0-.047.024-.07.056-.07h1.7c.045,0,.069.032.069.084v5.585a1.539,1.539,0,0,0,.174.575,2.411,2.411,0,0,0,.361.521,2.653,2.653,0,0,0,.488.423,1.957,1.957,0,0,0,.552.245c.121.028.231.05.345.073a2.632,2.632,0,0,0,.347.024,2.316,2.316,0,0,0,1.627-.664,2.1,2.1,0,0,0,.538-.863,3.265,3.265,0,0,0,.151-1v-.084c0-.359,0-.79,0-1.289s-.01-1-.01-1.483v-2.082c0-.047.019-.07.056-.07h1.625a.075.075,0,0,1,.084.084c0,.09,0,.253,0,.482s-.007.5-.007.8v4.07Z" transform="translate(-24.226 -25.166)"/>
    <g id="Group_18" data-name="Group 18" transform="translate(365.569 260.877)">
      <path id="Path_459" data-name="Path 459" d="M402.823,328.567a4.661,4.661,0,0,1-.374,1.851,4.712,4.712,0,0,1-2.516,2.528,4.723,4.723,0,0,1-3.689,0,4.719,4.719,0,0,1-2.528-2.528,4.686,4.686,0,0,1-.371-1.851,4.6,4.6,0,0,1,.371-1.842,4.8,4.8,0,0,1,1.017-1.506,4.736,4.736,0,0,1,1.511-1.018,4.775,4.775,0,0,1,3.689,0,4.764,4.764,0,0,1,2.516,2.524A4.578,4.578,0,0,1,402.823,328.567Zm-1.867-.013a2.68,2.68,0,0,0-.231-1.112,2.916,2.916,0,0,0-1.532-1.532,2.726,2.726,0,0,0-1.111-.231,2.775,2.775,0,0,0-1.12.231,2.863,2.863,0,0,0-.912.618,3.015,3.015,0,0,0-.613.913,2.678,2.678,0,0,0-.228,1.112,2.725,2.725,0,0,0,.228,1.118,3.014,3.014,0,0,0,.613.921,2.975,2.975,0,0,0,.912.623,2.8,2.8,0,0,0,1.12.226,2.747,2.747,0,0,0,1.111-.226,3.093,3.093,0,0,0,.913-.623,2.976,2.976,0,0,0,.618-.921A2.727,2.727,0,0,0,400.956,328.554Z" transform="translate(-378.796 -295.813)"/>
      <path id="Path_460" data-name="Path 460" d="M418.591,333.113a.062.062,0,0,1-.071.07h-1.669c-.056,0-.085-.017-.085-.055v-8.994c0-.044.033-.068.1-.068q.636,0,1.2-.008c.372,0,.733-.006,1.083-.006a5.18,5.18,0,0,1,.879.07,2.533,2.533,0,0,1,.684.219,2.6,2.6,0,0,1,.56.387,3.738,3.738,0,0,1,.491.567,2.721,2.721,0,0,1,.51,1.6c0,.036,0,.073-.006.11a.677.677,0,0,0-.011.11,2.494,2.494,0,0,1-.355,1.078,1.77,1.77,0,0,1-.911.733c.259.346.521.692.792,1.028s.544.672.811,1.009.53.679.784,1.024.5.7.735,1.068a.1.1,0,0,1-.036.083.232.232,0,0,1-.062.042h-2.06q-.7-.939-1.394-1.837t-1.353-1.809h-.569c-.024,0-.038.018-.038.055Zm0-5.4c.072,0,.148,0,.227.009s.153,0,.227,0a2.91,2.91,0,0,0,.6-.059.921.921,0,0,0,.5-.3.562.562,0,0,0,.151-.262,1.168,1.168,0,0,0,.042-.3.854.854,0,0,0-.054-.348.839.839,0,0,0-.561-.51,2.134,2.134,0,0,0-.4-.069c-.141-.009-.283-.012-.421-.012h-.316Z" transform="translate(-384.852 -295.87)"/>
      <path id="Path_461" data-name="Path 461" d="M443.688,325.895h-2.64c0,1.209,0,2.408.009,3.6s.005,2.4.005,3.618c0,.048-.026.07-.079.07h-1.662c-.056,0-.083-.017-.083-.055v-3.592q0-1.755.014-3.646h-2.668c-.055,0-.082-.02-.082-.056v-1.7c0-.044.027-.068.082-.068H443.7c.044,0,.069.018.069.056v1.7C443.772,325.87,443.744,325.895,443.688,325.895Z" transform="translate(-389.956 -295.875)"/>
      <path id="Path_462" data-name="Path 462" d="M457.6,324.051h5.98c.045.011.069.032.069.07v1.7c0,.055-.024.084-.069.084h-4.326v1.726h3.206a.063.063,0,0,1,.073.068v1.687a.063.063,0,0,1-.073.068H459.34v1.907h4.434c.04,0,.056.019.056.068v1.685a.061.061,0,0,1-.067.07H457.6c-.057,0-.085-.017-.085-.055v-8.994A.074.074,0,0,1,457.6,324.051Z" transform="translate(-395.389 -295.87)"/>
      <g id="Group_17" data-name="Group 17" transform="translate(0 0)">
        <path id="Path_463" data-name="Path 463" d="M382.509,295.047a.038.038,0,0,0,.009.027.05.05,0,0,1,.005.02c0,.036-.036.056-.11.056h-1.821l-.718-1.821h-3.42l-.7,1.821h-2.016c-.011,0-.013-.012-.013-.028a.054.054,0,0,1,.013-.043l3.394-8.979a.026.026,0,0,1,.013-.024.083.083,0,0,1,.069-.032h1.806c.009,0,.027.023.054.07l3.436,8.924Zm-4.344-6.563-1.144,3.021H379.2Z" transform="translate(-373.723 -286.043)"/>
        <path id="Path_464" data-name="Path 464" d="M375.65,324.133a.073.073,0,0,1,.082-.082h5.792c.045.011.067.032.067.07v1.7c0,.055-.022.084-.067.084h-4.05v1.808h2.915a.062.062,0,0,1,.071.07v1.685a.062.062,0,0,1-.071.07h-2.915v3.577a.078.078,0,0,1-.013.044c-.021.017-.031.026-.042.026h-1.7c-.044,0-.07-.017-.07-.055Z" transform="translate(-374.221 -295.87)"/>
        <path id="Path_465" data-name="Path 465" d="M382.248,307.815c0,.049-.021.072-.056.072s-.047,0-.056-.014a3.439,3.439,0,0,0-1.269-.893,3.979,3.979,0,0,0-1.533-.308,3.379,3.379,0,0,0-1.217.214,3.081,3.081,0,0,0-.995.6,2.7,2.7,0,0,0-.67.93,2.908,2.908,0,0,0-.24,1.2,2.581,2.581,0,0,0,.255,1.168,2.7,2.7,0,0,0,.684.889,3.1,3.1,0,0,0,.987.565,3.538,3.538,0,0,0,1.169.2,3.831,3.831,0,0,0,1.561-.33,3.594,3.594,0,0,0,1.269-.954c.064,0,.1.036.1.11v2.189a4.887,4.887,0,0,1-1.424.607,6.486,6.486,0,0,1-1.548.188,5.391,5.391,0,0,1-1.9-.345,4.967,4.967,0,0,1-1.586-.969,4.675,4.675,0,0,1-1.088-1.477,4.439,4.439,0,0,1-.4-1.893,4.449,4.449,0,0,1,1.492-3.408,5.137,5.137,0,0,1,1.594-.953,5.489,5.489,0,0,1,1.928-.339c.21,0,.453.018.73.044a6.362,6.362,0,0,1,.822.139,5.488,5.488,0,0,1,.781.248,1.929,1.929,0,0,1,.609.372Z" transform="translate(-373.87 -290.908)"/>
      </g>
    </g>
    <path id="Path_466" data-name="Path 466" d="M402.6,314.071a.04.04,0,0,0,0,.02.019.019,0,0,1,.009.019c0,.04-.037.058-.111.058h-1.823l-.718-1.826H396.53l-.7,1.826h-2.02c-.007,0-.013-.01-.013-.027a.094.094,0,0,1,.013-.046l3.4-8.99a.044.044,0,0,1,.014-.029.1.1,0,0,1,.071-.027h1.81c.009,0,.029.023.053.067l3.443,8.942Zm-4.352-6.577-1.147,3.028h2.181Z" transform="translate(-13.344 -30.081)"/>
    <path id="Path_467" data-name="Path 467" d="M418.591,314.091c0,.049-.023.073-.071.073h-1.669c-.056,0-.085-.018-.085-.058v-8.994c0-.044.033-.067.1-.067.421,0,.822,0,1.2-.007s.733-.006,1.083-.006a4.933,4.933,0,0,1,.879.07,2.464,2.464,0,0,1,.684.219,2.491,2.491,0,0,1,.557.386,3.516,3.516,0,0,1,.494.569,2.682,2.682,0,0,1,.51,1.6.766.766,0,0,1-.008.109,1.1,1.1,0,0,0-.006.11,2.482,2.482,0,0,1-.358,1.079,1.8,1.8,0,0,1-.914.731c.257.348.523.692.795,1.03s.542.672.807,1.008.529.678.788,1.022.5.7.732,1.072a.091.091,0,0,1-.033.081.291.291,0,0,1-.062.044h-2.057q-.706-.939-1.4-1.841t-1.353-1.805h-.566c-.031,0-.042.014-.042.055Zm0-5.4c.072,0,.148,0,.227.007s.153.007.23.007a2.865,2.865,0,0,0,.6-.062.917.917,0,0,0,.5-.3.573.573,0,0,0,.151-.263,1.155,1.155,0,0,0,.042-.3.939.939,0,0,0-.056-.349.873.873,0,0,0-.227-.329.923.923,0,0,0-.331-.179,2.156,2.156,0,0,0-.4-.071c-.145-.007-.283-.01-.423-.01h-.316Z" transform="translate(-19.284 -30.076)"/>
    <path id="Path_468" data-name="Path 468" d="M443.063,314.168h-5.144a.05.05,0,0,1-.039,0c-.028,0-.043-.018-.043-.058v-8.994c0-.044.03-.067.082-.067h1.676a.062.062,0,0,1,.07.067v7.226h3.4c.044,0,.065.021.065.07v1.673C443.128,314.141,443.107,314.168,443.063,314.168Z" transform="translate(-24.732 -30.081)"/>
    <path id="Path_469" data-name="Path 469" d="M464.861,309.547a4.692,4.692,0,0,1-.373,1.849,4.735,4.735,0,0,1-2.517,2.528,4.724,4.724,0,0,1-3.69,0,4.759,4.759,0,0,1-1.51-1.015,4.838,4.838,0,0,1-1.017-1.513,4.705,4.705,0,0,1-.372-1.849,4.629,4.629,0,0,1,.372-1.843,4.838,4.838,0,0,1,1.017-1.506,4.725,4.725,0,0,1,1.51-1.017,4.722,4.722,0,0,1,5.193,1.017,4.745,4.745,0,0,1,1.014,1.506A4.616,4.616,0,0,1,464.861,309.547ZM463,309.533a2.742,2.742,0,0,0-.23-1.114,2.994,2.994,0,0,0-.623-.911,2.945,2.945,0,0,0-.912-.621,2.743,2.743,0,0,0-1.111-.228,2.787,2.787,0,0,0-1.118.228,2.82,2.82,0,0,0-.912.621,3.085,3.085,0,0,0-.617.911,2.752,2.752,0,0,0-.227,1.114,2.792,2.792,0,0,0,.227,1.119,3.064,3.064,0,0,0,.617.919,2.9,2.9,0,0,0,.912.624,2.81,2.81,0,0,0,1.118.225,2.766,2.766,0,0,0,1.111-.225,3.031,3.031,0,0,0,.912-.624,2.974,2.974,0,0,0,.623-.919A2.782,2.782,0,0,0,463,309.533Z" transform="translate(-29.268 -30.018)"/>
    <path id="Path_470" data-name="Path 470" d="M464.63,295.047a.047.047,0,0,0,0,.027c.006,0,.006.01.006.02,0,.036-.034.056-.11.056h-1.821l-.717-1.821H458.57l-.7,1.821h-2.016c-.009,0-.014-.012-.014-.028a.064.064,0,0,1,.014-.043l3.394-8.979a.029.029,0,0,1,.014-.024.085.085,0,0,1,.07-.032h1.809c.005,0,.023.023.052.07l3.438,8.924Zm-4.347-6.563-1.146,3.021h2.179Z" transform="translate(-29.387 -25.166)"/>
    <g id="Group_19" data-name="Group 19" transform="translate(398.695 317.95)">
      <path id="Path_471" data-name="Path 471" d="M420.291,363.02a1.888,1.888,0,1,0,1.886,1.888A1.889,1.889,0,0,0,420.291,363.02Zm0,3.425a1.537,1.537,0,1,1,1.536-1.537A1.538,1.538,0,0,1,420.291,366.445Z" transform="translate(-418.401 -363.02)"/>
      <path id="Path_472" data-name="Path 472" d="M421.358,364.291a.848.848,0,0,1,.441.8,1.16,1.16,0,0,1-.442,1.124c-.528.478-1.977.307-1.848-.621.231-.019.376.149.614.058a3.624,3.624,0,0,0,.634-.419c.16-.1.425-.093.538-.245.148-.195.033-.477.063-.7" transform="translate(-418.685 -363.349)"/>
    </g>
  </g>
</svg>
