<svg xmlns="http://www.w3.org/2000/svg" width="209.516" height="12.802" viewBox="0 0 209.516 12.802">
  <g id="Group_56" data-name="Group 56" transform="translate(-9038 149)">
    <path id="Path_644" data-name="Path 644" d="M302.211,307.348c0,.063-.023.089-.072.089s-.06,0-.075-.018a4.649,4.649,0,0,0-1.708-1.2,5.417,5.417,0,0,0-2.068-.411,4.563,4.563,0,0,0-1.637.287,4.085,4.085,0,0,0-1.339.8,3.648,3.648,0,0,0-.9,1.255,3.943,3.943,0,0,0-.326,1.613,3.549,3.549,0,0,0,.344,1.579,3.754,3.754,0,0,0,.924,1.193,4.11,4.11,0,0,0,1.327.759,4.644,4.644,0,0,0,1.572.267,5.107,5.107,0,0,0,2.106-.444,4.747,4.747,0,0,0,1.708-1.282c.087,0,.132.046.132.142v2.954a6.521,6.521,0,0,1-1.915.816,8.665,8.665,0,0,1-2.087.253,7.125,7.125,0,0,1-2.558-.464,6.746,6.746,0,0,1-2.142-1.305,6.308,6.308,0,0,1-1.46-1.987,5.968,5.968,0,0,1-.536-2.547,6,6,0,0,1,2.008-4.591,6.788,6.788,0,0,1,2.15-1.285,7.367,7.367,0,0,1,2.594-.453,9.86,9.86,0,0,1,.989.056,7.989,7.989,0,0,1,1.1.181,6.656,6.656,0,0,1,1.051.34,2.572,2.572,0,0,1,.817.5Z" transform="translate(8761.502 -452.368)"/>
    <path id="Path_645" data-name="Path 645" d="M323.983,313.97c.037.026.057.044.057.057a.091.091,0,0,1-.033.071l-1.49,1.714-.056.058a.1.1,0,0,1-.054-.038l-1.1-.95a6.356,6.356,0,0,1-6.076.616,6.374,6.374,0,0,1-2.033-1.368,6.5,6.5,0,0,1-1.369-2.035,6.334,6.334,0,0,1-.5-2.5,6.261,6.261,0,0,1,.5-2.484,6.471,6.471,0,0,1,1.369-2.025,6.3,6.3,0,0,1,2.033-1.366,6.373,6.373,0,0,1,4.968,0,6.432,6.432,0,0,1,2.027,1.366,6.5,6.5,0,0,1,1.362,2.025,6.433,6.433,0,0,1,.224,4.368,6.391,6.391,0,0,1-.783,1.651Zm-5.517-1.541a.117.117,0,0,1-.036-.074.349.349,0,0,1,.036-.1l1.492-1.689a.107.107,0,0,1,.075-.037c.011,0,.024,0,.027.012a.066.066,0,0,0,.029,0l1.01.9a4.942,4.942,0,0,0,.355-.885,3.466,3.466,0,0,0,.134-.978,3.722,3.722,0,0,0-.312-1.5,4.024,4.024,0,0,0-.834-1.23,4.066,4.066,0,0,0-1.228-.833,3.672,3.672,0,0,0-1.5-.3,3.741,3.741,0,0,0-1.509.3,3.919,3.919,0,0,0-1.227.833,4.118,4.118,0,0,0-.829,1.23,3.7,3.7,0,0,0-.3,1.5,3.74,3.74,0,0,0,.3,1.508,4.107,4.107,0,0,0,.825,1.238,3.826,3.826,0,0,0,1.228.836,3.8,3.8,0,0,0,3.08-.045Z" transform="translate(8755.663 -452.217)"/>
    <path id="Path_646" data-name="Path 646" d="M343.987,310.826a4.7,4.7,0,0,1-.3,1.533,5.542,5.542,0,0,1-.753,1.406,5.6,5.6,0,0,1-1.122,1.154,4.956,4.956,0,0,1-1.393.763,5.973,5.973,0,0,1-1.9.318,5.839,5.839,0,0,1-1.819-.291,4.994,4.994,0,0,1-1.609-.881,7.247,7.247,0,0,1-1.47-1.648,3.666,3.666,0,0,1-.618-2.038v-7.551c0-.064.032-.1.075-.1h2.292c.061,0,.093.043.093.113v7.533a2.085,2.085,0,0,0,.234.777,3.245,3.245,0,0,0,.487.7,3.507,3.507,0,0,0,.658.571,2.611,2.611,0,0,0,.744.331c.163.038.312.069.465.1a3.545,3.545,0,0,0,.468.033,3.119,3.119,0,0,0,1.157-.22,3.157,3.157,0,0,0,1.037-.674,2.852,2.852,0,0,0,.725-1.165,4.4,4.4,0,0,0,.2-1.344v-.114c0-.484-.005-1.066-.007-1.739s-.012-1.342-.012-2v-2.807c0-.064.026-.1.076-.1h2.192a.1.1,0,0,1,.113.113c0,.122,0,.341-.006.651s-.009.669-.009,1.077v5.489Z" transform="translate(8750.999 -452.496)"/>
    <path id="Path_647" data-name="Path 647" d="M517.318,309.589a6.294,6.294,0,0,1-.505,2.5,6.358,6.358,0,0,1-3.393,3.409,6.37,6.37,0,0,1-4.976,0,6.367,6.367,0,0,1-3.41-3.409,6.326,6.326,0,0,1-.5-2.5,6.214,6.214,0,0,1,.5-2.486,6.466,6.466,0,0,1,1.372-2.031,6.369,6.369,0,0,1,2.038-1.372,6.428,6.428,0,0,1,4.976,0,6.418,6.418,0,0,1,3.393,3.4A6.183,6.183,0,0,1,517.318,309.589Zm-2.518-.018a3.623,3.623,0,0,0-.311-1.5A3.932,3.932,0,0,0,512.423,306a3.676,3.676,0,0,0-1.5-.31,3.751,3.751,0,0,0-1.511.31,3.869,3.869,0,0,0-1.229.834,4.079,4.079,0,0,0-.827,1.232,3.62,3.62,0,0,0-.307,1.5,3.679,3.679,0,0,0,.307,1.508,4.072,4.072,0,0,0,.827,1.241,4,4,0,0,0,1.229.84,3.782,3.782,0,0,0,1.511.306,3.706,3.706,0,0,0,1.5-.306,4.153,4.153,0,0,0,1.232-.84,4.021,4.021,0,0,0,.834-1.241A3.682,3.682,0,0,0,514.8,309.571Z" transform="translate(8694.467 -452.199)"/>
    <path id="Path_648" data-name="Path 648" d="M530.415,315.907a.084.084,0,0,1-.095.093h-2.251c-.076,0-.115-.024-.115-.074V303.8c0-.061.045-.092.131-.092q.858,0,1.613-.012c.5,0,.989-.007,1.461-.007a6.983,6.983,0,0,1,1.185.094,3.415,3.415,0,0,1,.922.3,3.6,3.6,0,0,1,.755.521,5.109,5.109,0,0,1,.662.766,3.669,3.669,0,0,1,.687,2.163c0,.049,0,.1-.007.148a.918.918,0,0,0-.015.149,3.361,3.361,0,0,1-.479,1.453,2.387,2.387,0,0,1-1.229.988c.349.467.7.933,1.068,1.386s.734.907,1.094,1.362.715.916,1.058,1.38.677.948.991,1.443a.132.132,0,0,1-.049.111.341.341,0,0,1-.084.056H534.94q-.948-1.266-1.88-2.479t-1.825-2.439h-.768c-.033,0-.052.023-.052.075Zm0-7.285c.1,0,.2,0,.307.011s.206.006.306.006a3.793,3.793,0,0,0,.812-.081,1.239,1.239,0,0,0,.681-.4.766.766,0,0,0,.2-.354,1.575,1.575,0,0,0,.056-.411,1.141,1.141,0,0,0-.073-.467,1.193,1.193,0,0,0-.308-.447,1.208,1.208,0,0,0-.449-.242,2.959,2.959,0,0,0-.541-.094c-.19-.011-.382-.015-.568-.015h-.427Z" transform="translate(8687.046 -452.684)"/>
    <path id="Path_649" data-name="Path 649" d="M557.382,306.164h-3.56c0,1.631.006,3.248.012,4.861s.007,3.243.007,4.882c0,.063-.035.093-.106.093h-2.241c-.076,0-.112-.024-.112-.074v-4.844q0-2.365.019-4.918h-3.6c-.074,0-.11-.027-.11-.075V303.8c0-.061.036-.092.11-.092h9.6c.06,0,.093.023.093.075v2.291C557.495,306.131,557.457,306.164,557.382,306.164Z" transform="translate(8678.307 -452.703)"/>
    <path id="Path_650" data-name="Path 650" d="M568.819,303.684h8.066c.061.015.093.042.093.094v2.291c0,.073-.032.112-.093.112h-5.834v2.33h4.324c.062,0,.1.031.1.091v2.275a.086.086,0,0,1-.1.092h-4.211v2.572h5.981c.054,0,.075.026.075.093v2.273a.082.082,0,0,1-.09.093h-8.311c-.077,0-.115-.024-.115-.074V303.8A.1.1,0,0,1,568.819,303.684Z" transform="translate(8670.296 -452.684)"/>
    <path id="Path_651" data-name="Path 651" d="M282.691,315.862a.051.051,0,0,0,.012.036.069.069,0,0,1,.007.027c0,.048-.049.075-.149.075h-2.456l-.968-2.456h-4.612L273.578,316h-2.719c-.016,0-.018-.016-.018-.038a.069.069,0,0,1,.018-.058l4.578-12.11a.036.036,0,0,1,.018-.033.111.111,0,0,1,.093-.043h2.436c.012,0,.037.031.073.094l4.634,12.036Zm-5.859-8.852-1.543,4.075h2.937Z" transform="translate(8767.159 -452.718)"/>
    <path id="Path_652" data-name="Path 652" d="M486.839,303.8a.1.1,0,0,1,.111-.111h7.812c.061.015.09.042.09.094v2.291c0,.073-.029.112-.09.112H489.3v2.441h3.931a.084.084,0,0,1,.1.094v2.272c0,.064-.031.094-.1.094H489.3v4.825a.112.112,0,0,1-.018.059c-.029.022-.042.034-.057.034h-2.292c-.059,0-.094-.024-.094-.074Z" transform="translate(8701.161 -452.684)"/>
    <path id="Path_653" data-name="Path 653" d="M397.018,307.33c0,.066-.029.1-.076.1s-.065,0-.077-.019a4.63,4.63,0,0,0-1.712-1.2,5.362,5.362,0,0,0-2.067-.416,4.6,4.6,0,0,0-1.642.288,4.137,4.137,0,0,0-1.341.806,3.606,3.606,0,0,0-.9,1.254,3.928,3.928,0,0,0-.324,1.621,3.477,3.477,0,0,0,.344,1.574,3.636,3.636,0,0,0,.923,1.2,4.169,4.169,0,0,0,1.331.761,4.742,4.742,0,0,0,1.575.268,5.148,5.148,0,0,0,2.105-.446,4.835,4.835,0,0,0,1.712-1.286c.086,0,.134.049.134.148v2.953a6.579,6.579,0,0,1-1.921.818,8.743,8.743,0,0,1-2.088.255,7.227,7.227,0,0,1-2.563-.466,6.682,6.682,0,0,1-2.139-1.307,6.3,6.3,0,0,1-1.468-1.992,5.984,5.984,0,0,1-.535-2.553,6,6,0,0,1,2.012-4.6,6.871,6.871,0,0,1,2.15-1.285,7.381,7.381,0,0,1,2.6-.458c.283,0,.611.024.985.059a8.3,8.3,0,0,1,1.11.188,7.428,7.428,0,0,1,1.053.333,2.608,2.608,0,0,1,.822.5Z" transform="translate(8731.715 -452.343)"/>
    <path id="Path_654" data-name="Path 654" d="M417.658,315.87a.049.049,0,0,0,0,.026.026.026,0,0,1,.012.026c0,.054-.05.078-.149.078h-2.459l-.969-2.463h-4.618L408.53,316h-2.723c-.01,0-.018-.013-.018-.035a.116.116,0,0,1,.018-.062l4.582-12.126a.058.058,0,0,1,.018-.038.138.138,0,0,1,.1-.037h2.441c.012,0,.04.031.072.089l4.642,12.06ZM411.789,307l-1.547,4.083h2.942Z" transform="translate(8726.211 -452.702)"/>
    <path id="Path_655" data-name="Path 655" d="M431.221,315.9a.084.084,0,0,1-.1.1h-2.251c-.076,0-.114-.024-.114-.078V303.791c0-.058.045-.089.131-.089.567,0,1.108-.005,1.612-.011s.989-.008,1.461-.008a6.863,6.863,0,0,1,1.186.094,3.2,3.2,0,0,1,1.672.816,4.828,4.828,0,0,1,.666.768,3.62,3.62,0,0,1,.688,2.162,1.054,1.054,0,0,1-.011.148,1.451,1.451,0,0,0-.008.148,3.331,3.331,0,0,1-.483,1.454,2.414,2.414,0,0,1-1.232.987c.346.469.706.933,1.072,1.388s.73.906,1.089,1.361.714.914,1.062,1.377.677.951.987,1.447a.122.122,0,0,1-.044.108.409.409,0,0,1-.084.059h-2.776c-.635-.844-1.262-1.669-1.883-2.483s-1.226-1.616-1.825-2.435h-.763c-.042,0-.056.02-.056.075Zm0-7.283c.1,0,.2,0,.306.01s.207.008.31.008a3.871,3.871,0,0,0,.809-.084,1.236,1.236,0,0,0,.68-.4.783.783,0,0,0,.2-.354,1.572,1.572,0,0,0,.056-.411,1.237,1.237,0,0,0-.075-.469,1.166,1.166,0,0,0-.306-.444,1.23,1.23,0,0,0-.447-.242,2.991,2.991,0,0,0-.54-.1c-.195-.008-.381-.013-.57-.013h-.427Z" transform="translate(8719.24 -452.683)"/>
    <path id="Path_656" data-name="Path 656" d="M456.88,315.993h-6.938c-.025.009-.041.009-.052,0-.038,0-.059-.023-.059-.078V303.784c0-.057.04-.089.111-.089h2.26a.083.083,0,0,1,.1.089v9.746h4.583c.06,0,.087.031.087.1v2.256C456.967,315.958,456.94,315.993,456.88,315.993Z" transform="translate(8711.169 -452.695)"/>
    <path id="Path_657" data-name="Path 657" d="M480.161,309.589a6.33,6.33,0,0,1-.5,2.5,6.395,6.395,0,0,1-3.395,3.41,6.372,6.372,0,0,1-4.977,0,6.453,6.453,0,0,1-2.037-1.37,6.52,6.52,0,0,1-1.371-2.04,6.347,6.347,0,0,1-.5-2.5,6.255,6.255,0,0,1,.5-2.487,6.533,6.533,0,0,1,1.371-2.03,6.409,6.409,0,0,1,2.037-1.372,6.419,6.419,0,0,1,4.977,0,6.434,6.434,0,0,1,3.395,3.4A6.238,6.238,0,0,1,480.161,309.589Zm-2.512-.019a3.7,3.7,0,0,0-.311-1.5,4.009,4.009,0,0,0-.84-1.229,3.946,3.946,0,0,0-1.229-.837,3.688,3.688,0,0,0-1.5-.309,3.853,3.853,0,0,0-2.739,1.146,4.167,4.167,0,0,0-.832,1.229,3.711,3.711,0,0,0-.305,1.5,3.777,3.777,0,0,0,.305,1.51,4.115,4.115,0,0,0,.832,1.237,3.893,3.893,0,0,0,1.23.842,3.8,3.8,0,0,0,1.509.306,3.737,3.737,0,0,0,1.5-.306,4.066,4.066,0,0,0,1.229-.842,3.961,3.961,0,0,0,.84-1.237A3.765,3.765,0,0,0,477.649,309.57Z" transform="translate(8703.624 -452.198)"/>
    <path id="Path_658" data-name="Path 658" d="M364.814,315.862a.063.063,0,0,0,.006.036c.008.006.008.014.008.027,0,.048-.046.075-.149.075h-2.456l-.967-2.456H356.64L355.7,316h-2.719c-.012,0-.019-.016-.019-.038a.086.086,0,0,1,.019-.058l4.577-12.11a.039.039,0,0,1,.019-.033.114.114,0,0,1,.094-.043h2.44c.007,0,.031.031.069.094l4.638,12.036Zm-5.863-8.852-1.545,4.075h2.938Z" transform="translate(8745.042 -452.718)"/>
  </g>
</svg>
