<svg id="Group_23" data-name="Group 23" xmlns="http://www.w3.org/2000/svg" width="917.164" height="917.498" viewBox="0 0 917.164 917.498">
  <g id="Group_22" data-name="Group 22" transform="translate(0 0)">
    <path id="Path_473" data-name="Path 473" d="M581.462,493.512a24.411,24.411,0,0,1-13.093-1.362,26.993,26.993,0,0,1-16.36-20.564,24.385,24.385,0,0,1,1.617-13.066,28.593,28.593,0,0,1,20.989-16.7,24.344,24.344,0,0,1,13.124,1.339,27.005,27.005,0,0,1,16.36,20.564,24.333,24.333,0,0,1-1.647,13.089,28.6,28.6,0,0,1-20.989,16.7Zm18.747-17.419a22.356,22.356,0,0,0,1.461-11.922,24.527,24.527,0,0,0-14.913-18.747,22.373,22.373,0,0,0-11.945-1.256,25.555,25.555,0,0,0-18.944,15.071,22.423,22.423,0,0,0-1.433,11.9,24.54,24.54,0,0,0,14.912,18.747,22.442,22.442,0,0,0,11.917,1.279,25.548,25.548,0,0,0,18.945-15.072Z" transform="translate(-389.125 -347.898)"/>
    <path id="Path_474" data-name="Path 474" d="M628.766,465.4l-19.75-8.587a31.949,31.949,0,0,1-4.511,3.2l-13.029,7.776,8.742,14.646L598.1,483.7l-26.04-43.634,15.145-9.039q8.166-4.872,15.034-3.774t10.925,7.893a16.222,16.222,0,0,1,2.516,10.376,16.407,16.407,0,0,1-4.84,9.524l20.419,8.862Zm-25.291-7.392q7.294-4.352,9.266-9.967t-1.636-11.662q-3.569-5.985-9.45-6.912t-13.175,3.423l-13.15,7.849,14.991,25.119Z" transform="translate(-362.761 -366.59)"/>
    <path id="Path_475" data-name="Path 475" d="M593.778,426.258l18.018-7.707a29.408,29.408,0,0,1,14.2-2.52,23.627,23.627,0,0,1,12.3,4.569,27.13,27.13,0,0,1,10.3,24.094,23.659,23.659,0,0,1-5.189,12.048,29.444,29.444,0,0,1-11.63,8.527l-18.021,7.707Zm36.981,37a27,27,0,0,0,10.743-7.833,21.378,21.378,0,0,0,4.67-10.957,24.917,24.917,0,0,0-9.391-21.958,21.413,21.413,0,0,0-11.15-4.192,27.043,27.043,0,0,0-13.084,2.359l-15.616,6.68,18.211,42.582Z" transform="translate(-334.591 -381.008)"/>
    <path id="Path_476" data-name="Path 476" d="M666.279,452.627l.611,2.166-33.053,9.3L620.08,415.177l32.072-9.023.611,2.169-29.7,8.352,5.857,20.823,26.552-7.47.609,2.169-26.552,7.468,6.073,21.593Z" transform="translate(-300.474 -393.697)"/>
    <path id="Path_477" data-name="Path 477" d="M685.564,450.867,670.474,435.5a31.645,31.645,0,0,1-5.385,1.275L650.1,439.1l2.611,16.856-2.439.379-7.783-50.212,17.431-2.7q9.4-1.458,15.354,2.136t7.167,11.412a15.4,15.4,0,0,1-9.616,17.577l15.609,15.871ZM664.89,434.532q8.39-1.3,12.327-5.766t2.857-11.426q-1.068-6.885-6.17-9.951t-13.5-1.764l-15.136,2.345,4.479,28.909Z" transform="translate(-271.408 -397.783)"/>
    <path id="Path_478" data-name="Path 478" d="M694.491,434.563l-.281,17.345-2.469-.039.283-17.348-20-33.79,2.685.043,18.657,31.374,19.666-30.754,2.614.044Z" transform="translate(-233.096 -400.731)"/>
    <path id="Path_479" data-name="Path 479" d="M702.634,448.451a24.407,24.407,0,0,1-8.2-10.3,27.012,27.012,0,0,1,3.228-26.079,24.413,24.413,0,0,1,10.461-7.994,28.59,28.59,0,0,1,26.617,3.294,24.314,24.314,0,0,1,8.235,10.307,27.009,27.009,0,0,1-3.228,26.077,24.337,24.337,0,0,1-10.5,7.992,28.594,28.594,0,0,1-26.619-3.294Zm25.562,1.188a22.375,22.375,0,0,0,9.536-7.3,24.549,24.549,0,0,0,2.94-23.773,22.4,22.4,0,0,0-7.466-9.409,25.545,25.545,0,0,0-24.025-2.971,22.437,22.437,0,0,0-9.5,7.309,24.548,24.548,0,0,0-2.94,23.773,22.46,22.46,0,0,0,7.431,9.4,25.564,25.564,0,0,0,24.025,2.97Z" transform="translate(-206.614 -398.866)"/>
    <path id="Path_480" data-name="Path 480" d="M722.61,450.916q-3.638-6.7-.848-17l7.684-28.376,2.382.646-7.666,28.307q-2.542,9.389.522,15.294t11.26,8.125q8.125,2.2,13.788-1.342t8.2-12.932l7.666-28.305,2.311.625-7.684,28.376q-2.787,10.3-9.276,14.258t-15.6,1.493Q726.247,457.617,722.61,450.916Z" transform="translate(-170.151 -394.494)"/>
    <path id="Path_481" data-name="Path 481" d="M775.124,474.092l-4.84-20.984a32.065,32.065,0,0,1-5.259-1.725l-14-5.853-6.576,15.74-2.279-.951,19.6-46.882,16.275,6.8q8.772,3.666,11.974,9.845t.149,13.475a16.211,16.211,0,0,1-6.848,8.191,16.384,16.384,0,0,1-10.535,1.773l5.017,21.687Zm-9.1-24.731q7.835,3.276,13.525,1.523t8.405-8.249q2.688-6.43-.062-11.709t-10.588-8.557l-14.13-5.906-11.283,26.989Z" transform="translate(-142.109 -384.25)"/>
    <path id="Path_482" data-name="Path 482" d="M772.542,469.022a19.086,19.086,0,0,1-3.836-8.352l2.026-.795a18.483,18.483,0,0,0,3.517,7.769,25.43,25.43,0,0,0,7.266,6.675q6.481,4.011,11.366,3.494a9.36,9.36,0,0,0,7.371-4.53,8.292,8.292,0,0,0,1.349-6.037,12.859,12.859,0,0,0-2.5-5.476,70.39,70.39,0,0,0-5.672-6.285,75.1,75.1,0,0,1-6.115-6.944,14.223,14.223,0,0,1-2.713-6.377,10.589,10.589,0,0,1,1.808-7.332,11.981,11.981,0,0,1,5.042-4.562,13,13,0,0,1,7.411-1,23.257,23.257,0,0,1,9.175,3.588,27.762,27.762,0,0,1,6.293,5.348,21.382,21.382,0,0,1,4.036,6.512l-1.957,1.093A22.2,22.2,0,0,0,812.5,439.5a24.569,24.569,0,0,0-5.55-4.757q-6.295-3.9-11.159-3.28a9.625,9.625,0,0,0-7.349,4.629,8.326,8.326,0,0,0-1.355,6.119,13.479,13.479,0,0,0,2.545,5.543,67.169,67.169,0,0,0,5.621,6.3,81.7,81.7,0,0,1,6.136,6.917,13.8,13.8,0,0,1,2.719,6.292,10.464,10.464,0,0,1-1.78,7.222,11.814,11.814,0,0,1-5.074,4.544,12.958,12.958,0,0,1-7.514.9,24.65,24.65,0,0,1-9.31-3.714A28.359,28.359,0,0,1,772.542,469.022Z" transform="translate(-107.689 -363.895)"/>
    <path id="Path_483" data-name="Path 483" d="M822.249,481.565l-23.906-18.8-14.564,7.477-2.111-1.659,49.9-25.4,1.881,1.482L820.524,499.14l-2.109-1.661Zm.56-2.237,7.978-33.159-30.4,15.524Z" transform="translate(-90.876 -345.67)"/>
    <path id="Path_484" data-name="Path 484" d="M834.676,524.747l33.071-31.691-43.422,10.661-.9-.946L835.9,459.929l-33.016,31.537-1.656-1.732,36.745-35.1,1.4,1.468-13.25,44.98,45.49-11.226,1.4,1.468-36.695,35.15Z" transform="translate(-65.5 -330.806)"/>
    <path id="Path_485" data-name="Path 485" d="M877.57,507.953q-.538,6.936-6.983,11.527-6.5,4.634-13.234,2.878t-12.251-9.5l-8.8-12.354-13.893,9.9-1.434-2.01,41.382-29.486,10.236,14.364Q878.109,501.018,877.57,507.953ZM857.7,520.1q5.758,1.513,11.492-2.573,5.675-4.045,6.124-9.981T870.844,494.7l-8.89-12.473L838.131,499.2l8.89,12.473Q851.948,518.591,857.7,520.1Z" transform="translate(-39.892 -299.327)"/>
    <path id="Path_486" data-name="Path 486" d="M877.446,498.822l1.2,2.154-42.4,23.672,14.509,25.985-1.964,1.1-15.71-28.142Z" transform="translate(-24.189 -273.496)"/>
    <path id="Path_487" data-name="Path 487" d="M856.938,567.25l-2.072.877-13.394-31.613,46.788-19.822,13,30.678-2.072.878L887.15,519.843l-19.916,8.439,10.759,25.4-2.074.88-10.76-25.4-20.653,8.75Z" transform="translate(-13.304 -250.315)"/>
    <path id="Path_488" data-name="Path 488" d="M860.5,547.633l4.817,17.722-2.1.572L858.4,548.205Z" transform="translate(8.657 -210.183)"/>
    <path id="Path_489" data-name="Path 489" d="M858.563,582.569a24.421,24.421,0,0,1,8.072-10.4,27,27,0,0,1,26.1-3.034,24.377,24.377,0,0,1,10.243,8.272,28.589,28.589,0,0,1,3.1,26.64,24.364,24.364,0,0,1-8.065,10.44,27,27,0,0,1-26.1,3.035,24.342,24.342,0,0,1-10.247-8.309,28.6,28.6,0,0,1-3.1-26.64Zm4.9,25.117a22.372,22.372,0,0,0,9.354,7.534,24.543,24.543,0,0,0,23.794-2.768,22.361,22.361,0,0,0,7.374-9.48,25.544,25.544,0,0,0-2.8-24.044,22.44,22.44,0,0,0-9.349-7.5,24.542,24.542,0,0,0-23.8,2.766,22.442,22.442,0,0,0-7.378,9.446,25.557,25.557,0,0,0,2.8,24.046Z" transform="translate(6.298 -184.984)"/>
    <path id="Path_490" data-name="Path 490" d="M857.862,631.956l17.7-12.262a31.856,31.856,0,0,1-.342-5.522l.255-15.17-17.056-.287.041-2.467,50.806.855-.3,17.637q-.159,9.51-4.711,14.768T891.8,634.632a16.207,16.207,0,0,1-10.144-3.328,16.382,16.382,0,0,1-5.545-9.131l-18.292,12.689Zm19.609-17.6q-.142,8.49,3.59,13.128t10.776,4.755q6.964.117,10.854-4.392t4.03-13l.257-15.315-29.25-.492Z" transform="translate(7.894 -147.125)"/>
    <path id="Path_491" data-name="Path 491" d="M909.47,625.813l-2.918,19.381a29.443,29.443,0,0,1-5.322,13.4,23.61,23.61,0,0,1-10.353,8.054,27.1,27.1,0,0,1-25.912-3.9A23.613,23.613,0,0,1,857.445,652a29.391,29.391,0,0,1-1.137-14.373l2.917-19.381Zm-50.915,12.005a27.007,27.007,0,0,0,1.01,13.257,21.391,21.391,0,0,0,6.869,9.73,24.893,24.893,0,0,0,23.614,3.556,21.37,21.37,0,0,0,9.427-7.277,27.067,27.067,0,0,0,4.875-12.368l2.529-16.8-45.8-6.9Z" transform="translate(5.423 -118.589)"/>
    <path id="Path_492" data-name="Path 492" d="M850.988,676.871l-2.164-.62,9.46-33.005,48.845,14-9.181,32.026-2.162-.618,8.5-29.655-20.793-5.962-7.6,26.516-2.161-.62,7.6-26.516-21.561-6.179Z" transform="translate(-3.767 -86.162)"/>
    <path id="Path_493" data-name="Path 493" d="M841.506,695.7l21-4.757a31.6,31.6,0,0,1,1.746-5.251l5.9-13.976-15.713-6.638.96-2.274,46.806,19.776-6.866,16.247q-3.7,8.759-9.89,11.938t-13.477.1a15.408,15.408,0,0,1-9.9-17.421l-21.706,4.934Zm24.763-9q-3.3,7.825-1.573,13.518t8.216,8.438q6.42,2.711,11.709-.016t8.6-10.555l5.961-14.109-26.945-11.384Z" transform="translate(-14.725 -60.792)"/>
    <path id="Path_494" data-name="Path 494" d="M845.495,705.372l-14.706-9.2,1.307-2.093,14.709,9.2,39.264.338-1.426,2.276-36.5-.237,16.17,32.725-1.385,2.217Z" transform="translate(-27.161 -20.228)"/>
    <path id="Path_495" data-name="Path 495" d="M833.127,709.225A24.384,24.384,0,0,1,846.2,707.7a27.01,27.01,0,0,1,20.446,16.5,24.416,24.416,0,0,1,1.268,13.1,28.611,28.611,0,0,1-16.847,20.872,24.365,24.365,0,0,1-13.1,1.551,27.011,27.011,0,0,1-20.447-16.5,24.326,24.326,0,0,1-1.245-13.135,28.6,28.6,0,0,1,16.847-20.869Zm-14.5,21.085a22.367,22.367,0,0,0,1.172,11.954,24.54,24.54,0,0,0,18.639,15.046,22.39,22.39,0,0,0,11.931-1.376A25.55,25.55,0,0,0,865.573,737.1a22.444,22.444,0,0,0-1.194-11.926,24.55,24.55,0,0,0-18.639-15.047,22.441,22.441,0,0,0-11.91,1.349,25.549,25.549,0,0,0-15.2,18.836Z" transform="translate(-46.486 -2.946)"/>
    <path id="Path_496" data-name="Path 496" d="M820.01,727.517q7.615.434,14.9,8.23l20.077,21.479-1.8,1.684-20.026-21.423q-6.643-7.108-13.275-7.613t-12.838,5.3q-6.151,5.747-6.12,12.425t6.673,13.785L827.623,782.8l-1.751,1.636L805.8,762.961q-7.284-7.794-7.234-15.4t6.944-14.042Q812.4,727.08,820.01,727.517Z" transform="translate(-68.963 23.11)"/>
    <path id="Path_497" data-name="Path 497" d="M778.4,761.435l20.4,6.905a31.8,31.8,0,0,1,4.232-3.568l12.33-8.837-9.934-13.865,2.005-1.438,29.6,41.3-14.339,10.273q-7.729,5.536-14.667,5.019t-11.545-6.956a16.223,16.223,0,0,1-3.375-10.128,16.4,16.4,0,0,1,4.029-9.9l-21.09-7.124Zm25.821,5.253q-6.9,4.945-8.4,10.707t2.605,11.486q4.055,5.661,10,6.1t12.841-4.512l12.451-8.922-17.038-23.777Z" transform="translate(-98.18 40.159)"/>
    <path id="Path_498" data-name="Path 498" d="M776.28,758.067a19.093,19.093,0,0,1,9.122,1.121l-.389,2.143a18.45,18.45,0,0,0-8.458-1.089,25.442,25.442,0,0,0-9.494,2.678q-6.819,3.407-8.943,7.84a9.367,9.367,0,0,0-.018,8.651,8.321,8.321,0,0,0,4.433,4.318,12.873,12.873,0,0,0,5.972.747,70.927,70.927,0,0,0,8.327-1.525,74.185,74.185,0,0,1,9.122-1.56,14.2,14.2,0,0,1,6.85,1.038,10.585,10.585,0,0,1,5.29,5.389,11.942,11.942,0,0,1,1.234,6.687,12.978,12.978,0,0,1-3.035,6.834,23.243,23.243,0,0,1-7.872,5.924,27.68,27.68,0,0,1-7.856,2.547,21.489,21.489,0,0,1-7.661.018l.1-2.242a22.226,22.226,0,0,0,7.42-.014,24.579,24.579,0,0,0,6.963-2.226q6.622-3.311,8.651-7.773a9.625,9.625,0,0,0-.08-8.685,8.325,8.325,0,0,0-4.5-4.367,13.455,13.455,0,0,0-6.053-.747,67.935,67.935,0,0,0-8.31,1.479,81.127,81.127,0,0,1-9.106,1.59,13.793,13.793,0,0,1-6.786-.988,10.48,10.48,0,0,1-5.21-5.308,11.788,11.788,0,0,1-1.2-6.7,12.939,12.939,0,0,1,3.182-6.866A24.685,24.685,0,0,1,766.023,761,28.369,28.369,0,0,1,776.28,758.067Z" transform="translate(-125.839 62.634)"/>
    <path id="Path_499" data-name="Path 499" d="M745.451,791.233l28.564-10.452,1.294-16.321,2.522-.921-4.626,55.8-2.249.822-39.547-39.635,2.522-.923Zm1.61,1.651L771.074,817.1l2.779-34.02Z" transform="translate(-156.068 69.871)"/>
    <path id="Path_500" data-name="Path 500" d="M708.707,781.887l9.49,44.807,13.838-42.515,1.279-.269,29.821,33.2-9.391-44.683,2.343-.492,10.452,49.726-1.991.418L733.317,787.1l-14.445,44.573-1.989.419-10.521-49.712Z" transform="translate(-188.557 80.757)"/>
    <path id="Path_501" data-name="Path 501" d="M689.687,825.492q-5.606-4.118-6.106-12.016-.5-7.97,4.539-12.758t14.533-5.394l15.14-.956-1.075-17.024,2.463-.156,3.2,50.711-17.6,1.112Q695.294,829.611,689.687,825.492Zm.165-23.286q-4.325,4.093-3.88,11.12.438,6.954,5.242,10.47t13.282,2.977l15.285-.965-1.845-29.194-15.287.963Q694.174,798.118,689.853,802.206Z" transform="translate(-218.164 87.575)"/>
    <path id="Path_502" data-name="Path 502" d="M693.4,829.632l-2.465-.112,2.2-48.51-29.731-1.348.1-2.249,32.2,1.459Z" transform="translate(-244.272 87.866)"/>
    <path id="Path_503" data-name="Path 503" d="M648.381,776.862l.342-2.221,33.935,5.226-7.734,50.217-32.932-5.07.345-2.224,30.49,4.7,3.291-21.379-27.262-4.2.342-2.224,27.265,4.2,3.413-22.167Z" transform="translate(-272.05 84.272)"/>
    <path id="Path_504" data-name="Path 504" d="M649.927,786.143l-17.835-4.374.517-2.116,17.837,4.374Z" transform="translate(-284.893 90.773)"/>
    <path id="Path_505" data-name="Path 505" d="M644.59,774.031a24.377,24.377,0,0,1,5.185,12.1,27.008,27.008,0,0,1-10,24.3,24.411,24.411,0,0,1-12.2,4.948,28.615,28.615,0,0,1-24.8-10.206,24.347,24.347,0,0,1-5.219-12.117,27.01,27.01,0,0,1,10-24.3,24.333,24.333,0,0,1,12.234-4.932,28.579,28.579,0,0,1,24.8,10.206Zm-24.34-7.9a22.4,22.4,0,0,0-11.127,4.527,24.552,24.552,0,0,0-9.115,22.153,22.407,22.407,0,0,0,4.716,11.047,24.418,24.418,0,0,0,10.05,7.433,24.172,24.172,0,0,0,12.338,1.778,22.456,22.456,0,0,0,11.093-4.539,24.548,24.548,0,0,0,9.115-22.153,22.42,22.42,0,0,0-4.683-11.033,25.563,25.563,0,0,0-22.386-9.214Z" transform="translate(-329.992 70.013)"/>
    <path id="Path_506" data-name="Path 506" d="M596.539,750.868l2.093,21.432a31.949,31.949,0,0,1,4.992,2.391l13.125,7.608,8.555-14.761,2.134,1.239L601.96,812.739,586.7,803.895q-8.229-4.768-10.606-11.306t1.592-13.383a16.237,16.237,0,0,1,7.845-7.243,16.4,16.4,0,0,1,10.677-.395l-2.18-22.156Zm5.83,25.7q-7.346-4.259-13.215-3.255t-9.4,7.1q-3.494,6.03-1.449,11.621t9.4,9.85l13.252,7.679,14.667-25.309Z" transform="translate(-358.687 51.547)"/>
    <path id="Path_507" data-name="Path 507" d="M580.716,797.058l-15.5-11.991a29.433,29.433,0,0,1-9.112-11.178,23.614,23.614,0,0,1-1.992-12.965A27.11,27.11,0,0,1,570.145,740.2a23.63,23.63,0,0,1,13.05-1.33,29.476,29.476,0,0,1,13.109,6.009l15.5,11.993Zm14.325-50.314a27.017,27.017,0,0,0-12.069-5.573,21.355,21.355,0,0,0-11.844,1.252,24.913,24.913,0,0,0-14.614,18.892,21.405,21.405,0,0,0,1.765,11.78,27.015,27.015,0,0,0,8.428,10.281l13.436,10.393,28.335-36.632Z" transform="translate(-386.302 37.384)"/>
    <path id="Path_508" data-name="Path 508" d="M567.173,721.451l1.592-1.592,24.246,24.312-35.979,35.881L533.5,756.459l1.592-1.587,21.786,21.843L572.2,761.441l-19.477-19.532,1.592-1.587,19.478,19.532,15.882-15.841Z" transform="translate(-412.773 13.213)"/>
    <path id="Path_509" data-name="Path 509" d="M555.121,704.728,549.1,725.405a32.243,32.243,0,0,1,3.746,4.075l9.361,11.938,13.424-10.526,1.523,1.944-39.988,31.348-10.883-13.879q-5.865-7.485-5.646-14.438t6.448-11.834a16.2,16.2,0,0,1,9.974-3.806,16.386,16.386,0,0,1,10.061,3.595l6.207-21.379Zm-4.132,26.026q-5.241-6.688-11.061-7.934t-11.362,3.1q-5.485,4.3-5.662,10.25t5.063,12.635l9.451,12.052,23.022-18.048Z" transform="translate(-429.47 -9.377)"/>
    <path id="Path_510" data-name="Path 510" d="M540.453,694.372l15.175-8.412,1.2,2.157-15.174,8.414-19.31,34.188-1.3-2.348,17.881-31.825-36.462-1.7-1.268-2.286Z" transform="translate(-454.686 -30.757)"/>
    <path id="Path_511" data-name="Path 511" d="M546.119,690.258a24.408,24.408,0,0,1-5.01,12.174,27,27,0,0,1-24.349,9.88,24.424,24.424,0,0,1-12.076-5.244A28.6,28.6,0,0,1,494.6,682.213,24.334,24.334,0,0,1,499.6,670a27.012,27.012,0,0,1,24.35-9.878,24.339,24.339,0,0,1,12.089,5.279,28.6,28.6,0,0,1,10.084,24.855ZM534.711,667.35a22.357,22.357,0,0,0-11.024-4.771,24.542,24.542,0,0,0-22.2,9,22.366,22.366,0,0,0-4.583,11.1,25.554,25.554,0,0,0,9.1,22.432,22.47,22.47,0,0,0,11.01,4.741,24.538,24.538,0,0,0,22.2-9.007,22.437,22.437,0,0,0,4.6-11.07,25.567,25.567,0,0,0-9.1-22.431Z" transform="translate(-463.481 -64.589)"/>
    <path id="Path_512" data-name="Path 512" d="M537.249,667.515q-4.086,6.44-14.441,9.011l-28.533,7.087-.6-2.4,28.461-7.069q9.441-2.346,13.11-7.895t1.624-13.792q-2.029-8.17-7.879-11.394t-15.287-.877l-28.463,7.068-.577-2.323L513.2,637.85q10.354-2.574,16.969,1.169t8.89,12.9Q541.334,661.079,537.249,667.515Z" transform="translate(-476.119 -94.521)"/>
    <path id="Path_513" data-name="Path 513" d="M530.7,614.09l-15.974,14.442a31.814,31.814,0,0,1,1.052,5.432l1.7,15.076,16.951-1.916.278,2.451-50.491,5.708-1.982-17.527q-1.068-9.451,2.768-15.253t11.7-6.691A16.219,16.219,0,0,1,507.2,617.8a16.387,16.387,0,0,1,6.676,8.34l16.5-14.94Zm-17.176,19.982q-.951-8.438-5.253-12.556t-11.3-3.324q-6.922.786-10.2,5.754t-2.32,13.413l1.721,15.218,29.07-3.285Z" transform="translate(-479.569 -127.723)"/>
    <path id="Path_514" data-name="Path 514" d="M529.883,613.286a19.088,19.088,0,0,1-5.41,7.429l-1.684-1.381a18.442,18.442,0,0,0,5.056-6.864,25.4,25.4,0,0,0,2.272-9.6q.331-7.614-2.511-11.626a9.367,9.367,0,0,0-7.555-4.218,8.327,8.327,0,0,0-5.926,1.776,12.951,12.951,0,0,0-3.554,4.861,70.826,70.826,0,0,0-2.708,8.022,75.1,75.1,0,0,1-3.068,8.731,14.222,14.222,0,0,1-4.234,5.481,10.6,10.6,0,0,1-7.281,2.008,11.958,11.958,0,0,1-6.443-2.168,12.98,12.98,0,0,1-4.5-5.973,23.255,23.255,0,0,1-1.355-9.759,27.7,27.7,0,0,1,1.587-8.1,21.478,21.478,0,0,1,3.705-6.705l1.911,1.174a22.227,22.227,0,0,0-3.588,6.492,24.564,24.564,0,0,0-1.438,7.167q-.32,7.4,2.6,11.339a9.614,9.614,0,0,0,7.631,4.144,8.312,8.312,0,0,0,6-1.808,13.447,13.447,0,0,0,3.593-4.929,67.449,67.449,0,0,0,2.743-7.983,81.884,81.884,0,0,1,3.032-8.734,13.778,13.778,0,0,1,4.16-5.449,10.46,10.46,0,0,1,7.172-1.978,11.807,11.807,0,0,1,6.444,2.206,12.956,12.956,0,0,1,4.456,6.115,24.7,24.7,0,0,1,1.312,9.94A28.4,28.4,0,0,1,529.883,613.286Z" transform="translate(-480.946 -162.212)"/>
    <path id="Path_515" data-name="Path 515" d="M521.237,569.33l-4.7,30.048,13.647,9.042-.413,2.653L483.2,579.984l.37-2.366,53.835-15.383L537,564.89Zm-2.226.606L486.19,579.2,514.6,598.12Z" transform="translate(-478.017 -191.244)"/>
    <path id="Path_516" data-name="Path 516" d="M549.257,548.3l-43.794-13.415L535.946,567.6l-.384,1.247-43.487,10,43.634,13.441-.705,2.29-48.561-14.961.6-1.941L532.771,567.3l-31.987-34.234.6-1.943,48.581,14.89Z" transform="translate(-473.816 -231.599)"/>
    <path id="Path_517" data-name="Path 517" d="M515.023,510.192q6.322-2.9,13.468.5,7.211,3.429,8.952,10.165T535.1,536.177l-6.515,13.7,15.407,7.325-1.061,2.229-45.887-21.821,7.573-15.93Q508.7,513.093,515.023,510.192ZM535.3,521.641q-1.474-5.765-7.835-8.789-6.292-2.994-11.7-.5t-9.053,10.165l-6.577,13.831,26.419,12.563,6.577-13.831Q536.778,527.4,535.3,521.641Z" transform="translate(-460.069 -260.482)"/>
    <path id="Path_518" data-name="Path 518" d="M507.928,501.16l1.3-2.1,41.3,25.553,15.659-25.31,1.913,1.185L551.139,527.9Z" transform="translate(-445.948 -273.186)"/>
    <path id="Path_519" data-name="Path 519" d="M578.353,500.648l1.776,1.383-21.1,27.083-40.082-31.227L539.422,471.6l1.773,1.383-18.958,24.336L539.3,510.615l16.952-21.758,1.776,1.383L541.076,512l17.695,13.787Z" transform="translate(-431.656 -308.802)"/>
    <path id="Path_520" data-name="Path 520" d="M541.191,484.216l12.5-13.456,1.6,1.481-12.5,13.457Z" transform="translate(-402.802 -309.896)"/>
  </g>
</svg>
